<svg xmlns="http://www.w3.org/2000/svg" width="19.114" height="22" viewBox="0 0 19.114 22">
  <g id="user" transform="translate(-2.22 -1.25)">
    <path id="Path_13520" data-name="Path 13520" d="M12.25,13.25a6,6,0,1,1,6-6A6.007,6.007,0,0,1,12.25,13.25Zm0-10.435A4.435,4.435,0,1,0,16.684,7.25,4.444,4.444,0,0,0,12.25,2.815Z" transform="translate(-0.03)" fill="#b1afaf"/>
    <path id="Path_13521" data-name="Path 13521" d="M21.007,22.95a.773.773,0,0,1-.767-.768c0-3.531-3.6-6.4-8.022-6.4S4.2,18.651,4.2,22.182a.767.767,0,1,1-1.535,0c0-4.371,4.287-7.932,9.557-7.932s9.557,3.562,9.557,7.932A.773.773,0,0,1,21.007,22.95Z" transform="translate(-0.44 0.3)" fill="#b1afaf"/>
  </g>
</svg>
