<svg xmlns="http://www.w3.org/2000/svg" width="24" height="24" viewBox="0 0 24 24">
  <g id="Group_21809" data-name="Group 21809" transform="translate(-351 -2549)">
    <rect id="Rectangle_18342" data-name="Rectangle 18342" width="24" height="24" transform="translate(351 2549)" fill="none"/>
    <g id="Home" transform="translate(353 2550.475)">
      <path id="Home-2" data-name="Home" d="M16.085,21.051H13.99a1.918,1.918,0,0,1-1.884-1.778l-.01-.148v-3.01a.668.668,0,0,0-.568-.654l-.095-.01H8.62a.667.667,0,0,0-.652.568l-.01.1v3a1.114,1.114,0,0,1-.021.189l-.01.022-.012.073a1.908,1.908,0,0,1-1.777,1.643L6,21.051H4.115A4.117,4.117,0,0,1,0,17.156V8.41A3.133,3.133,0,0,1,1.053,6.1L7.61.83A3.825,3.825,0,0,1,12.2.7l.17.127,6.409,5.127A3.17,3.17,0,0,1,19.99,8.2L20,8.41v8.536A4.122,4.122,0,0,1,16.085,21.051ZM8.463,13.987h2.969a2.143,2.143,0,0,1,2.126,1.97v3.168a.459.459,0,0,0,.369.452h1.957a2.638,2.638,0,0,0,2.641-2.463l.012-.168V8.419a1.706,1.706,0,0,0-.527-1.189l-.136-.117L11.453,1.977a2.345,2.345,0,0,0-1.464-.509,2.376,2.376,0,0,0-1.315.393l-.159.117-6.4,5.158a1.634,1.634,0,0,0-.64,1.115l-.012.169v8.526a2.643,2.643,0,0,0,2.486,2.631H6a.451.451,0,0,0,.462-.377l.022-.189.011-.054V16.115A2.117,2.117,0,0,1,8.463,13.987Z" transform="translate(0)" fill="#b1afaf"/>
    </g>
  </g>
</svg>
