<?xml version="1.0" encoding="UTF-8"?>
<svg class="" width="512" height="512" enable-background="new 0 0 512 512" version="1.1" viewBox="0 0 682.67 682.67" xml:space="preserve" xmlns="http://www.w3.org/2000/svg"><defs><clipPath id="a"><path class="" d="M0 512h512V0H0Z" fill="#b1afaf" data-original="#000000"/></clipPath></defs><g transform="matrix(1.3333 0 0 -1.3333 0 682.67)" clip-path="url(#a)" fill="none" stroke="#B1AFAF" stroke-linecap="round" stroke-linejoin="round" stroke-miterlimit="10" stroke-width="20px"><path transform="translate(256 253.05)" d="M0 0v0c-27.172 0-49.2 22.028-49.2 49.2v18.782h98.4V49.2C49.2 22.028 27.173 0 0 0Z" data-original="#000000"/><path transform="translate(157.6 253.05)" d="M0 0v0c-27.172 0-49.2 22.028-49.2 49.2l-.5 18.782h98.9V49.2C49.2 22.028 27.172 0 0 0Z" data-original="#000000"/><path transform="translate(354.4 253.05)" d="M0 0v0c-27.173 0-49.2 22.028-49.2 49.2v18.782h98.399V49.2C49.199 22.028 27.172 0 0 0Z" data-original="#000000"/><path transform="translate(59.2 253.05)" d="M0 0v0c-27.173 0-49.2 22.028-49.2 49.2v18.782h97.9l.5-18.782C49.2 22.028 27.172 0 0 0Z" data-original="#000000"/><path transform="translate(452.8 253.05)" d="M0 0v0c-27.172 0-49.2 22.028-49.2 49.2v18.782h98.4V49.2C49.2 22.028 27.173 0 0 0Z" data-original="#000000"/><path transform="translate(478.8 377.65)" d="m0 0-67.436 83.45a23.197 23.197 0 0 1-18.044 8.618h-274.545a23.198 23.198 0 0 1-18.141-8.737L-444.6 0h-.406c-12.653 0-22.973-10.139-23.196-22.79l-.598-33.823h492V-23.2C23.2-10.387 12.813 0 0 0Z" data-original="#000000"/><path transform="translate(472.8 194.14)" d="m0 0v63.147a49.077 49.077 0 0 0-20-4.23c-27.17 0-49.2 22.021-49.2 49.2 0-27.179-22.029-49.2-49.199-49.2s-49.201 22.021-49.201 49.2c0-27.179-22.03-49.2-49.2-49.2s-49.2 22.021-49.2 49.2c0-27.179-22.03-49.2-49.2-49.2s-49.2 22.021-49.2 49.2c0-27.179-22.03-49.2-49.2-49.2-7.12 0-13.89 1.511-20 4.23v-215h433.6v64.027" data-original="#000000"/><path transform="translate(10 42.287)" d="m0 0h492" data-original="#000000"/><path d="m179.22 42.287h-88.144v158.65h88.144z" data-original="#000000"/><path transform="translate(226.56 106.97)" d="m0 0h79.087" data-original="#000000"/><path d="m293.22 106.97h-54.242v76.337h54.242zm123.82 0h-54.242v76.337h54.242z" data-original="#000000"/><path transform="translate(350.38 106.97)" d="m0 0h79.087" data-original="#000000"/><path transform="translate(121.84 120.71)" d="m0 0" data-original="#000000"/><path transform="translate(33.794 377.65)" d="M0 0h74.106v-56.613h-97.9l.598 33.823C-22.973-10.139-12.653 0 0 0Z" data-original="#000000"/><path transform="translate(107.9 377.65)" d="m0 0 50.604 92.068H10.875a23.198 23.198 0 0 1-18.141-8.737L-73.7 0Z" data-original="#000000"/><path d="m107.9 377.65h98.9v-56.613h-98.9z" data-original="#000000"/><path transform="translate(206.8 377.65)" d="m0 0 11 92.068h-59.295L-98.9 0Z" data-original="#000000"/><path transform="translate(403.6 377.65)" d="M0 0h75.2c12.814 0 23.2-10.387 23.2-23.2v-33.413H0ZM0 0l-50.104 92.068h39.824A23.2 23.2 0 0 0 7.765 83.45L75.2 0Z" data-original="#000000"/><path d="M305.2 377.646h98.399v-56.613H305.2Z" data-original="#000000"/><path transform="translate(305.2 377.65)" d="m0 0-12 92.068h60.295L98.399 0Z" data-original="#000000"/><path d="m206.8 377.65h98.4v-56.613h-98.4z" data-original="#000000"/><path transform="translate(293.2 469.72)" d="M0 0h-75.4l-11-92.068H12Z" data-original="#000000"/><path transform="translate(472.8 151.47)" d="m0 0" data-original="#000000"/></g></svg>
