<svg xmlns="http://www.w3.org/2000/svg" width="21" height="21" viewBox="0 0 21 21">
  <g id="svgexport-15" transform="translate(-2 -2)">
    <path id="Path_13350" data-name="Path 13350" d="M4.25,2A2.251,2.251,0,0,0,2,4.25a.75.75,0,0,0,.01.123L4.25,17.811V21.5A1.5,1.5,0,0,0,5.75,23H8a.75.75,0,1,0,0-1.5H5.75v-3H8A.75.75,0,1,0,8,17H5.636L3.885,6.5h8.229l-.479,2.877a.75.75,0,0,0,1.479.246l.874-5.25A.75.75,0,0,0,14,4.25,2.251,2.251,0,0,0,11.75,2Zm0,1.5h7.5a.749.749,0,0,1,.747.7l-.133.8H3.635L3.5,4.2A.752.752,0,0,1,4.25,3.5ZM16.235,8a.749.749,0,0,0-.735.75,1.924,1.924,0,0,1-1.085,1.579,4.966,4.966,0,0,0-2.5,2.185,1.873,1.873,0,0,0-1.664,1.861V15.5a.75.75,0,0,0-.75.75v4.5A2.251,2.251,0,0,0,11.75,23h9A2.251,2.251,0,0,0,23,20.75v-4.5a.75.75,0,0,0-.75-.75V14.375a1.874,1.874,0,0,0-1.6-1.852,5.562,5.562,0,0,0-1.463-2.461,12.023,12.023,0,0,0-2.581-1.972A.753.753,0,0,0,16.235,8Zm.5,1.943A9.592,9.592,0,0,1,18.108,11.1a4.542,4.542,0,0,1,.973,1.4H13.854a5.307,5.307,0,0,1,1.232-.829,3.365,3.365,0,0,0,1.645-1.729ZM12.125,14h8.25a.375.375,0,0,1,.375.375V15.5h-9V14.375A.375.375,0,0,1,12.125,14ZM11,17H21.5v3.75a.75.75,0,0,1-.75.75h-9a.75.75,0,0,1-.75-.75Z" fill="#b1afaf" fill-rule="evenodd"/>
  </g>
</svg>
