<svg xmlns="http://www.w3.org/2000/svg" xmlns:xlink="http://www.w3.org/1999/xlink" width="22" height="22" viewBox="0 0 22 22">
  <defs>
    <clipPath id="clip-path">
      <path id="Path_13360" data-name="Path 13360" d="M0-682.665H22v22H0Z" transform="translate(0 682.665)" fill="#b1afaf"/>
    </clipPath>
  </defs>
  <g id="svgexport-10" transform="translate(0 -0.002)">
    <g id="Group_21060" data-name="Group 21060" transform="translate(0 0.002)" clip-path="url(#clip-path)">
      <path id="Union_1" data-name="Union 1" d="M.712,22.134A.712.712,0,0,1,0,21.422V18.756a2.183,2.183,0,0,1,.984-1.83V7.914a7.914,7.914,0,0,1,13.51-5.6,7.863,7.863,0,0,1,2.318,5.6v9.012a2.183,2.183,0,0,1,.983,1.83v2.667a.712.712,0,0,1-.712.712Zm.712-3.378v1.955H16.372V18.756a.766.766,0,0,0-.517-.726l-.019-.006-4.2-1.334L9.4,18.921a.711.711,0,0,1-1.006,0L6.162,16.689l-4.2,1.334-.017.006-.009,0-.01,0A.766.766,0,0,0,1.424,18.756ZM8.9,17.412l1.826-1.827V14.509a4.821,4.821,0,0,1-3.653,0v1.076Zm-6.491-9.5v8.474l3.241-1.029V13.6a4.809,4.809,0,0,1-1.571-3.557v-2.7a.712.712,0,0,1,.712-.712H7.35A.836.836,0,0,0,8.186,5.8V3.29a.712.712,0,0,1,1.423,0V5.8a.836.836,0,0,0,.835.835h2.562a.712.712,0,0,1,.712.712v2.7A4.81,4.81,0,0,1,12.147,13.6v1.754l3.241,1.029V7.914a6.491,6.491,0,1,0-12.981,0ZM5.5,10.047a3.4,3.4,0,0,0,6.794,0V8.06h-1.85A2.249,2.249,0,0,1,8.9,7.445,2.251,2.251,0,0,1,7.35,8.06H5.5Z" transform="translate(2.102 -0.067)" fill="#b1afaf"/>
    </g>
  </g>
</svg>
