<svg xmlns="http://www.w3.org/2000/svg" width="36" height="36" viewBox="0 0 36 36">
  <g id="Group_22388" data-name="Group 22388" transform="translate(-319 -133.5)">
    <rect id="Rectangle_157" data-name="Rectangle 157" width="36" height="36" rx="9" transform="translate(319 133.5)" fill="#7c3a5b"/>
    <g id="Group_21607" data-name="Group 21607" transform="translate(16 -312.5)">
      <rect id="Rectangle_667" data-name="Rectangle 667" width="21.999" height="21.999" transform="translate(310 453)" fill="none"/>
      <g id="Group_22403" data-name="Group 22403" transform="translate(-84 -9836)">
        <path id="Rectangle_19824" data-name="Rectangle 19824" d="M3,1.2A1.8,1.8,0,0,0,1.2,3V15A1.8,1.8,0,0,0,3,16.8H15A1.8,1.8,0,0,0,16.8,15V3A1.8,1.8,0,0,0,15,1.2H3M3,0H15a3,3,0,0,1,3,3V15a3,3,0,0,1-3,3H3a3,3,0,0,1-3-3V3A3,3,0,0,1,3,0Z" transform="translate(396 10291)" fill="#fff"/>
        <path id="Path_14597" data-name="Path 14597" d="M13.625,7.562H3.887a.6.6,0,1,1,0-1.2h9.738a.6.6,0,1,1,0,1.2Z" transform="translate(396.244 10293.037)" fill="#fff"/>
        <path id="Path_14598" data-name="Path 14598" d="M7.929,7.562H3.887a.6.6,0,1,1,0-1.2H7.929a.6.6,0,0,1,0,1.2Z" transform="translate(398.801 10289.426)" fill="#fff"/>
        <path id="Path_14599" data-name="Path 14599" d="M7.929,7.562H3.887a.6.6,0,1,1,0-1.2H7.929a.6.6,0,0,1,0,1.2Z" transform="translate(398.801 10297.096)" fill="#fff"/>
      </g>
    </g>
  </g>
</svg>
