<svg xmlns="http://www.w3.org/2000/svg" width="16.003" height="16.003" viewBox="0 0 16.003 16.003">
  <g id="Group_22050" data-name="Group 22050" transform="translate(-100.749 -237.249)">
    <path id="Path_13907" data-name="Path 13907" d="M13.763,12.366H7.808a.558.558,0,1,1,0-1.116h5.955a.558.558,0,1,1,0,1.116Z" transform="translate(97.964 233.442)" fill="#3b3b3b"/>
    <path id="Path_13908" data-name="Path 13908" d="M11.808,14.321a.562.562,0,0,1-.558-.558V7.808a.558.558,0,1,1,1.116,0v5.955A.562.562,0,0,1,11.808,14.321Z" transform="translate(96.942 234.464)" fill="#3b3b3b"/>
    <path id="Path_13909" data-name="Path 13909" d="M11.484,17.253H7.018c-4.042,0-5.768-1.727-5.768-5.768V7.018c0-4.042,1.727-5.768,5.768-5.768h4.466c4.042,0,5.768,1.727,5.768,5.768v4.466C17.253,15.526,15.526,17.253,11.484,17.253ZM7.018,2.366c-3.431,0-4.652,1.221-4.652,4.652v4.466c0,3.431,1.221,4.652,4.652,4.652h4.466c3.431,0,4.652-1.221,4.652-4.652V7.018c0-3.431-1.221-4.652-4.652-4.652Z" transform="translate(99.499 235.999)" fill="#3b3b3b"/>
  </g>
</svg>
