<svg xmlns="http://www.w3.org/2000/svg" width="16" height="16" viewBox="0 0 16 16">
  <g id="Group_22048" data-name="Group 22048" transform="translate(-323 -155)">
    <rect id="Rectangle_18365" data-name="Rectangle 18365" width="16" height="16" transform="translate(323 155)" fill="#fff"/>
    <g id="map" transform="translate(321.75 153.75)">
      <path id="Path_13900" data-name="Path 13900" d="M18.556,17.138a.558.558,0,0,1-.394-.164l-4.748-4.748a.561.561,0,0,1,0-.789l5.753-5.753a.575.575,0,0,1,.551-.141.566.566,0,0,1,.387.409,9.844,9.844,0,0,1,.216,2.158v4.465c0,2.061-.432,3.453-1.369,4.4A.843.843,0,0,1,18.556,17.138ZM14.6,11.832l3.914,3.914a5.793,5.793,0,0,0,.692-3.17V8.111c0-.305-.008-.588-.03-.856Z" transform="translate(-3.07 -1.093)" fill="#3b3b3b"/>
      <path id="Path_13901" data-name="Path 13901" d="M4.986,17.049a.733.733,0,0,1-.126-.015C2.4,16.469,1.25,14.7,1.25,11.483V7.017c0-4.041,1.727-5.767,5.767-5.767h4.465c3.222,0,4.986,1.146,5.552,3.609a.561.561,0,0,1-.149.521L5.38,16.885A.558.558,0,0,1,4.986,17.049ZM7.017,2.366c-3.431,0-4.651,1.22-4.651,4.651v4.465c0,2.582.714,3.877,2.448,4.391L15.866,4.822c-.506-1.734-1.808-2.448-4.391-2.448H7.017Z" transform="translate(0 0)" fill="#3b3b3b"/>
      <path id="Path_13902" data-name="Path 13902" d="M12.575,20.32H8.11A9.455,9.455,0,0,1,5.952,20.1a.542.542,0,0,1-.409-.387.562.562,0,0,1,.141-.551l5.753-5.753a.561.561,0,0,1,.789,0l4.748,4.748a.557.557,0,0,1,0,.789C16.028,19.889,14.636,20.32,12.575,20.32ZM7.254,19.174c.268.022.551.03.856.03h4.465a5.776,5.776,0,0,0,3.17-.692L11.831,14.6Z" transform="translate(-1.092 -3.07)" fill="#3b3b3b"/>
      <path id="Path_13903" data-name="Path 13903" d="M8.169,11.194a1.9,1.9,0,0,1-1.31-.521A3.722,3.722,0,0,1,5.483,7.109,2.676,2.676,0,0,1,8.169,5.04a2.676,2.676,0,0,1,2.687,2.069,3.74,3.74,0,0,1-1.384,3.565A1.906,1.906,0,0,1,8.169,11.194Zm-1.6-3.84A2.773,2.773,0,0,0,7.633,9.862a.768.768,0,0,0,1.072,0A2.793,2.793,0,0,0,9.769,7.354a1.575,1.575,0,0,0-1.6-1.206A1.581,1.581,0,0,0,6.569,7.354Z" transform="translate(-1.062 -0.97)" fill="#3b3b3b"/>
      <path id="Path_13904" data-name="Path 13904" d="M8.895,8.978a.744.744,0,1,1,0-1.488H8.9a.744.744,0,1,1-.007,1.488Z" transform="translate(-1.765 -1.596)" fill="#3b3b3b"/>
    </g>
  </g>
</svg>
