<svg xmlns="http://www.w3.org/2000/svg" width="32" height="20" viewBox="0 0 32 20">
  <g id="Group_22064" data-name="Group 22064" transform="translate(-71.194 -229.267)">
    <g id="Group_19208" data-name="Group 19208" transform="translate(71.194 229.267)">
      <g id="Rectangle_17837" data-name="Rectangle 17837" transform="translate(0 0)" fill="#fff" stroke="#f5f5f5" stroke-width="0.7">
        <rect width="32" height="20" rx="5" stroke="none"/>
        <rect x="0.35" y="0.35" width="31.3" height="19.3" rx="4.65" fill="none"/>
      </g>
    </g>
    <path id="Path_13096" data-name="Path 13096" d="M66.9,10.19A1.266,1.266,0,0,0,67.919,9.7a1.6,1.6,0,0,0,.357-1.123,1.515,1.515,0,0,0-1.014.535A1.5,1.5,0,0,0,66.9,10.19Zm4.633,5.339V9.067H73.9a2.006,2.006,0,0,1,2.081,2.122,2.029,2.029,0,0,1-2.114,2.131H72.512v2.209Zm-3.258-5.26a2.112,2.112,0,0,0-.909.207.762.762,0,0,1-.828,0,1.821,1.821,0,0,0-.706-.179,1.662,1.662,0,0,0-1.416.879,3.691,3.691,0,0,0,.43,3.523c.288.431.633.9,1.087.887a1.283,1.283,0,0,0,.493-.135,1.431,1.431,0,0,1,.627-.151,1.351,1.351,0,0,1,.6.147,1.144,1.144,0,0,0,.526.13c.471-.008.767-.431,1.055-.862a3.826,3.826,0,0,0,.468-.983l0-.008-.011-.005a1.552,1.552,0,0,1-.906-1.416,1.59,1.59,0,0,1,.73-1.326l.012-.008A1.6,1.6,0,0,0,68.272,10.269Zm9.506,5.31a1.618,1.618,0,0,0,1.448-.825h.02v.775h.909V12.313c0-.933-.73-1.534-1.854-1.534a1.656,1.656,0,0,0-1.842,1.447h.884a.864.864,0,0,1,.929-.659c.6,0,.937.286.937.813v.356l-1.225.075c-1.14.07-1.757.547-1.757,1.376A1.4,1.4,0,0,0,77.779,15.579Zm.264-.767c-.523,0-.856-.257-.856-.651s.32-.643.933-.68l1.091-.07v.365A1.076,1.076,0,0,1,78.042,14.812Zm5.128.97c-.394,1.132-.844,1.5-1.8,1.5A2.646,2.646,0,0,1,81,17.262v-.775c.061.008.211.017.288.017.434,0,.678-.187.828-.672l.089-.286-1.664-4.7h1.026l1.156,3.818h.02L83.9,10.841h1ZM72.512,9.913h1.132a1.191,1.191,0,0,1,1.339,1.281,1.2,1.2,0,0,1-1.343,1.285H72.512Z" transform="translate(12.686 226.337)" fill="#1f1f1f" fill-rule="evenodd"/>
  </g>
</svg>
