<svg xmlns="http://www.w3.org/2000/svg" width="12.198" height="9.2" viewBox="0 0 12.198 9.2">
  <g id="Group_22287" data-name="Group 22287" transform="translate(-25.9 -746.4)">
    <path id="Union_2" data-name="Union 2" d="M-496.378-1556.1l-.061-.048-3.4-4a.468.468,0,0,1-.053-.651l0,0a.521.521,0,0,1,.049-.052h0l3.4-4a.583.583,0,0,1,.771,0,.467.467,0,0,1,.051.649l-.053.056-2.6,3.15h9.722a.523.523,0,0,1,.545.5.517.517,0,0,1-.472.494l-.074,0h-9.723l2.6,3.15a.469.469,0,0,1,0,.7.572.572,0,0,1-.387.147A.576.576,0,0,1-496.378-1556.1Z" transform="translate(526 2311.5)" fill="#7c3a5b"/>
    <path id="Union_2_-_Outline" data-name="Union 2 - Outline" d="M-496.055-1555.9a.671.671,0,0,1-.379-.115l-.005,0-.076-.062-3.4-4a.568.568,0,0,1-.058-.783l.005-.006a.63.63,0,0,1,.053-.056l3.406-4.007a.67.67,0,0,1,.452-.171.668.668,0,0,1,.454.173.568.568,0,0,1,.061.786l-.005.006-.051.053-2.462,2.984h9.51a.624.624,0,0,1,.645.6.618.618,0,0,1-.559.593h-.006l-.08,0h-9.511l2.461,2.981a.573.573,0,0,1,.188.421.574.574,0,0,1-.191.426A.669.669,0,0,1-496.055-1555.9Zm-.264-.278a.473.473,0,0,0,.264.078.47.47,0,0,0,.319-.121.376.376,0,0,0,.126-.279.377.377,0,0,0-.128-.279l-.01-.01-2.736-3.314h9.932l.067,0a.418.418,0,0,0,.381-.395.424.424,0,0,0-.445-.4h-9.934l2.739-3.319.05-.053a.366.366,0,0,0-.044-.509.468.468,0,0,0-.319-.12.471.471,0,0,0-.313.115l-3.405,4.007a.422.422,0,0,0-.04.042l0,.005a.365.365,0,0,0,.045.511l.009.009,3.394,3.994Z" transform="translate(526 2311.5)" fill="#7c3a5b"/>
  </g>
</svg>
