<?xml version="1.0" encoding="UTF-8"?>
<svg viewBox="0 0 19.156 21.284" xmlns="http://www.w3.org/2000/svg">
<path d="M5.424,21.284A5.473,5.473,0,0,1,1.46,19.843,5.456,5.456,0,0,1,0,15.861V6.9A5.323,5.323,0,0,1,1.46,2.98a5.3,5.3,0,0,1,3.418-1.4V.742a.736.736,0,0,1,1.466-.1l.007.1v.821h6.462V.742a.737.737,0,0,1,1.467-.1l.007.1v.839a5.269,5.269,0,0,1,3.458,1.435A5.325,5.325,0,0,1,19.156,6.9v9.034A5.338,5.338,0,0,1,17.7,19.864a5.519,5.519,0,0,1-3.966,1.419ZM1.473,15.861c0,2.54,1.4,3.938,3.951,3.938h8.308c2.547,0,3.95-1.372,3.95-3.864V8.814H1.473ZM17.682,7.33V6.9A3.843,3.843,0,0,0,16.7,4.065a3.722,3.722,0,0,0-2.414-1V4a.737.737,0,0,1-1.467.1L12.813,4V3.048H6.351V4a.736.736,0,0,1-1.466.1L4.878,4V3.07c-2.2.186-3.4,1.53-3.4,3.832V7.33ZM13.2,15.786a.74.74,0,0,1,.637-.736l.108-.007a.743.743,0,0,1,.1,1.478l-.1.007A.741.741,0,0,1,13.2,15.786Zm-4.36,0a.74.74,0,0,1,.637-.736l.109-.007a.743.743,0,0,1,.1,1.478l-.1.007A.742.742,0,0,1,8.845,15.786Zm-4.367,0a.74.74,0,0,1,.637-.736l.108-.007a.743.743,0,0,1,.1,1.478l-.109.007A.739.739,0,0,1,4.478,15.786ZM13.2,11.939a.74.74,0,0,1,.637-.736l.108-.007a.743.743,0,0,1,.1,1.478l-.1.007A.741.741,0,0,1,13.2,11.939Zm-4.36,0a.74.74,0,0,1,.637-.736l.109-.007a.743.743,0,0,1,.1,1.478l-.1.007A.742.742,0,0,1,8.845,11.939Zm-4.367,0a.74.74,0,0,1,.637-.736l.108-.007a.743.743,0,0,1,.1,1.478l-.109.007A.739.739,0,0,1,4.478,11.939Z" fill="#b1afaf" data-name="Calendar"/>
</svg>
