<svg xmlns="http://www.w3.org/2000/svg" width="20" height="19.599" viewBox="0 0 20 19.599">
  <path id="Buy" d="M15.159,18.086A1.515,1.515,0,1,1,16.675,19.6,1.516,1.516,0,0,1,15.159,18.086Zm-11.251,0A1.514,1.514,0,1,1,5.422,19.6,1.515,1.515,0,0,1,3.908,18.086Zm1.681-3.1A2.568,2.568,0,0,1,3.064,12.81l-.019-.164-.914-10.9L.621,1.49A.752.752,0,0,1,0,.724l.01-.1A.749.749,0,0,1,.749,0H.776l.1.01,2.08.36a.749.749,0,0,1,.6.566l.018.111.235,2.8h14.1a2.07,2.07,0,0,1,1.531.666,2.1,2.1,0,0,1,.554,1.573l-.016.151L19.029,12.8a2.564,2.564,0,0,1-2.363,2.182l-.164.005ZM4.54,12.521a1.055,1.055,0,0,0,.933.959l.116.006H16.5a1.054,1.054,0,0,0,1.019-.787l.023-.117.95-6.558a.592.592,0,0,0-.5-.669l-.088-.007H3.938Zm7.585-3.476a.75.75,0,0,1-.1-1.493l.1-.007H14.9A.751.751,0,0,1,15,9.039l-.1.006Z" fill="#3b3b3b"/>
</svg>
