<svg xmlns="http://www.w3.org/2000/svg" width="10.5" height="10.5" viewBox="0 0 10.5 10.5">
  <g id="clock" transform="translate(-1.25 -1.25)">
    <path id="Path_14605" data-name="Path 14605" d="M6.5,11.75A5.25,5.25,0,1,1,11.75,6.5,5.254,5.254,0,0,1,6.5,11.75Zm0-9.767A4.517,4.517,0,1,0,11.017,6.5,4.523,4.523,0,0,0,6.5,1.983Z" fill="#b1afaf"/>
    <path id="Path_14606" data-name="Path 14606" d="M13.244,11.238a.327.327,0,0,1-.186-.054l-1.514-.9a1.44,1.44,0,0,1-.654-1.153v-2a.366.366,0,1,1,.733,0v2a.722.722,0,0,0,.3.523l1.514.9a.366.366,0,0,1,.127.5A.376.376,0,0,1,13.244,11.238Z" transform="translate(-4.932 -2.819)" fill="#b1afaf"/>
  </g>
</svg>
