<svg xmlns="http://www.w3.org/2000/svg" width="36" height="36" viewBox="0 0 36 36">
  <g id="Group_22389" data-name="Group 22389" transform="translate(-319 -133.5)">
    <rect id="Rectangle_157" data-name="Rectangle 157" width="36" height="36" rx="9" transform="translate(319 133.5)" fill="#7c3a5b"/>
    <g id="Group_21607" data-name="Group 21607" transform="translate(16 -312.5)">
      <rect id="Rectangle_667" data-name="Rectangle 667" width="21.999" height="21.999" transform="translate(310 453)" fill="none"/>
      <g id="direct" transform="translate(310.259 453.254)">
        <path id="Path_14586" data-name="Path 14586" d="M13.4,20.242H8.1c-4.8,0-6.846-2.049-6.846-6.846V8.1C1.25,3.3,3.3,1.25,8.1,1.25h5.3c4.8,0,6.846,2.049,6.846,6.846v5.3C20.242,18.193,18.193,20.242,13.4,20.242ZM8.1,2.575c-4.072,0-5.521,1.449-5.521,5.521v5.3c0,4.072,1.449,5.521,5.521,5.521h5.3c4.072,0,5.521-1.449,5.521-5.521V8.1c0-4.072-1.449-5.521-5.521-5.521Z" transform="translate(-0.001 0)" fill="#fff"/>
        <path id="Path_14587" data-name="Path 14587" d="M12.3,17.108H9.182a2.324,2.324,0,0,1-2.173-1.343l-.786-1.581a1.088,1.088,0,0,0-.989-.61H1.9a.667.667,0,0,1-.663-.663.675.675,0,0,1,.671-.663H5.233a2.412,2.412,0,0,1,2.173,1.343l.786,1.581a1.027,1.027,0,0,0,.989.61H12.3a1.088,1.088,0,0,0,.989-.61l.786-1.581a2.412,2.412,0,0,1,2.173-1.343h3.3a.663.663,0,0,1,0,1.325h-3.3a1.088,1.088,0,0,0-.989.61l-.786,1.581A2.412,2.412,0,0,1,12.3,17.108Z" transform="translate(0 -1.283)" fill="#fff"/>
        <path id="Path_14588" data-name="Path 14588" d="M13.193,7.575H10.251a.663.663,0,1,1-.009-1.325h2.942a.667.667,0,0,1,.663.663A.66.66,0,0,1,13.193,7.575Z" transform="translate(-0.973 -0.583)" fill="#fff"/>
        <path id="Path_14589" data-name="Path 14589" d="M13.829,10.575H9.413a.663.663,0,0,1,0-1.325h4.417a.663.663,0,0,1,0,1.325Z" transform="translate(-0.876 -0.933)" fill="#fff"/>
      </g>
    </g>
  </g>
</svg>
