<svg xmlns="http://www.w3.org/2000/svg" version="1.1" xmlns:xlink="http://www.w3.org/1999/xlink"
    xmlns:svgjs="http://svgjs.com/svgjs" width="512" height="512" x="0" y="0" viewBox="0 0 512 512"
    style="enable-background:new 0 0 512 512" xml:space="preserve" class="">
    <g>
        <path
            d="M74.782 232a8 8 0 0 1-7.889-9.383A192.259 192.259 0 0 1 222.618 66.893a8 8 0 1 1 2.764 15.76 176.214 176.214 0 0 0-142.73 142.729 8 8 0 0 1-7.87 6.618ZM287.99 445.229a8 8 0 0 1-1.372-15.882 176.214 176.214 0 0 0 142.73-142.729 8 8 0 1 1 15.759 2.764 192.259 192.259 0 0 1-155.725 155.725 8.051 8.051 0 0 1-1.392.122Z"
            fill="#B1AFAF" data-original="#000000" opacity="1"></path>
        <circle cx="72" cy="256" r="8" fill="#B1AFAF" data-original="#000000" opacity="1"></circle>
        <circle cx="256" cy="72" r="8" fill="#B1AFAF" data-original="#000000" opacity="1"></circle>
        <circle cx="440" cy="256" r="8" fill="#B1AFAF" data-original="#000000" opacity="1"></circle>
        <circle cx="256" cy="440" r="8" fill="#B1AFAF" data-original="#000000" opacity="1"></circle>
        <path
            d="M256 496A240 240 0 0 1 86.3 86.294a240 240 0 1 1 339.41 339.412A238.426 238.426 0 0 1 256 496Zm0-464A224 224 0 0 0 97.608 414.392 224 224 0 0 0 414.392 97.608 222.535 222.535 0 0 0 256 32Z"
            fill="#B1AFAF" data-original="#000000" opacity="1"></path>
        <path
            d="M255.347 184.027a8 8 0 0 0-7.321 8.627l6.684 81.52A23.884 23.884 0 0 0 278.611 296H320a8 8 0 0 0 7.761-9.94l-8-32a8 8 0 1 0-15.522 3.88l5.515 22.06h-31.143a7.945 7.945 0 0 1-7.961-7.2l-6.676-81.449a8.005 8.005 0 0 0-8.627-7.324Z"
            fill="#B1AFAF" data-original="#000000" opacity="1"></path>
        <circle cx="248" cy="320" r="8" fill="#B1AFAF" data-original="#000000" opacity="1"></circle>
        <circle cx="280" cy="312" r="8" fill="#B1AFAF" data-original="#000000" opacity="1"></circle>
        <path
            d="m239.979 287.43-8-112a8 8 0 0 0-15.958 1.14L224 288.237a8.009 8.009 0 0 1-8 7.763h-48a8 8 0 0 1-7.974-7.49l7.866-47.195a8 8 0 0 0-15.784-2.63l-8 48c-.013.078-.016.156-.026.234a7.15 7.15 0 0 0-.071.865c0 .072-.011.143-.011.216v.358A24.024 24.024 0 0 0 168 312h48a24.027 24.027 0 0 0 24-24q0-.285-.021-.57ZM312 328a48.609 48.609 0 0 1-13.74-1.95 8 8 0 0 0-4.52 15.348A64.592 64.592 0 0 0 312 344c30.818 0 55.9-21.449 56-47.844V296c0-.041 0-.081-.006-.121 0-.222-.011-.444-.034-.668s-.057-.431-.095-.644c-.009-.045-.011-.09-.02-.136v-.013l-.011-.055-7.986-39.932a8 8 0 0 0-15.69 3.138l7.823 39.115C351.52 314.013 333.769 328 312 328Z"
            fill="#B1AFAF" data-original="#000000" opacity="1"></path>
    </g>
</svg>