<svg xmlns="http://www.w3.org/2000/svg" width="20.004" height="16.282" viewBox="0 0 20.004 16.282">
  <g id="ticket-discount" transform="translate(-1.25 -3.25)">
    <path id="Path_13914" data-name="Path 13914" d="M15.9,19.532H6.6c-4.1,0-5.35-1.247-5.35-5.35v-.465a.7.7,0,0,1,.7-.7,1.628,1.628,0,1,0,0-3.256.7.7,0,0,1-.7-.7V8.6C1.25,4.5,2.5,3.25,6.6,3.25h9.3c4.1,0,5.35,1.247,5.35,5.35v.93a.7.7,0,0,1-.7.7,1.628,1.628,0,1,0,0,3.256.7.7,0,0,1,.7.7C21.254,18.285,20.007,19.532,15.9,19.532Zm-13.258-5.2c.019,3.2.679,3.805,3.954,3.805h9.3c3.108,0,3.861-.549,3.945-3.34a3.023,3.023,0,0,1,.009-5.88V8.6c0-3.322-.633-3.954-3.954-3.954H6.6c-3.275,0-3.936.6-3.954,3.805a3.021,3.021,0,0,1,0,5.88Z" fill="#3b3b3b"/>
    <path id="Path_13915" data-name="Path 13915" d="M14.93,15.741a.93.93,0,1,1,.921-.93A.919.919,0,0,1,14.93,15.741Z" transform="translate(-0.887 -0.74)" fill="#3b3b3b"/>
    <path id="Path_13916" data-name="Path 13916" d="M8.93,10.741a.93.93,0,1,1,.921-.93A.919.919,0,0,1,8.93,10.741Z" transform="translate(-0.469 -0.392)" fill="#3b3b3b"/>
    <path id="Path_13917" data-name="Path 13917" d="M8.578,15.857a.69.69,0,0,1-.493-.2.7.7,0,0,1,0-.986L14.346,8.4a.7.7,0,0,1,.986.986L9.071,15.653A.675.675,0,0,1,8.578,15.857Z" transform="translate(-0.462 -0.345)" fill="#3b3b3b"/>
  </g>
</svg>
