<svg xmlns="http://www.w3.org/2000/svg" width="24" height="24" viewBox="0 0 24 24">
  <g id="Group_21608" data-name="Group 21608" transform="translate(-278 -671)">
    <rect id="Rectangle_668" data-name="Rectangle 668" width="24" height="24" transform="translate(278 671)" fill="none"/>
    <g id="sms" transform="translate(277.95 670.75)">
      <path id="Path_11989" data-name="Path 11989" d="M17,21.749H7c-3.65,0-5.75-2.157-5.75-5.905V8.655C1.25,4.907,3.35,2.75,7,2.75H17c3.65,0,5.75,2.157,5.75,5.905v7.189C22.75,19.593,20.65,21.749,17,21.749ZM7,4.29c-2.86,0-4.25,1.428-4.25,4.365v7.189c0,2.937,1.39,4.365,4.25,4.365H17c2.86,0,4.25-1.428,4.25-4.365V8.655c0-2.937-1.39-4.365-4.25-4.365Z" fill="#b1afaf"/>
      <path id="Path_11990" data-name="Path 11990" d="M12,12.87a3.717,3.717,0,0,1-2.34-.79L6.53,9.58a.747.747,0,1,1,.93-1.17l3.13,2.5a2.386,2.386,0,0,0,2.81,0l3.13-2.5a.747.747,0,0,1,.93,1.17l-3.13,2.5A3.67,3.67,0,0,1,12,12.87Z" transform="translate(0 0.198)" fill="#b1afaf"/>
    </g>
  </g>
</svg>
