<svg xmlns="http://www.w3.org/2000/svg" xmlns:xlink="http://www.w3.org/1999/xlink" width="165" height="167" viewBox="0 0 165 167">
  <defs>
    <clipPath id="clip-path">
      <rect id="Rectangle_18312" data-name="Rectangle 18312" width="165" height="167" transform="translate(-0.081 -0.347)" fill="#fff"/>
    </clipPath>
  </defs>
  <g id="Group_22405" data-name="Group 22405" transform="translate(-90.243 -237.459)">
    <g id="Items" transform="translate(90.323 237.806)" clip-path="url(#clip-path)">
      <path id="Path_13724" data-name="Path 13724" d="M57.058,81.59,42.9,137.956a13.9,13.9,0,0,0,.6,8.5,13.751,13.751,0,0,0,5.438,6.521c6.3,3.956,14.354,8.238,30.293,8.729,16.895.52,25.761-4.377,32.407-8.822a13.759,13.759,0,0,0,5.179-6.491,13.9,13.9,0,0,0,.524-8.316L103.155,81.59" transform="translate(3.79 0.673)" fill="#f4f4f4"/>
      <path id="Path_13726" data-name="Path 13726" d="M86.489,73.976c-12.474,0-24.2-1.654-33.032-4.658-8.915-3.034-13.825-7.1-13.825-11.46S44.542,49.43,53.458,46.4c8.827-3,20.557-4.658,33.032-4.658s24.2,1.654,33.031,4.658c8.915,3.034,13.825,7.1,13.825,11.46s-4.909,8.427-13.825,11.46C110.694,72.322,98.963,73.976,86.489,73.976Zm0-31.71c-12.419,0-24.09,1.644-32.865,4.63-8.686,2.956-13.47,6.849-13.47,10.962s4.784,8.006,13.47,10.962c8.775,2.986,20.446,4.63,32.865,4.63s24.09-1.644,32.864-4.63c8.686-2.956,13.47-6.849,13.47-10.962s-4.784-8.006-13.47-10.962C110.579,43.91,98.907,42.266,86.489,42.266Z" transform="translate(-2.596 10.228)" fill="#757575"/>
      <g id="Group_21730" data-name="Group 21730" transform="translate(2.949 2.966)">
        <path id="Path_13725" data-name="Path 13725" d="M101.346,83.859c33.881,0,61.347-9.346,61.347-20.874s-27.466-20.874-61.347-20.874S40,51.456,40,62.985,67.466,83.859,101.346,83.859Z" transform="translate(-20.402 -2.62)" fill="#757575"/>
        <path id="Path_13727" data-name="Path 13727" d="M100.014,75.148c44.514,0,80.6-10.017,80.6-22.373S144.528,30.4,100.014,30.4s-80.6,10.017-80.6,22.374S55.5,75.148,100.014,75.148Z" transform="translate(-19.069 -1.862)" fill="#7c3a5b"/>
        <path id="Path_13728" data-name="Path 13728" d="M99.989,75.471c-21.559,0-41.832-2.332-57.084-6.566C27.519,64.634,19.045,58.9,19.045,52.75S27.519,40.867,42.9,36.595c15.252-4.234,35.525-6.565,57.084-6.565s41.833,2.331,57.085,6.565c15.386,4.271,23.86,10.008,23.86,16.155s-8.474,11.883-23.86,16.155C141.822,73.139,121.549,75.471,99.989,75.471Zm0-44.747c-21.5,0-41.708,2.323-56.9,6.541C35.719,39.31,29.94,41.688,25.91,44.332c-4.1,2.69-6.178,5.523-6.178,8.418s2.079,5.728,6.178,8.418c4.03,2.645,9.809,5.023,17.177,7.068,15.195,4.218,35.4,6.541,56.9,6.541s41.709-2.323,56.9-6.541c7.369-2.045,13.148-4.423,17.178-7.068,4.1-2.69,6.177-5.523,6.177-8.418s-2.078-5.728-6.177-8.418c-4.03-2.645-9.809-5.023-17.178-7.068-15.194-4.218-35.4-6.54-56.9-6.54Z" transform="translate(-19.045 -1.838)" fill="#757575"/>
        <path id="Path_13729" data-name="Path 13729" d="M140.112,37.8c0,9.891-16.99,12.221-34.706,12.644-19.3.461-39.464-2.9-39.464-12.644a37.59,37.59,0,0,1,10.9-26.392,36.852,36.852,0,0,1,52.373,0,37.593,37.593,0,0,1,10.9,26.392Z" transform="translate(-22.081 0.076)" fill="#fff"/>
        <path id="Path_13730" data-name="Path 13730" d="M139.932,37.513a.341.341,0,0,1-.238-.1.346.346,0,0,1-.1-.238A31.923,31.923,0,0,0,137.533,26.8a.347.347,0,0,1,.007-.265.342.342,0,0,1,.454-.175.348.348,0,0,1,.18.192,32.641,32.641,0,0,1,2.1,10.6.35.35,0,0,1-.093.248.343.343,0,0,1-.239.109Z" transform="translate(-26.715 -1.598)" fill="#757575"/>
        <path id="Path_13731" data-name="Path 13731" d="M133.218,19.618a.342.342,0,0,1-.288-.157A31.724,31.724,0,0,0,113.277,5.754a.345.345,0,0,1-.209-.153.348.348,0,0,1,.1-.472.341.341,0,0,1,.253-.052,32.42,32.42,0,0,1,20.083,14.005.352.352,0,0,1,.055.175.347.347,0,0,1-.167.312A.337.337,0,0,1,133.218,19.618Z" transform="translate(-25.13 -0.222)" fill="#757575"/>
        <path id="Path_13732" data-name="Path 13732" d="M101.786,50.792c-16.4,0-28.879-2.782-33.77-7.6a7.483,7.483,0,0,1-2.443-5.435A37.941,37.941,0,0,1,76.5,10.985a37.213,37.213,0,0,1,53.007,0,37.944,37.944,0,0,1,10.925,26.773c0,4.666-3.686,8.1-10.957,10.205C123.879,49.584,116,50.5,105.39,50.749Q103.559,50.792,101.786,50.792ZM103,.685A36.619,36.619,0,0,0,77.033,11.555a37.286,37.286,0,0,0-10.774,26.2A6.813,6.813,0,0,0,68.495,42.7c5.112,5.038,18.9,7.788,36.878,7.36,14.755-.352,34.373-2.011,34.373-12.3a37.287,37.287,0,0,0-10.774-26.2A36.617,36.617,0,0,0,103,.686Z" transform="translate(-22.058 0.114)" fill="#757575"/>
        <path id="Path_13733" data-name="Path 13733" d="M41.092,56.853a4.859,4.859,0,1,0-4.816-4.859A4.838,4.838,0,0,0,41.092,56.853Z" transform="translate(-20.16 -2.946)" fill="#fff"/>
        <path id="Path_13734" data-name="Path 13734" d="M41.068,57.176A5.126,5.126,0,0,1,38.2,56.3a5.2,5.2,0,0,1-1.9-2.336,5.24,5.24,0,0,1,1.118-5.673,5.134,5.134,0,0,1,7.938.789,5.236,5.236,0,0,1-.643,6.571A5.142,5.142,0,0,1,41.068,57.176Zm0-9.719a4.444,4.444,0,0,0-2.485.761,4.5,4.5,0,0,0-1.647,2.025,4.543,4.543,0,0,0,.97,4.918,4.451,4.451,0,0,0,6.882-.684,4.54,4.54,0,0,0-.558-5.7A4.457,4.457,0,0,0,41.068,47.457Z" transform="translate(-20.138 -2.921)" fill="#757575"/>
        <path id="Path_13735" data-name="Path 13735" d="M105.261,71.733a4.859,4.859,0,1,0-4.817-4.859A4.838,4.838,0,0,0,105.261,71.733Z" transform="translate(-24.316 -3.909)" fill="#fff"/>
        <path id="Path_13736" data-name="Path 13736" d="M105.237,72.055a5.125,5.125,0,0,1-2.867-.877,5.2,5.2,0,0,1-1.9-2.336,5.239,5.239,0,0,1,1.119-5.673,5.134,5.134,0,0,1,7.937.789,5.235,5.235,0,0,1-.643,6.571A5.141,5.141,0,0,1,105.237,72.055Zm0-9.718a4.443,4.443,0,0,0-2.485.761,4.5,4.5,0,0,0-1.648,2.025,4.542,4.542,0,0,0,.97,4.918,4.451,4.451,0,0,0,6.882-.684,4.538,4.538,0,0,0-.558-5.7A4.456,4.456,0,0,0,105.237,62.337Z" transform="translate(-24.292 -3.886)" fill="#757575"/>
        <path id="Path_13737" data-name="Path 13737" d="M169.418,56.853a4.859,4.859,0,1,0-4.817-4.859A4.838,4.838,0,0,0,169.418,56.853Z" transform="translate(-28.47 -2.946)" fill="#fff"/>
        <path id="Path_13738" data-name="Path 13738" d="M169.393,57.176a5.124,5.124,0,0,1-2.866-.877,5.234,5.234,0,0,1-.782-8.009,5.134,5.134,0,0,1,7.938.789,5.235,5.235,0,0,1-.643,6.571A5.141,5.141,0,0,1,169.393,57.176Zm0-9.719a4.442,4.442,0,0,0-2.484.761A4.52,4.52,0,0,0,168.52,56.4a4.438,4.438,0,0,0,2.585-.257,4.489,4.489,0,0,0,2.007-1.662,4.54,4.54,0,0,0-.557-5.7A4.459,4.459,0,0,0,169.393,47.457Z" transform="translate(-28.446 -2.921)" fill="#757575"/>
        <path id="Path_13739" data-name="Path 13739" d="M142.053,66.537a4.859,4.859,0,1,0-4.816-4.859A4.837,4.837,0,0,0,142.053,66.537Z" transform="translate(-26.698 -3.573)" fill="#fff"/>
        <path id="Path_13740" data-name="Path 13740" d="M142.029,66.86a5.127,5.127,0,0,1-2.867-.877,5.214,5.214,0,0,1,1.86-9.434,5.137,5.137,0,0,1,5.3,2.214,5.236,5.236,0,0,1-.642,6.571A5.144,5.144,0,0,1,142.029,66.86Zm0-9.719a4.443,4.443,0,0,0-2.485.76,4.5,4.5,0,0,0-1.648,2.025,4.543,4.543,0,0,0,.97,4.918,4.45,4.45,0,0,0,6.882-.684,4.54,4.54,0,0,0-.557-5.7A4.458,4.458,0,0,0,142.029,57.141Z" transform="translate(-26.675 -3.549)" fill="#757575"/>
        <path id="Path_13741" data-name="Path 13741" d="M68.468,67.244a4.859,4.859,0,1,0-4.816-4.859A4.838,4.838,0,0,0,68.468,67.244Z" transform="translate(-21.934 -3.619)" fill="#fff"/>
        <path id="Path_13742" data-name="Path 13742" d="M68.444,67.567a5.126,5.126,0,0,1-2.866-.877,5.2,5.2,0,0,1-1.9-2.336A5.24,5.24,0,0,1,64.8,58.681a5.134,5.134,0,0,1,7.938.789,5.237,5.237,0,0,1-.643,6.571A5.142,5.142,0,0,1,68.444,67.567Zm0-9.719a4.444,4.444,0,0,0-2.485.76,4.5,4.5,0,0,0-1.648,2.025,4.543,4.543,0,0,0,.969,4.919,4.451,4.451,0,0,0,6.882-.684,4.54,4.54,0,0,0-.557-5.7A4.457,4.457,0,0,0,68.444,57.849Z" transform="translate(-21.91 -3.595)" fill="#757575"/>
        <path id="Path_13743" data-name="Path 13743" d="M159.543,35.687a4.848,4.848,0,0,1-2.071,2.629,4.786,4.786,0,0,1-6.168-1,4.884,4.884,0,0,1-1.151-3.151c0-.109,0-.215.011-.321C153.454,34.4,156.587,35.012,159.543,35.687Z" transform="translate(-27.534 -2.085)" fill="#fff"/>
        <path id="Path_13744" data-name="Path 13744" d="M154.945,39.342a5.14,5.14,0,0,1-3.647-1.526,5.238,5.238,0,0,1-1.513-3.679c0-.116.006-.23.012-.344l.025-.382.374.063c3.307.557,6.469,1.179,9.4,1.846l.368.084-.118.362a5.2,5.2,0,0,1-1.876,2.59A5.124,5.124,0,0,1,154.945,39.342Zm-4.471-5.119a4.537,4.537,0,0,0,1.048,2.817,4.457,4.457,0,0,0,7.537-1.131C156.367,35.3,153.483,34.737,150.473,34.223Z" transform="translate(-27.51 -2.057)" fill="#757575"/>
        <path id="Path_13745" data-name="Path 13745" d="M59.833,34.171A4.886,4.886,0,0,1,58.7,37.3a4.8,4.8,0,0,1-8.221-1.5c2.945-.679,6.067-1.3,9.347-1.864C59.831,34.014,59.833,34.092,59.833,34.171Z" transform="translate(-21.08 -2.091)" fill="#fff"/>
        <path id="Path_13746" data-name="Path 13746" d="M54.986,39.348a5.142,5.142,0,0,1-2.973-.953,5.215,5.215,0,0,1-1.889-2.5l-.13-.367.377-.087c2.96-.682,6.111-1.311,9.366-1.867l.377-.065.023.385c.005.083.007.169.007.254a5.234,5.234,0,0,1-1.512,3.678A5.141,5.141,0,0,1,54.986,39.348Zm-4.068-3.327a4.5,4.5,0,0,0,2.029,2.139,4.446,4.446,0,0,0,5.438-1.084,4.536,4.536,0,0,0,1.07-2.756C56.5,34.832,53.629,35.4,50.918,36.021Z" transform="translate(-21.049 -2.063)" fill="#757575"/>
      </g>
      <path id="Path_13747" data-name="Path 13747" d="M98.068,136.624a12.08,12.08,0,0,1,2.556,2.521l.094.064a.694.694,0,0,1,.08.192,6.851,6.851,0,0,1,.721,1.1l.422.685c.152.291.278.725.372.932a5.956,5.956,0,0,1,.274.628,11.974,11.974,0,0,1,7.515,2.112,11.3,11.3,0,0,1,2.645,2.488c4.578,5.935,2.343,13.859-3.223,18.311a24.223,24.223,0,0,1-9.947,4.417,73.147,73.147,0,0,1-15.389,1.043l-.56-.031-.24-.54a74.337,74.337,0,0,1-4.8-14.862,25.208,25.208,0,0,1,.367-10.95c2.005-6.891,8.468-11.921,15.709-9.814a8.612,8.612,0,0,1,1.637.633l.191.13a11.285,11.285,0,0,1,1.4.818Zm10.769,14.749a1.53,1.53,0,0,0-2.143-.3,1.589,1.589,0,0,0-.31,2.19,3.262,3.262,0,0,1,.015,3.675l-.033.05a1.668,1.668,0,0,0-.364,1.2,1.632,1.632,0,0,0,.595,1.084,1.567,1.567,0,0,0,2.073-.357l.128-.191A6.428,6.428,0,0,0,108.837,151.373Z" transform="translate(-10.856 -24.538)" fill="#7c3a5b"/>
      <path id="Path_13748" data-name="Path 13748" d="M3.64,78.716a.259.259,0,0,1-.184-.077.264.264,0,0,1-.076-.186V71.029a.265.265,0,0,1,.074-.191.26.26,0,0,1,.43.088.265.265,0,0,1,.018.1v7.424a.264.264,0,0,1-.076.186.259.259,0,0,1-.184.077Z" transform="translate(7.905 1.823)" fill="#7c3a5b"/>
      <path id="Path_13749" data-name="Path 13749" d="M5.062,76.521H.261a.26.26,0,0,1-.184-.077.265.265,0,0,1,0-.372.26.26,0,0,1,.184-.077h4.8a.26.26,0,0,1,.184.077.265.265,0,0,1,0,.372A.26.26,0,0,1,5.062,76.521Z" transform="translate(8.883 0.306)" fill="#7c3a5b"/>
      <path id="Path_13750" data-name="Path 13750" d="M77.824,118.319a.267.267,0,0,1-.1-.02.265.265,0,0,1-.141-.143.265.265,0,0,1-.02-.1v-7.423a.264.264,0,0,1,.074-.191.26.26,0,0,1,.374,0,.265.265,0,0,1,.074.191v7.423a.265.265,0,0,1-.02.1.265.265,0,0,1-.141.143A.267.267,0,0,1,77.824,118.319Z" transform="translate(-13.582 -9.647)" fill="#7c3a5b"/>
      <path id="Path_13751" data-name="Path 13751" d="M79.246,116.123h-4.8a.258.258,0,0,1-.184-.077.263.263,0,0,1,.184-.449h4.8a.26.26,0,0,1,.184.077.265.265,0,0,1,0,.372A.258.258,0,0,1,79.246,116.123Z" transform="translate(-12.603 -11.164)" fill="#7c3a5b"/>
      <path id="Path_13752" data-name="Path 13752" d="M22.662,221a.254.254,0,0,1-.1-.02.268.268,0,0,1-.085-.057.263.263,0,0,1-.076-.186v-7.424a.267.267,0,0,1,.018-.1.258.258,0,0,1,.056-.087.258.258,0,0,1,.374,0,.258.258,0,0,1,.056.087.267.267,0,0,1,.018.1v7.424a.264.264,0,0,1-.076.186.257.257,0,0,1-.085.057A.253.253,0,0,1,22.662,221Z" transform="translate(-17.605 -59.388)" fill="#7c3a5b"/>
      <path id="Path_13753" data-name="Path 13753" d="M24.083,218.806h-4.8a.261.261,0,0,1-.184-.077.265.265,0,0,1,0-.372.258.258,0,0,1,.184-.077h4.8a.259.259,0,0,1,.184.077.265.265,0,0,1,0,.372A.261.261,0,0,1,24.083,218.806Z" transform="translate(-16.626 -60.904)" fill="#7c3a5b"/>
      <path id="Path_13754" data-name="Path 13754" d="M179.933,135.346a.261.261,0,0,1-.184-.077.264.264,0,0,1-.077-.186V123.791a.263.263,0,0,1,.077-.186.258.258,0,0,1,.369,0,.262.262,0,0,1,.076.186v11.292a.262.262,0,0,1-.261.264Z" transform="translate(-43.156 -13.461)" fill="#7c3a5b"/>
      <path id="Path_13755" data-name="Path 13755" d="M182.1,132h-7.3a.261.261,0,0,1-.185-.077.266.266,0,0,1,0-.372.258.258,0,0,1,.185-.077h7.3a.257.257,0,0,1,.184.077.264.264,0,0,1,0,.372A.259.259,0,0,1,182.1,132Z" transform="translate(-41.667 -15.763)" fill="#7c3a5b"/>
      <path id="Path_13756" data-name="Path 13756" d="M52,181.678a.258.258,0,0,1-.184-.077.263.263,0,0,1-.076-.186V170.123a.265.265,0,0,1,.076-.186.26.26,0,0,1,.369,0,.265.265,0,0,1,.076.186v11.292a.263.263,0,0,1-.076.186A.258.258,0,0,1,52,181.678Z" transform="translate(-16.103 -27.88)" fill="#7c3a5b"/>
      <path id="Path_13757" data-name="Path 13757" d="M54.167,178.334h-7.3a.258.258,0,0,1-.184-.077.265.265,0,0,1,0-.372.26.26,0,0,1,.184-.077h7.3a.26.26,0,0,1,.184.077.265.265,0,0,1,0,.372A.258.258,0,0,1,54.167,178.334Z" transform="translate(-14.614 -30.182)" fill="#7c3a5b"/>
      <path id="Path_13758" data-name="Path 13758" d="M158.841,208.228a.26.26,0,0,1-.184-.077.265.265,0,0,1-.077-.186V196.674a.263.263,0,0,1,.077-.186.258.258,0,0,1,.369,0,.262.262,0,0,1,.076.186v11.292a.265.265,0,0,1-.076.186A.261.261,0,0,1,158.841,208.228Z" transform="translate(-17.047 -54.57)" fill="#7c3a5b"/>
      <path id="Path_13759" data-name="Path 13759" d="M161.005,204.884h-7.3a.261.261,0,0,1-.185-.077.266.266,0,0,1,0-.372.259.259,0,0,1,.185-.077h7.3a.26.26,0,0,1,.185.077.266.266,0,0,1,0,.372A.262.262,0,0,1,161.005,204.884Z" transform="translate(-15.558 -56.872)" fill="#7c3a5b"/>
      <path id="Path_13760" data-name="Path 13760" d="M204.957,87.392a.26.26,0,0,1-.1-.02.264.264,0,0,1-.085-.057.259.259,0,0,1-.076-.186V81.483a.264.264,0,0,1,.076-.186.259.259,0,0,1,.369,0,.264.264,0,0,1,.077.186v5.646a.272.272,0,0,1-.02.1.25.25,0,0,1-.057.085.259.259,0,0,1-.184.077Z" transform="translate(-50.403 -1.207)" fill="#7c3a5b"/>
      <path id="Path_13761" data-name="Path 13761" d="M206.038,85.72h-3.651a.259.259,0,0,1-.1-.02.263.263,0,0,1-.085-.057.264.264,0,0,1,0-.372.263.263,0,0,1,.085-.057.26.26,0,0,1,.1-.02h3.651a.26.26,0,0,1,.185.077.266.266,0,0,1,0,.372A.26.26,0,0,1,206.038,85.72Z" transform="translate(-49.659 -2.358)" fill="#7c3a5b"/>
    </g>
  </g>
</svg>
