<?xml version="1.0" encoding="UTF-8"?>
<svg viewBox="0 0 187.11 163.99" xmlns="http://www.w3.org/2000/svg">
<g transform="translate(-2.485 -2.491)" data-name="Enabble Location">
<path transform="translate(-68.577 -49.954)" d="m240.33 142.19a73.738 73.738 0 1 1-73.738-73.738 73.739 73.739 0 0 1 73.738 73.738z" fill="none" fill-rule="evenodd" stroke="rgba(124,58,91,0.55)" stroke-dasharray="5.02 5.02" data-name="Stroke 1"/>
<path transform="translate(-129.74 -111.12)" d="m282.52 203.36a54.758 54.758 0 1 1-54.758-54.758 54.759 54.759 0 0 1 54.758 54.758z" fill="none" fill-rule="evenodd" stroke="rgba(124,58,91,0.55)" stroke-dasharray="5.05 5.05" data-name="Stroke 3"/>
<path transform="translate(-19.273 -319.44)" d="m29.623 421.61-1.369-0.042" fill="none" opacity=".55" stroke="#7c3a5b" stroke-linecap="round" data-name="Stroke 5"/>
<path transform="translate(-17.355 -311.22)" d="M26.722,410.786l-.982.917" fill="none" opacity=".55" stroke="#7c3a5b" stroke-linecap="round" data-name="Stroke 7"/>
<path transform="translate(-12.206 -307.4)" d="m19.014 405.78-0.021 1.339" fill="none" opacity=".55" stroke="#7c3a5b" stroke-linecap="round" data-name="Stroke 9"/>
<path transform="translate(-3.774 -310.36)" d="M7.945,409.661l.953.976" fill="none" opacity=".55" stroke="#7c3a5b" stroke-linecap="round" data-name="Stroke 11"/>
<path transform="translate(0 -318.37)" d="M3,420.157l1.368.042" fill="none" opacity=".55" stroke="#7c3a5b" stroke-linecap="round" data-name="Stroke 13"/>
<path transform="translate(-3.164 -323.78)" d="M7.146,428.162l.983-.917" fill="none" opacity=".55" stroke="#7c3a5b" stroke-linecap="round" data-name="Stroke 15"/>
<path transform="translate(-11.412 -326.24)" d="m17.953 431.81 0.021-1.339" fill="none" opacity=".55" stroke="#7c3a5b" stroke-linecap="round" data-name="Stroke 17"/>
<path transform="translate(-16.838 -324.44)" d="M26.017,429.1l-.953-.976" fill="none" opacity=".55" stroke="#7c3a5b" stroke-linecap="round" data-name="Stroke 19"/>
<path transform="translate(-597.12 -258.08)" d="M786,341.167l-.6.651" fill="none" opacity=".55" stroke="#7c3a5b" stroke-linecap="round" data-name="Stroke 21"/>
<path transform="translate(-589.95 -259.91)" d="M776.013,343.557l.454.419" fill="none" opacity=".55" stroke="#7c3a5b" stroke-linecap="round" data-name="Stroke 23"/>
<path transform="translate(-588.47 -267.11)" d="m774.08 353.65 0.6-0.651" fill="none" opacity=".55" stroke="#7c3a5b" stroke-linecap="round" data-name="Stroke 25"/>
<path transform="translate(-596.12 -266.04)" d="m784.55 352.01-0.453-0.418" fill="none" opacity=".55" stroke="#7c3a5b" stroke-linecap="round" data-name="Stroke 27"/>
<path transform="translate(-416.75 -11.2)" d="m550.52 17.715-1.456-0.039" fill="none" opacity=".55" stroke="#7c3a5b" stroke-linecap="round" data-name="Stroke 29"/>
<path transform="translate(-409.23)" d="m539.23 3-0.022 1.244" fill="none" opacity=".55" stroke="#7c3a5b" stroke-linecap="round" data-name="Stroke 31"/>
<path transform="translate(-396.24 -10.198)" d="M522.2,16.362l1.456.038" fill="none" opacity=".55" stroke="#7c3a5b" stroke-linecap="round" data-name="Stroke 33"/>
<path transform="translate(-408.38 -17.515)" d="M538.1,27.194l.022-1.244" fill="none" opacity=".55" stroke="#7c3a5b" stroke-linecap="round" data-name="Stroke 35"/>
<path transform="translate(-55.51 -429.92)" d="m81.484 570.75a6.32 6.32 0 0 0-3.388 3.677c-0.1-1.7-1.177-3.826-2.361-4.133a6.476 6.476 0 0 0 3.427-3.971c-0.075 1.658 1.43 4.066 2.322 4.427z" fill="#7c3a5b" fill-rule="evenodd" opacity=".55" data-name="Fill 37"/>
<path transform="translate(-139.4 -21.523)" d="m189.91 34.7a4.736 4.736 0 0 0-2.842 2.445c0.072-1.271-0.546-2.951-1.4-3.282a4.857 4.857 0 0 0 2.9-2.661 4.442 4.442 0 0 0 1.342 3.498z" fill="#7c3a5b" fill-rule="evenodd" opacity=".55" data-name="Fill 39"/>
<path transform="translate(-491.96 -49.956)" d="m649.52 72.363a1.953 1.953 0 1 1 1.995-1.91 1.952 1.952 0 0 1-1.995 1.91z" fill="#7c3a5b" fill-rule="evenodd" opacity=".55" data-name="Fill 41"/>
<path transform="translate(-492.77 -464.05)" d="m650.34 614.45a1.7 1.7 0 1 1 1.737-1.663 1.7 1.7 0 0 1-1.737 1.663z" fill="#7c3a5b" fill-rule="evenodd" opacity=".55" data-name="Fill 43"/>
<path transform="translate(-39.776 -139.3)" d="m56.149 187.62a1.053 1.053 0 1 1 1.076-1.03 1.053 1.053 0 0 1-1.076 1.03z" fill="none" fill-rule="evenodd" opacity=".55" stroke="#7c3a5b" stroke-linecap="round" data-name="Stroke 45"/>
<path transform="translate(-364.8 -111.12)" d="m494.55 155.37a6.773 6.773 0 1 1-6.773-6.773 6.773 6.773 0 0 1 6.773 6.773z" fill="#fff" fill-rule="evenodd" data-name="Fill 47"/>
<path transform="translate(-134.29 -138.07)" d="M189.08,271.828l-10.09-62.283a2.3,2.3,0,0,1,1.071-2.329l26.65-16.267a2.3,2.3,0,0,1,1.749-.27l32.873,8.13a2.3,2.3,0,0,0,1.8-.3l21.991-14.23a2.3,2.3,0,0,1,3.456,1.29l18.5,63.886a2.3,2.3,0,0,1-.868,2.508l-20.247,14.51a2.3,2.3,0,0,1-1.9.362l-38.51-9.627a2.3,2.3,0,0,0-1.6.183l-31.567,16.12A2.3,2.3,0,0,1,189.08,271.828Z" fill="#7c3a5b" fill-rule="evenodd" data-name="Fill 49"/>
<path transform="translate(-347.44 -91.768)" d="m470.49 141.29a5.8 5.8 0 1 1 5.8-5.8 5.8 5.8 0 0 1-5.8 5.8zm0-18.043a11.908 11.908 0 0 0-12.24 11.566c0 0.187-6e-3 0.374 0 0.561 0 10.155 11.34 19.55 11.818 19.937a0.643 0.643 0 0 0 0.838 0c0.5-0.45 11.83-10.787 11.83-19.937a11.907 11.907 0 0 0-11.682-12.13q-0.283-4e-3 -0.564 3e-3z" fill="#fd9e18" fill-rule="evenodd" data-name="Fill 51"/>
<path transform="translate(-239.71 -195.12)" d="m317.1 300.62 19.628 5.121a2.3 2.3 0 0 0 2.472-3.537c-6.776-9.8-19.457-30.107-7.525-29.254 15.7 1.122 12.711 15.3 16.076 17.185s23.554-2.323 24.3-9.753-1.868-11.17-7.1-13.413-2.607-8.308-2.607-8.308" fill="none" stroke="#fff" stroke-dasharray="7" data-name="Stroke 53"/>
<path transform="translate(-157.1 -181)" d="M206.2,258.866l-1.06-4.123a2.087,2.087,0,0,1,.986-2.332l12.921-7.383a2.1,2.1,0,0,1,.318-.148l4.283-1.567a2.088,2.088,0,0,1,1.159-.08l9.4,2.034a2.087,2.087,0,0,1-.63,4.119l-4.134-.376a2.087,2.087,0,0,0-2.262,2.327l.381,3.173a2.088,2.088,0,0,1-1.356,2.21l-8.687,3.173a2.09,2.09,0,0,1-1.842-.2l-2.382-1.524a2.087,2.087,0,0,0-2.886.637l-.423.664A2.088,2.088,0,0,1,206.2,258.866Z" fill="#fff" fill-rule="evenodd" data-name="Fill 55"/>
<path transform="translate(-381.65 -295.18)" d="m516.43 401.16 2.658 11.393a1.871 1.871 0 0 0 2.934 1.079l8.85-6.542a1.869 1.869 0 0 0 0.695-1.989l-2.076-7.738a1.871 1.871 0 0 0-2.354-1.3l-9.433 2.888a1.87 1.87 0 0 0-1.274 2.209z" fill="#fff" fill-rule="evenodd" data-name="Fill 57"/>
<path transform="translate(-171.53 -265.12)" d="m241.02 369.92a6.279 6.279 0 1 1 6.278-6.278 6.279 6.279 0 0 1-6.278 6.278zm0-19.533a12.892 12.892 0 0 0-13.252 12.522q-9e-3 0.3 0 0.607c0 10.994 12.278 21.166 12.795 21.584a0.7 0.7 0 0 0 0.907 0c0.545-0.488 12.808-11.678 12.808-21.584a12.891 12.891 0 0 0-12.647-13.132q-0.308-5e-3 -0.611 3e-3z" fill="#fd9e18" fill-rule="evenodd" data-name="Fill 61"/>
</g>
</svg>
