<svg xmlns="http://www.w3.org/2000/svg" width="144" height="144" viewBox="0 0 144 144">
  <g id="Group_21728" data-name="Group 21728" transform="translate(-97.632 -193.632)">
    <rect id="Rectangle_18313" data-name="Rectangle 18313" width="144" height="144" transform="translate(97.632 193.632)" fill="#fff"/>
    <g id="Group_21725" data-name="Group 21725" transform="translate(98.615 202.273)">
      <path id="Path_13691" data-name="Path 13691" d="M108.378,147.944H39.56a13.328,13.328,0,0,1-13.127-11.091L16.976,81.637H130.962L121.5,136.853a13.328,13.328,0,0,1-13.127,11.091Z" transform="translate(-2.857 -21.225)" fill="#7c3a5b"/>
      <path id="Path_13692" data-name="Path 13692" d="M130.165,75.233H15.685a4.925,4.925,0,0,0,0,9.849h114.48a4.925,4.925,0,0,0,0-9.849Z" transform="translate(-1.813 -20.147)" fill="#fff"/>
      <path id="Path_13693" data-name="Path 13693" d="M130.087,85.393H15.607a5.313,5.313,0,0,1,0-10.625h114.48a5.313,5.313,0,0,1,0,10.625ZM15.608,75.544a4.536,4.536,0,0,0,0,9.072H130.087a4.536,4.536,0,0,0,0-9.072Z" transform="translate(-1.735 -20.069)" fill="#757575"/>
      <path id="Path_13694" data-name="Path 13694" d="M103.566,71.648a3.726,3.726,0,1,0,5.827,4.645L131.3,48.685a3.726,3.726,0,1,0-5.827-4.645Z" transform="translate(-17.295 -14.66)" fill="#fff"/>
      <path id="Path_13695" data-name="Path 13695" d="M106.392,78.014a4.073,4.073,0,0,1-2.551-.9,4.131,4.131,0,0,1-.658-5.788L125.093,43.72a4.114,4.114,0,0,1,6.434,5.129L109.618,76.458a4.083,4.083,0,0,1-2.752,1.529A4.185,4.185,0,0,1,106.392,78.014Zm-2.068-1.5a3.33,3.33,0,0,0,4.687-.535L130.92,48.365A3.338,3.338,0,1,0,125.7,44.2L103.79,71.811a3.352,3.352,0,0,0,.534,4.7Z" transform="translate(-17.217 -14.581)" fill="#757575"/>
      <path id="Path_13696" data-name="Path 13696" d="M106.648,81.813a1.406,1.406,0,1,0-1.4-1.406A1.4,1.4,0,0,0,106.648,81.813Z" transform="translate(-17.714 -20.781)" fill="#fff"/>
      <path id="Path_13697" data-name="Path 13697" d="M106.574,82.123a1.79,1.79,0,1,1,.956-.281A1.79,1.79,0,0,1,106.574,82.123Zm-1-1.993a1.016,1.016,0,1,0,.432-.648A1.022,1.022,0,0,0,105.574,80.131Z" transform="translate(-17.636 -20.703)" fill="#757575"/>
      <path id="Path_13698" data-name="Path 13698" d="M39.591,44.04a3.726,3.726,0,1,0-5.827,4.645l21.91,27.608A3.726,3.726,0,1,0,61.5,71.649Z" transform="translate(-5.547 -14.66)" fill="#fff"/>
      <path id="Path_13699" data-name="Path 13699" d="M58.513,78.011a4.1,4.1,0,0,1-3.221-1.553L33.382,48.849a4.114,4.114,0,1,1,6.433-5.129l21.91,27.609a4.116,4.116,0,0,1-3.212,6.682ZM36.6,42.943a3.344,3.344,0,0,0-2.607,5.423L55.9,75.974a3.338,3.338,0,0,0,5.22-4.162L39.209,44.2A3.329,3.329,0,0,0,36.6,42.943Z" transform="translate(-5.468 -14.581)" fill="#757575"/>
      <path id="Path_13700" data-name="Path 13700" d="M63.79,81.813a1.406,1.406,0,1,0-1.4-1.406A1.4,1.4,0,0,0,63.79,81.813Z" transform="translate(-10.501 -20.781)" fill="#fff"/>
      <path id="Path_13701" data-name="Path 13701" d="M63.708,82.123a1.791,1.791,0,1,1,.766-.172A1.788,1.788,0,0,1,63.708,82.123Zm.006-2.813a1.017,1.017,0,1,0,.643.232A1.013,1.013,0,0,0,63.713,79.31Z" transform="translate(-10.422 -20.703)" fill="#757575"/>
      <path id="Path_13702" data-name="Path 13702" d="M87.817,107.311a2.9,2.9,0,1,0-5.8,0V134.8a2.9,2.9,0,1,0,5.8,0Z" transform="translate(-13.804 -25.057)" fill="#fff"/>
      <path id="Path_13703" data-name="Path 13703" d="M54.48,107.061a2.9,2.9,0,1,0-5.733.893l4.214,27.163a2.9,2.9,0,1,0,5.733-.893Z" transform="translate(-8.199 -25.09)" fill="#fff"/>
      <path id="Path_13704" data-name="Path 13704" d="M111,134.223a2.9,2.9,0,1,0,5.733.893l4.213-27.162a2.9,2.9,0,1,0-5.733-.894Z" transform="translate(-18.678 -25.09)" fill="#fff"/>
      <path id="Path_13705" data-name="Path 13705" d="M59.256,51.933a.4.4,0,0,1-.231-.074.4.4,0,0,1-.1-.559c.074-.1,7.326-10.589-.77-20.146A15.25,15.25,0,0,0,46.485,25.73h-.109c.769,2.671.632,5.045-.457,6.867a5.074,5.074,0,0,1-4.687,2.576,4.029,4.029,0,0,1-3.482-2.709c-.89-2.322.04-4.574,2.493-6.026a11.836,11.836,0,0,1,5.051-1.453,21.383,21.383,0,0,0-2.233-4.342c-2.923-4.464-8.25-7.555-14.617-8.479-5.4-.783-10.566.139-13.174,2.349a.4.4,0,1,1-.518-.613c2.776-2.351,8.2-3.345,13.808-2.528,6.594.957,12.124,4.177,15.173,8.833a21.779,21.779,0,0,1,2.395,4.741,16.041,16.041,0,0,1,12.643,5.69c8.5,10.039.89,21.019.812,21.129a.4.4,0,0,1-.325.167Zm-13.7-26.174a11.164,11.164,0,0,0-4.9,1.37c-2.117,1.253-2.9,3.093-2.152,5.048a3.253,3.253,0,0,0,2.8,2.2,4.281,4.281,0,0,0,3.929-2.188c1-1.673,1.091-3.9.321-6.426Z" transform="translate(-2.459 -9.351)" fill="#7c3a5b"/>
      <path id="Path_13723" data-name="Path 13723" d="M18.144,51.933a.4.4,0,0,0,.231-.074.4.4,0,0,0,.1-.559c-.074-.1-7.326-10.589.77-20.146A15.25,15.25,0,0,1,30.915,25.73h.109c-.769,2.671-.632,5.045.457,6.867a5.074,5.074,0,0,0,4.687,2.576,4.029,4.029,0,0,0,3.482-2.709c.89-2.322-.04-4.574-2.493-6.026a11.836,11.836,0,0,0-5.051-1.453,21.382,21.382,0,0,1,2.233-4.342c2.923-4.464,8.251-7.555,14.617-8.479,5.4-.783,10.566.139,13.174,2.349a.4.4,0,1,0,.518-.613c-2.776-2.351-8.2-3.345-13.808-2.528-6.594.957-12.124,4.177-15.173,8.833a21.779,21.779,0,0,0-2.395,4.741,16.041,16.041,0,0,0-12.643,5.69c-8.5,10.039-.89,21.019-.812,21.129a.4.4,0,0,0,.325.167Zm13.7-26.174a11.164,11.164,0,0,1,4.9,1.37c2.117,1.253,2.9,3.093,2.152,5.048a3.253,3.253,0,0,1-2.8,2.2,4.281,4.281,0,0,1-3.929-2.188c-1-1.673-1.091-3.9-.321-6.426Z" transform="translate(67.093 -9.351)" fill="#7c3a5b"/>
      <path id="Path_13706" data-name="Path 13706" d="M6.365,21.9a2.732,2.732,0,1,1,.274-.1A2.675,2.675,0,0,1,6.365,21.9ZM5.03,17.443a1.9,1.9,0,0,0-.191.069,1.924,1.924,0,1,0,.191-.069Z" transform="translate(-0.479 -10.271)" fill="#7c3a5b"/>
      <path id="Union_2" data-name="Union 2" d="M1.945,11.632A2.733,2.733,0,0,1,.186,8.021c.1-.248.812-.26,1.674-.208l.074-3.986c-.917.124-1.5.311-1.476.408A4.4,4.4,0,0,1,0,2.717,2.726,2.726,0,0,1,4.669.809a2.728,2.728,0,0,1,.578,2.975,13.765,13.765,0,0,0-1.541-.077c.434-.05.757-.128.8-.232A1.925,1.925,0,0,0,3.478.954,1.689,1.689,0,0,0,3.284.885v0a1.928,1.928,0,0,0-1.093,0,1.954,1.954,0,0,0-.92.593A1.927,1.927,0,0,0,.99,3.551c.053.111.443.178.945.205l.005-.281,1.15-.048.005.3c.2-.01.4-.015.611-.016-.188.022-.4.038-.611.049l.071,4.161c1.063.091,2.007.153,2.021-.1.025-.568.363,1.376.14,2.053a2.735,2.735,0,0,1-3.384,1.761ZM.9,8.409a1.923,1.923,0,1,0,3.6-.144c-.079-.187-.657-.276-1.328-.286l0,.184L1.854,8.11V8.057C1.346,8.13.952,8.25.9,8.409Z" transform="translate(134.203 0)" fill="#7c3a5b"/>
      <path id="Path_13707" data-name="Path 13707" d="M6.361,14.343a2.731,2.731,0,1,1,.274-.1A2.769,2.769,0,0,1,6.361,14.343ZM5.028,9.884a1.952,1.952,0,0,0-.194.069,1.918,1.918,0,1,0,.194-.07Z" transform="translate(-0.48 -8.999)" fill="#7c3a5b"/>
      <path id="Path_13708" data-name="Path 13708" d="M5.412,17.872c1.97,0,3.568-1.067,3.568-2.383s-1.6-2.383-3.568-2.383-3.568,1.067-3.568,2.383S3.442,17.872,5.412,17.872Z" transform="translate(-0.31 -9.69)" fill="#fff"/>
      <path id="Path_13709" data-name="Path 13709" d="M6.911,17.966a5.519,5.519,0,0,1-1.576.226c-2.226,0-3.972-1.22-3.972-2.781S3.1,12.625,5.329,12.623a4.985,4.985,0,0,1,2.747.762,2.277,2.277,0,0,1,0,4.038A4.361,4.361,0,0,1,6.911,17.966ZM4,13.617c-1.072.321-1.832,1.014-1.832,1.792,0,1.074,1.451,1.981,3.17,1.979a4.179,4.179,0,0,0,2.3-.632,1.487,1.487,0,0,0,0-2.7,4.173,4.173,0,0,0-2.3-.628A4.656,4.656,0,0,0,4,13.617Z" transform="translate(-0.229 -9.609)" fill="#7c3a5b"/>
      <path id="Path_13722" data-name="Path 13722" d="M3.752,17.966a5.519,5.519,0,0,0,1.576.226c2.226,0,3.972-1.22,3.972-2.781S7.56,12.625,5.334,12.623a4.985,4.985,0,0,0-2.747.762,2.277,2.277,0,0,0,0,4.038A4.361,4.361,0,0,0,3.752,17.966Zm2.914-4.349C7.738,13.937,8.5,14.63,8.5,15.409c0,1.074-1.451,1.981-3.17,1.979a4.179,4.179,0,0,1-2.3-.632,1.487,1.487,0,0,1,0-2.7,4.173,4.173,0,0,1,2.3-.628A4.656,4.656,0,0,1,6.666,13.617Z" transform="translate(131.6 -9.609)" fill="#7c3a5b"/>
      <path id="Path_13710" data-name="Path 13710" d="M6.92,17.8l-.084-4.634-1.152-.047L5.6,17.856Z" transform="translate(-0.943 -9.693)" fill="#7c3a5b"/>
      <path id="Path_13711" data-name="Path 13711" d="M.368,17.034A.368.368,0,1,0,0,16.666.368.368,0,0,0,.368,17.034Z" transform="translate(0 -10.228)" fill="#7c3a5b"/>
      <path id="Path_13718" data-name="Path 13718" d="M.368,17.034a.368.368,0,1,1,.368-.368A.368.368,0,0,1,.368,17.034Z" transform="translate(141.298 -10.228)" fill="#7c3a5b"/>
      <path id="Path_13712" data-name="Path 13712" d="M.714,14.665A.368.368,0,1,0,.346,14.3.368.368,0,0,0,.714,14.665Z" transform="translate(-0.058 -9.829)" fill="#7c3a5b"/>
      <path id="Path_13717" data-name="Path 13717" d="M.714,14.665a.368.368,0,1,1,.368-.368A.368.368,0,0,1,.714,14.665Z" transform="translate(140.665 -9.829)" fill="#7c3a5b"/>
    </g>
  </g>
</svg>
