<svg xmlns="http://www.w3.org/2000/svg" version="1.1" xmlns:xlink="http://www.w3.org/1999/xlink" width="512" height="512" x="0" y="0" viewBox="0 0 512 512" style="enable-background:new 0 0 512 512" xml:space="preserve"><g><path d="M303.5 386.5c-99.5 0-180-80.5-180-180s80.5-180 180-180 180 80.5 180 180c0 99.4-80.5 180-180 180zm0-340c-88.4 0-160 71.6-160 160s71.6 160 160 160c88.3 0 160-71.6 160-160s-71.6-160-160-160z" fill="#7C3A5B" opacity="1" data-original="#000000"></path><path d="M303.5 343c-120.8 0-182.7-146.9-96.5-233 53.2-53.2 139.9-53.2 193.1 0 25.8 25.8 40 60.1 40 96.5C440 282.3 378.6 343 303.5 343zm-82.4-218.9c-45.4 45.4-45.4 119.4 0 164.8s119.4 45.4 164.8 0c45.5-45.5 45.5-119.3 0-164.8-45.5-45.4-119.4-45.4-164.8 0zM147.9 390.4l-28.3-28.3c-15.6-15.6-15.6-40.9 0-56.6 15.6-15.6 41-15.6 56.6 0l28.3 28.3c15.6 15.6 15.6 40.9 0 56.6-15.7 15.6-41 15.6-56.6 0zm-14.1-70.7c-7.8 7.8-7.8 20.5 0 28.3l28.3 28.3c7.8 7.8 20.5 7.8 28.3 0s7.8-20.5 0-28.3L162 319.7c-7.7-7.8-20.4-7.8-28.2 0z" fill="#7C3A5B" opacity="1" data-original="#000000"></path><path d="M34.8 475.2c-22.7-22.7-18.7-60.6 8.3-78l78.2-50.6c4-2.6 9.2-2 12.5 1.3l28.3 28.3c3.3 3.3 3.9 8.5 1.3 12.5L112.8 467c-8.3 12.8-21.8 21.1-37 22.7-15.1 1.6-30.1-3.5-41-14.5zm90.5-107.4L53.9 414c-16.3 10.5-18.7 33.4-5 47.1 13.7 13.7 36.5 11.3 47.1-5l46.2-71.4z" fill="#7C3A5B" opacity="1" data-original="#000000"></path><circle cx="45" cy="135" r="15" fill="#7C3A5B" opacity="1" data-original="#000000"></circle><circle cx="295" cy="445" r="15" fill="#7C3A5B" opacity="1" data-original="#000000"></circle><circle cx="415" cy="25" r="15" fill="#7C3A5B" opacity="1" data-original="#000000"></circle><circle cx="470" cy="80" r="10" fill="#7C3A5B" opacity="1" data-original="#000000"></circle><circle cx="470" cy="440" r="10" fill="#7C3A5B" opacity="1" data-original="#000000"></circle><circle cx="110" cy="30" r="10" fill="#7C3A5B" opacity="1" data-original="#000000"></circle><circle cx="60" cy="250" r="10" fill="#7C3A5B" opacity="1" data-original="#000000"></circle><path d="m242.9 252.9 110-110c9.4-9.3 23.5 4.8 14.1 14.1L257 267c-9.3 9.4-23.4-4.7-14.1-14.1z" fill="#7C3A5B" opacity="1" data-original="#000000"></path><path d="m352.9 267.1-110-110c-9.3-9.3 4.8-23.5 14.1-14.1l110 110c9.5 9.4-4.8 23.3-14.1 14.1z" fill="#7C3A5B" opacity="1" data-original="#000000"></path></g></svg>