<svg xmlns="http://www.w3.org/2000/svg" width="177.952" height="130.297" viewBox="0 0 177.952 130.297">
  <g id="Group_21934" data-name="Group 21934" transform="translate(-71.715 -282.413)">
    <path id="Path_13724" data-name="Path 13724" d="M92.648,116.541C90.728,114.495,77,104.916,74.41,103.819c-2.238-.9-5.049-1.318-6.639.943a8.48,8.48,0,0,0-.567,7.457,19.818,19.818,0,0,0,5.413,8.675,20.878,20.878,0,0,0,4.543,3.169,20.072,20.072,0,0,0,10.031,2.1,8.581,8.581,0,0,0,6.838-3.089C95.618,120.818,94.263,118.329,92.648,116.541Zm61.884-54.564c-.521-11.323-6.984-22.437-16.36-28.978l-.4-.281a39.045,39.045,0,0,0-32.174-5.633C98.3,29.2,92.941,32.824,87.632,40.378l-1.345,1.913c-3.964,5.64-7.7,7.989-13.787,9.451-4.475,1.085-7.823,4.148-10.585,8.079A19.766,19.766,0,0,0,58.3,73.215,24.82,24.82,0,0,0,66.916,88.68a229.06,229.06,0,0,0,20.573,16c7.181,5.009,14.625,9.447,22.131,13.786a25.046,25.046,0,0,0,17.532,2.774,19.893,19.893,0,0,0,11.395-7.966c2.763-3.931,4.511-8.11,4-12.673-.6-6.128.24-10.5,4.2-16.136l1.344-1.914C153.264,75.2,154.9,69.288,154.532,61.978ZM140.508,52.9a2.858,2.858,0,0,1,4.018-.337,11.9,11.9,0,0,1,2.955,13.324l-.153.4a2.924,2.924,0,0,1-3.621,1.5,3.03,3.03,0,0,1-1.527-1.719,3.084,3.084,0,0,1,.168-2.319l.04-.1a6.04,6.04,0,0,0-1.54-6.649A2.942,2.942,0,0,1,140.508,52.9Z" transform="translate(57.865 266.372)" fill="#7c3a5b" fill-rule="evenodd"/>
    <path id="Path_13725" data-name="Path 13725" d="M52.75,30.2a.28.28,0,0,1-.259-.174.285.285,0,0,1-.021-.108V21.967a.282.282,0,0,1,.079-.2.28.28,0,0,1,.481.2v7.948a.282.282,0,0,1-.082.2.28.28,0,0,1-.2.082Z" transform="translate(59.231 267.344)" fill="#7c3a5b" opacity="0.8"/>
    <path id="Path_13726" data-name="Path 13726" d="M54.524,27.466h-5.16a.282.282,0,0,1,0-.563h5.16a.282.282,0,0,1,0,.563Z" transform="translate(60.037 266.101)" fill="#7c3a5b" opacity="0.8"/>
    <path id="Path_13727" data-name="Path 13727" d="M3.665,70.115a.28.28,0,0,1-.259-.174.283.283,0,0,1-.021-.108V61.885a.283.283,0,0,1,.079-.2.28.28,0,0,1,.462.094.283.283,0,0,1,.019.11v7.948a.281.281,0,0,1-.173.26A.279.279,0,0,1,3.665,70.115Z" transform="translate(70.909 257.847)" fill="#7c3a5b" opacity="0.8"/>
    <path id="Path_13728" data-name="Path 13728" d="M5.44,67.384H.28a.279.279,0,0,1-.2-.083.283.283,0,0,1,0-.4.279.279,0,0,1,.2-.083H5.44a.279.279,0,0,1,.2.083.283.283,0,0,1,0,.4A.279.279,0,0,1,5.44,67.384Z" transform="translate(71.715 256.603)" fill="#7c3a5b" opacity="0.8"/>
    <path id="Path_13731" data-name="Path 13731" d="M227.9,72.022a.279.279,0,0,1-.2-.083.282.282,0,0,1-.082-.2V59.651a.282.282,0,0,1,.082-.2.28.28,0,0,1,.478.2V71.74a.28.28,0,0,1-.28.282Z" transform="translate(17.558 258.376)" fill="#7c3a5b" opacity="0.8"/>
    <path id="Path_13732" data-name="Path 13732" d="M230.6,67.864h-7.849a.282.282,0,0,1,0-.563H230.6a.279.279,0,0,1,.2.083.282.282,0,0,1,0,.4A.279.279,0,0,1,230.6,67.864Z" transform="translate(18.783 256.489)" fill="#7c3a5b" opacity="0.8"/>
    <path id="Path_13733" data-name="Path 13733" d="M38.088,115.266a.28.28,0,0,1-.2-.082.285.285,0,0,1-.082-.2v-12.09a.28.28,0,1,1,.561,0v12.09a.282.282,0,0,1-.082.2A.278.278,0,0,1,38.088,115.266Z" transform="translate(62.72 248.088)" fill="#7c3a5b" opacity="0.8"/>
    <path id="Path_13734" data-name="Path 13734" d="M40.788,111.108H32.939a.28.28,0,0,1-.2-.082.284.284,0,0,1-.082-.2.281.281,0,0,1,.28-.281h7.849a.281.281,0,0,1,.28.281.284.284,0,0,1-.082.2A.28.28,0,0,1,40.788,111.108Z" transform="translate(63.944 246.2)" fill="#7c3a5b" opacity="0.8"/>
    <path id="Path_13735" data-name="Path 13735" d="M53.511,180.032a.278.278,0,0,1-.2-.083.281.281,0,0,1-.082-.2V167.66a.281.281,0,0,1,.082-.2.278.278,0,0,1,.4,0,.282.282,0,0,1,.082.2v12.09a.282.282,0,0,1-.28.282Z" transform="translate(59.05 232.679)" fill="#7c3a5b" opacity="0.8"/>
    <path id="Path_13736" data-name="Path 13736" d="M56.212,175.874H48.363a.278.278,0,0,1-.2-.083.282.282,0,0,1,0-.4.278.278,0,0,1,.2-.083h7.849a.278.278,0,0,1,.2.083.282.282,0,0,1,0,.4A.278.278,0,0,1,56.212,175.874Z" transform="translate(60.275 230.791)" fill="#7c3a5b" opacity="0.8"/>
    <path id="Path_13739" data-name="Path 13739" d="M148.675,180.032a.279.279,0,0,1-.2-.083.284.284,0,0,1-.082-.2V167.66a.284.284,0,0,1,.082-.2.28.28,0,0,1,.479.2v12.09a.282.282,0,0,1-.28.282Z" transform="translate(36.408 232.679)" fill="#7c3a5b" opacity="0.8"/>
    <path id="Path_13740" data-name="Path 13740" d="M151.375,175.874h-7.849a.279.279,0,0,1-.2-.083.282.282,0,0,1,0-.4.279.279,0,0,1,.2-.083h7.849a.277.277,0,0,1,.2.083.281.281,0,0,1,0,.4A.277.277,0,0,1,151.375,175.874Z" transform="translate(37.633 230.791)" fill="#7c3a5b" opacity="0.8"/>
    <path id="Path_13741" data-name="Path 13741" d="M252.97,23.756a.275.275,0,0,1-.107-.021.279.279,0,0,1-.091-.061.277.277,0,0,1-.082-.2V17.43a.28.28,0,0,1,.28-.282.279.279,0,0,1,.2.082.283.283,0,0,1,.082.2v6.045a.276.276,0,0,1-.021.108.267.267,0,0,1-.061.091.275.275,0,0,1-.091.061A.279.279,0,0,1,252.97,23.756Z" transform="translate(-17.061 265.265)" fill="#7c3a5b" opacity="0.8"/>
    <path id="Path_13742" data-name="Path 13742" d="M254.319,21.678H250.4a.279.279,0,0,1-.107-.021.275.275,0,0,1-.091-.061.282.282,0,0,1,0-.4.275.275,0,0,1,.091-.061.279.279,0,0,1,.107-.021h3.924a.279.279,0,0,1,.2.083.282.282,0,0,1,0,.4A.279.279,0,0,1,254.319,21.678Z" transform="translate(-16.448 264.322)" fill="#7c3a5b" opacity="0.8"/>
  </g>
</svg>
