<?xml version="1.0" encoding="UTF-8"?>
<svg viewBox="0 0 161.03 123.1" xmlns="http://www.w3.org/2000/svg">
<g transform="translate(-85.383 -260.11)" fill="#7c3a5b" data-name="Group 22046">
<g transform="translate(105.97 264.37)" data-name="Group 5">
<path transform="translate(10 10)" d="M40.922-10A50.922,50.922,0,1,1-10,40.922,50.98,50.98,0,0,1,40.922-10Zm0,89.574A38.652,38.652,0,1,0,2.27,40.922,38.7,38.7,0,0,0,40.922,79.574Z" data-name="Ellipse 652"/>
<rect transform="translate(85.894 97.606) rotate(-45)" width="16.565" height="30.023" rx="8.283" data-name="Rectangle 18364"/>
</g>
<ellipse transform="translate(89.646 279.34)" cx="4.223" cy="4.223" rx="4.223" ry="4.223" opacity=".1" data-name="Ellipse 644"/>
<ellipse transform="translate(208.97 261.72)" cx="5.05" cy="5.05" rx="5.05" ry="5.05" opacity=".1" data-name="Ellipse 645"/>
<ellipse transform="translate(115.64 369.75)" cx="4.96" cy="4.96" rx="4.96" ry="4.96" opacity=".1" data-name="Ellipse 646"/>
<ellipse transform="translate(237.28 358.82)" cx="4.566" cy="4.566" rx="4.566" ry="4.566" opacity=".1" data-name="Ellipse 647"/>
<ellipse transform="translate(230.72 366.31)" cx="2.224" cy="2.224" rx="2.224" ry="2.224" opacity=".1" data-name="Ellipse 648"/>
<path transform="translate(-17.644 211.95)" d="M247.942,100.248a.434.434,0,0,1,.85,0l.847,4a.435.435,0,0,0,.332.335l3.972.865a.435.435,0,0,1,0,.849l-3.972.866a.432.432,0,0,0-.332.334l-.847,4a.434.434,0,0,1-.85,0l-.847-4a.432.432,0,0,0-.332-.334l-3.971-.866a.434.434,0,0,1,0-.849l3.971-.865a.435.435,0,0,0,.332-.335Z" data-name="Path 13897"/>
<path transform="translate(45.659 174.5)" d="M46.45,166.28a.328.328,0,0,1,.641,0l1.1,5.175a.328.328,0,0,0,.251.253l5.122,1.115a.328.328,0,0,1,0,.641l-5.122,1.116a.327.327,0,0,0-.251.252l-1.1,5.176a.328.328,0,0,1-.641,0l-1.1-5.176a.327.327,0,0,0-.251-.252l-5.122-1.116a.328.328,0,0,1,0-.641l5.122-1.115a.328.328,0,0,0,.251-.253Z" data-name="Path 13898"/>
<path transform="translate(34.132 192.33)" d="M84.934,73.208a.238.238,0,0,1,0-.467l3.808-.81a.238.238,0,0,0,.183-.183l.82-3.781a.238.238,0,0,1,.466,0l.82,3.781a.239.239,0,0,0,.183.183l3.808.81a.238.238,0,0,1,0,.467l-3.808.81a.239.239,0,0,0-.183.183l-.82,3.781a.238.238,0,0,1-.466,0l-.82-3.781a.239.239,0,0,0-.183-.183Z" data-name="Path 13899"/>
</g>
</svg>
