<svg xmlns="http://www.w3.org/2000/svg" width="131.488" height="113.185" viewBox="0 0 131.488 113.185">
  <g id="Art" transform="translate(-6.796 -5.862)">
    <g id="Group_22255" data-name="Group 22255">
      <circle id="Ellipse_642" data-name="Ellipse 642" cx="1.608" cy="1.608" r="1.608" transform="translate(98.958 112.623)" fill="#7c3a5b" opacity="0.55"/>
      <circle id="Ellipse_643" data-name="Ellipse 643" cx="2.68" cy="2.68" r="2.68" transform="translate(132.924 76.88)" fill="#7c3a5b" opacity="0.55"/>
      <circle id="Ellipse_644" data-name="Ellipse 644" cx="2.68" cy="2.68" r="2.68" transform="translate(44.485 6.666)" fill="#7c3a5b" opacity="0.55"/>
    </g>
    <path id="Path_14514" data-name="Path 14514" d="M46.393,74.859l-.088-.005a30.345,30.345,0,0,0-5.13.137.8.8,0,0,1-.887-.7v-.01a.8.8,0,0,1,.71-.888,31.947,31.947,0,0,1,5.494-.138.8.8,0,0,1,.754.851.8.8,0,0,1-.851.754ZM30.113,77.518l0,0,0,0a.8.8,0,0,0,1.071.361,30.366,30.366,0,0,1,4.87-1.878.8.8,0,0,0,.551-.986v-.01a.8.8,0,0,0-1-.548,31.973,31.973,0,0,0-5.127,1.977.8.8,0,0,0-.37,1.075ZM21.639,84l0,0,0,0a.8.8,0,0,0,1.129-.024,30.048,30.048,0,0,1,3.941-3.412.8.8,0,0,0,.186-1.114l0,0,0,0a.8.8,0,0,0-1.123-.179,31.652,31.652,0,0,0-4.152,3.594A.8.8,0,0,0,21.639,84Zm-5.8,8.983,0,0,0,0a.8.8,0,0,0,1.056-.4,30.53,30.53,0,0,1,2.179-3.967q.193-.3.393-.59a.8.8,0,0,0-.2-1.112l0,0,0,0a.8.8,0,0,0-1.117.211q-.21.308-.413.621a32.151,32.151,0,0,0-2.293,4.175.8.8,0,0,0,.143.882A.788.788,0,0,0,15.838,92.982Zm-2.42,10.4h.01a.8.8,0,0,0,.856-.737,30.1,30.1,0,0,1,.871-5.141.8.8,0,0,0-.566-.978l-.005,0H14.58a.8.8,0,0,0-.98.576,31.7,31.7,0,0,0-.917,5.416.8.8,0,0,0,.736.867Zm.892,4.479a.8.8,0,0,0-.863-.729h-.01a.8.8,0,0,0-.728.874,32.059,32.059,0,0,0,.964,5.408.8.8,0,0,0,.985.569l0,0h0a.8.8,0,0,0,.558-.982A30.469,30.469,0,0,1,14.31,107.861Zm5.176,15.647,0,0,0,0a.8.8,0,0,1-1.118-.207q-1.18-1.715-2.315-3.689l-.011-.019-.01-.019q-.25-.494-.483-1a.8.8,0,0,1,.392-1.067l0,0,0,0a.8.8,0,0,1,1.058.4q.217.469.449.929,1.1,1.906,2.235,3.56a.8.8,0,0,1,.128.6.806.806,0,0,1-.329.512Zm2.909,2.765a.805.805,0,0,0-.571.2l0,0,0,0a.8.8,0,0,0-.048,1.136,26.731,26.731,0,0,0,4.093,3.673.8.8,0,0,0,1.122-.185l0-.006,0-.006a.8.8,0,0,0-.194-1.109,25.107,25.107,0,0,1-3.845-3.453.807.807,0,0,0-.558-.259Zm8.919,6.079a.8.8,0,0,0-1.014.482l0,.01,0,.009a.8.8,0,0,0,.5,1.021,16.4,16.4,0,0,0,5.333.885.8.8,0,0,0,.136-1.6l-.068-.009-.068,0A14.816,14.816,0,0,1,31.314,132.351Z" transform="translate(-5.884 -33.963)" fill="#7c3a5b" fill-rule="evenodd"/>
    <rect id="Rectangle_19784" data-name="Rectangle 19784" width="9.648" height="2.144" rx="1.072" transform="translate(125.262 25.549) rotate(-11)" fill="#7c3a5b"/>
    <rect id="Rectangle_19785" data-name="Rectangle 19785" width="9.648" height="2.144" rx="1.072" transform="translate(117.996 17.153) rotate(-60)" fill="#7c3a5b"/>
    <rect id="Rectangle_19786" data-name="Rectangle 19786" width="9.648" height="2.144" rx="1.072" transform="matrix(0.766, -0.643, 0.643, 0.766, 122.64, 20.651)" fill="#7c3a5b"/>
    <path id="Path_14515" data-name="Path 14515" d="M81.341,51.1a5.36,5.36,0,0,1,5.314-4.661H147.92a5.36,5.36,0,0,1,5.314,4.661l9.3,70.75a5.36,5.36,0,0,1-5.314,6.058H77.357a5.36,5.36,0,0,1-5.314-6.058Z" transform="translate(-33.407 -21.548)" fill="#7c3a5b" fill-rule="evenodd"/>
    <path id="Path_14517" data-name="Path 14517" d="M107.3,39.965h-.8a18.466,18.466,0,0,1,5.49-13.45,18.573,18.573,0,0,1,26.538,0,18.467,18.467,0,0,1,5.491,13.45h-1.608a16.916,16.916,0,0,0-5.028-12.322,16.965,16.965,0,0,0-24.248,0,16.915,16.915,0,0,0-5.028,12.322Z" transform="translate(-41.416 -15.075)" fill="#7c3a5b" fill-rule="evenodd"/>
    <circle id="Ellipse_645" data-name="Ellipse 645" cx="1.608" cy="1.608" r="1.608" transform="translate(65.082 32.146)" fill="#fff"/>
    <circle id="Ellipse_646" data-name="Ellipse 646" cx="1.608" cy="1.608" r="1.608" transform="translate(100.993 32.146)" fill="#fff"/>
    <circle id="Ellipse_647" data-name="Ellipse 647" cx="20.583" cy="20.583" r="20.583" transform="translate(19.006 77.88)" fill="#f8f8f8"/>
    <circle id="Ellipse_649" data-name="Ellipse 649" cx="1.876" cy="1.876" r="1.876" transform="translate(36.982 91.352)" fill="#7c3a5b"/>
    <circle id="Ellipse_651" data-name="Ellipse 651" cx="16.083" cy="16.083" r="16.083" transform="translate(22.935 82.344)" fill="#7c3a5b"/>
    <path id="Path_14518" data-name="Path 14518" d="M74.3,172.589a17.152,17.152,0,1,1-17.152-17.152A17.152,17.152,0,0,1,74.3,172.589ZM68.14,183.58a15.543,15.543,0,0,1-21.982,0,15.544,15.544,0,0,1,10.991-26.535A15.543,15.543,0,0,1,68.14,183.58Z" transform="translate(-17.559 -74.125)" fill="#fff" fill-rule="evenodd"/>
    <g id="Group_22256" data-name="Group 22256" transform="translate(1)">
      <rect id="Rectangle_19790" data-name="Rectangle 19790" width="2.5" height="15.008" rx="1.25" transform="translate(37.392 89.712)" fill="#fff"/>
      <rect id="Rectangle_19791" data-name="Rectangle 19791" width="2.5" height="2.5" rx="1.25" transform="translate(37.392 106.36)" fill="#fff"/>
    </g>
  </g>
</svg>
