<svg xmlns="http://www.w3.org/2000/svg" width="16" height="16" viewBox="0 0 16 16">
  <g id="Group_21844" data-name="Group 21844" transform="translate(-141.338 -617.338)">
    <rect id="Rectangle_18351" data-name="Rectangle 18351" width="16" height="16" transform="translate(141.338 617.338)" fill="none"/>
    <g id="_3_User" data-name="3 User" transform="translate(141.691 619.779)">
      <path id="_3_User-2" data-name="3 User" d="M2.939,9.552A1.8,1.8,0,0,1,4.17,7.81a9.016,9.016,0,0,1,3.473-.5h.212a8.5,8.5,0,0,1,3.321.518,1.835,1.835,0,0,1,.053,3.4,7.864,7.864,0,0,1-3.167.547l-.418,0C4.39,11.781,2.939,11.093,2.939,9.552Zm1.042,0c0,.981,1.992,1.187,3.662,1.187,2.4,0,3.662-.415,3.662-1.2,0-.981-1.991-1.186-3.662-1.186C5.248,8.354,3.981,8.768,3.981,9.552Zm9,.281a.521.521,0,0,1,.405-.615c.453-.093.751-.242.824-.4a.44.44,0,0,0,0-.375c-.074-.156-.374-.305-.834-.4a6.04,6.04,0,0,0-.91-.131.521.521,0,0,1,.072-1.04,6.946,6.946,0,0,1,1.052.152A2,2,0,0,1,15.151,8a1.48,1.48,0,0,1,0,1.271,2,2,0,0,1-1.555.97.52.52,0,0,1-.615-.405ZM1.7,10.238A2,2,0,0,1,.144,9.268,1.475,1.475,0,0,1,.144,8a1.884,1.884,0,0,1,1.4-.934l.143-.031a7.1,7.1,0,0,1,1.067-.154.521.521,0,1,1,.072,1.04,6.045,6.045,0,0,0-.693.087L1.9,8.053c-.445.088-.745.237-.819.393a.434.434,0,0,0,0,.375c.073.154.37.3.824.4a.521.521,0,1,1-.21,1.021ZM5.377,5.469a3.215,3.215,0,0,1,0-4.534A3.2,3.2,0,0,1,10.846,3.2,3.205,3.205,0,0,1,5.377,5.469Zm.737-3.8a2.173,2.173,0,1,0,1.53-.63A2.148,2.148,0,0,0,6.114,1.672Zm4.94,3.535a.521.521,0,0,1,.521-.521,1.495,1.495,0,1,0,0-2.99.521.521,0,0,1,0-1.042,2.537,2.537,0,1,1,0,5.074A.521.521,0,0,1,11.053,5.207ZM1.181,3.191A2.537,2.537,0,0,1,3.719.655a.521.521,0,1,1,0,1.042,1.495,1.495,0,1,0,0,2.99.521.521,0,0,1,0,1.042A2.537,2.537,0,0,1,1.181,3.191Z" transform="translate(0)" fill="#3b3b3b"/>
    </g>
  </g>
</svg>
