<svg id="add_to_Favorite" data-name="add to Favorite" xmlns="http://www.w3.org/2000/svg" width="24" height="24" viewBox="0 0 24 24">
  <rect id="Rectangle_18332" data-name="Rectangle 18332" width="24" height="24" fill="none"/>
  <g id="Heart" transform="translate(3 3.515)">
    <path id="Heart-2" data-name="Heart" d="M8.667,16.877l-.22-.132a31.243,31.243,0,0,1-5.4-4.173A11.009,11.009,0,0,1,.366,8.332a6.879,6.879,0,0,1,.181-4.91A5.652,5.652,0,0,1,4.035.281,5.947,5.947,0,0,1,8.76.764L9,.906,9.238.764A5.955,5.955,0,0,1,13.721.211l.24.071a5.661,5.661,0,0,1,3.492,3.144,6.9,6.9,0,0,1,.181,4.922,11.146,11.146,0,0,1-2.678,4.23,31.263,31.263,0,0,1-5.4,4.166l-.207.128a.665.665,0,0,1-.686.006ZM4.439,1.524A4.367,4.367,0,0,0,1.731,3.993a5.567,5.567,0,0,0-.117,3.926,9.826,9.826,0,0,0,2.352,3.722A29.9,29.9,0,0,0,9.13,15.629L9,15.549l.42-.263a29.877,29.877,0,0,0,4.135-3.191l.475-.449a9.784,9.784,0,0,0,2.353-3.714A5.574,5.574,0,0,0,16.268,4a4.373,4.373,0,0,0-2.711-2.473,4.626,4.626,0,0,0-4.165.7.663.663,0,0,1-.778.008L8.437,2.1a4.619,4.619,0,0,0-4-.579Zm8.87,4.818A1.772,1.772,0,0,0,12.083,4.8a.651.651,0,0,1-.427-.82.66.66,0,0,1,.827-.424,3.079,3.079,0,0,1,2.138,2.675.655.655,0,0,1-.6.7l-.056,0A.656.656,0,0,1,13.309,6.342Z" transform="translate(0 0)" fill="#3b3b3b"/>
  </g>
</svg>
