<svg xmlns="http://www.w3.org/2000/svg" width="36" height="36" viewBox="0 0 36 36">
  <g id="Group_22383" data-name="Group 22383" transform="translate(-319 -133.5)">
    <rect id="Rectangle_157" data-name="Rectangle 157" width="36" height="36" rx="9" transform="translate(319 133.5)" fill="#7c3a5b"/>
    <g id="Group_21607" data-name="Group 21607" transform="translate(16 -312.5)">
      <rect id="Rectangle_667" data-name="Rectangle 667" width="21.999" height="21.999" transform="translate(310 453)" fill="none"/>
      <g id="Heart" transform="translate(310.75 455.336)">
        <path id="Heart-2" data-name="Heart" d="M9.871,19.221l-.251-.15a35.583,35.583,0,0,1-6.154-4.753A12.538,12.538,0,0,1,.416,9.489,7.834,7.834,0,0,1,.622,3.9,6.437,6.437,0,0,1,4.6.32a6.773,6.773,0,0,1,5.38.55l.27.161L10.521.87A6.782,6.782,0,0,1,15.627.24L15.9.32A6.447,6.447,0,0,1,19.877,3.9a7.858,7.858,0,0,1,.206,5.605,12.694,12.694,0,0,1-3.05,4.818,35.606,35.606,0,0,1-6.145,4.745l-.235.146a.758.758,0,0,1-.781.006ZM5.055,1.736A4.974,4.974,0,0,0,1.972,4.548a6.341,6.341,0,0,0-.134,4.471,11.191,11.191,0,0,0,2.679,4.239A34.051,34.051,0,0,0,10.4,17.8l-.146-.092.479-.3a34.026,34.026,0,0,0,4.709-3.634l.541-.511a11.142,11.142,0,0,0,2.68-4.229,6.348,6.348,0,0,0-.133-4.483A4.981,4.981,0,0,0,15.44,1.736a5.269,5.269,0,0,0-4.743.794.755.755,0,0,1-.886.009l-.2-.144a5.26,5.26,0,0,0-4.554-.659Zm10.1,5.487a2.018,2.018,0,0,0-1.4-1.755.741.741,0,0,1-.486-.934.752.752,0,0,1,.942-.482A3.507,3.507,0,0,1,16.652,7.1a.746.746,0,0,1-.684.8l-.064,0A.747.747,0,0,1,15.157,7.223Z" transform="translate(0)" fill="#fff"/>
      </g>
    </g>
  </g>
</svg>
