<svg xmlns="http://www.w3.org/2000/svg" width="36" height="36" viewBox="0 0 36 36">
  <g id="Group_22387" data-name="Group 22387" transform="translate(-319 -133.5)">
    <rect id="Rectangle_157" data-name="Rectangle 157" width="36" height="36" rx="9" transform="translate(319 133.5)" fill="#7c3a5b"/>
    <g id="Group_21607" data-name="Group 21607" transform="translate(16 -312.5)">
      <rect id="Rectangle_667" data-name="Rectangle 667" width="21.999" height="21.999" transform="translate(310 453)" fill="none"/>
      <g id="svgexport-22" transform="translate(304 450.566)">
        <path id="Path_14597" data-name="Path 14597" d="M16.239,3.939h-.7A2.327,2.327,0,0,0,14.462.653a2.3,2.3,0,0,0-2.509.4L10.477,2.395a1.759,1.759,0,0,0-2.956,0L6.042,1.057A2.33,2.33,0,0,0,2.148,2.783a2.315,2.315,0,0,0,.308,1.156h-.7A1.763,1.763,0,0,0,0,5.7V8.047a.587.587,0,0,0,.587.587h.587v8.022a1.763,1.763,0,0,0,1.761,1.761h12.13a1.763,1.763,0,0,0,1.761-1.761V8.634h.587A.587.587,0,0,0,18,8.047V5.7A1.763,1.763,0,0,0,16.239,3.939Zm-9,13.3h-4.3a.588.588,0,0,1-.587-.587V8.634H7.239v8.609Zm0-9.783H1.174V5.7a.588.588,0,0,1,.587-.587H7.239ZM4.478,3.939h0A1.157,1.157,0,0,1,3.322,2.783a1.128,1.128,0,0,1,.687-1.057,1.178,1.178,0,0,1,.478-.1,1.134,1.134,0,0,1,.766.3l2.22,2.012h-3ZM9,2.765a.588.588,0,0,1,.571.452L9,3.735l-.569-.516A.588.588,0,0,1,9,2.765Zm.587,14.478H8.413V8.634H9.587Zm0-9.783H8.413V5.112H9.587Zm3.155-5.534a1.156,1.156,0,0,1,1.932.856,1.157,1.157,0,0,1-1.156,1.156h-3l2.22-2.012Zm2.91,14.729a.588.588,0,0,1-.587.587h-4.3V8.634h4.891Zm1.174-9.2H10.761V5.112h5.478a.588.588,0,0,1,.587.587V7.46Z" transform="translate(8 4)" fill="#fff"/>
      </g>
    </g>
  </g>
</svg>
