<svg id="Heart" xmlns="http://www.w3.org/2000/svg" width="14" height="13.198" viewBox="0 0 14 13.198">
  <path id="Heart-2" data-name="Heart" d="M6.741,13.126l-.171-.1a24.3,24.3,0,0,1-4.2-3.246A8.562,8.562,0,0,1,.284,6.48a5.35,5.35,0,0,1,.14-3.819A4.4,4.4,0,0,1,3.139.219,4.625,4.625,0,0,1,6.813.595L7,.7,7.185.594a4.632,4.632,0,0,1,3.487-.43l.186.055a4.4,4.4,0,0,1,2.716,2.445,5.366,5.366,0,0,1,.14,3.828,8.669,8.669,0,0,1-2.083,3.29,24.315,24.315,0,0,1-4.2,3.24l-.161.1a.517.517,0,0,1-.534,0ZM3.452,1.185a3.4,3.4,0,0,0-2.106,1.92,4.33,4.33,0,0,0-.091,3.053,7.643,7.643,0,0,0,1.829,2.9,23.253,23.253,0,0,0,4.016,3.1L7,12.093l.327-.2a23.237,23.237,0,0,0,3.216-2.482l.37-.349a7.609,7.609,0,0,0,1.83-2.888,4.335,4.335,0,0,0-.091-3.061,3.4,3.4,0,0,0-2.108-1.923,3.6,3.6,0,0,0-3.239.542.516.516,0,0,1-.605.006l-.138-.1a3.592,3.592,0,0,0-3.11-.45Zm6.9,3.747a1.378,1.378,0,0,0-.954-1.2A.506.506,0,0,1,9.065,3.1a.513.513,0,0,1,.643-.329,2.4,2.4,0,0,1,1.663,2.081A.509.509,0,0,1,10.9,5.4l-.044,0A.51.51,0,0,1,10.351,4.933Z" fill="#3b3b3b"/>
</svg>
