<svg xmlns="http://www.w3.org/2000/svg" width="14.929" height="19" viewBox="0 0 14.929 19">
  <g id="svgexport-17" transform="translate(-5 -2)">
    <path id="Path_13522" data-name="Path 13522" d="M12.464,2A6.2,6.2,0,0,0,6.357,8.277a10.674,10.674,0,0,0,2.022,5.539,25.8,25.8,0,0,0,3.626,4.291.679.679,0,0,0,.917,0,25.8,25.8,0,0,0,3.626-4.291,10.674,10.674,0,0,0,2.022-5.539A6.2,6.2,0,0,0,12.464,2Zm0,1.357a4.839,4.839,0,0,1,4.75,4.92,9.286,9.286,0,0,1-1.8,4.793,24.327,24.327,0,0,1-2.95,3.591,24.327,24.327,0,0,1-2.95-3.591,9.286,9.286,0,0,1-1.8-4.793A4.839,4.839,0,0,1,12.464,3.357Zm0,1.357a3.393,3.393,0,1,0,3.393,3.393A3.395,3.395,0,0,0,12.464,4.714Zm0,1.357A2.036,2.036,0,1,1,10.48,8.107,2.036,2.036,0,0,1,12.464,6.071Zm-4.109,9.3a.728.728,0,0,0-.135.022,6.374,6.374,0,0,0-2.509,1.165A1.854,1.854,0,0,0,5,17.946,2.062,2.062,0,0,0,6.058,19.6,12.58,12.58,0,0,0,12.464,21a12.58,12.58,0,0,0,6.406-1.4,2.062,2.062,0,0,0,1.058-1.654,1.854,1.854,0,0,0-.712-1.39,6.374,6.374,0,0,0-2.509-1.165.678.678,0,1,0-.345,1.312,5.872,5.872,0,0,1,1.764.725c.246.17.444.316.444.518a.443.443,0,0,1-.159.282,2.615,2.615,0,0,1-.765.508,12.861,12.861,0,0,1-5.184.907,12.861,12.861,0,0,1-5.184-.907,2.615,2.615,0,0,1-.765-.508.443.443,0,0,1-.159-.282c0-.2.2-.349.444-.518A5.872,5.872,0,0,1,8.565,16.7a.68.68,0,0,0-.21-1.335Z" transform="translate(0)" fill-rule="evenodd"/>
  </g>
</svg>
