<svg xmlns="http://www.w3.org/2000/svg" xmlns:xlink="http://www.w3.org/1999/xlink" width="90" height="90"
  viewBox="0 0 90 90">
  <defs>
    <clipPath id="clip-path">
      <rect id="Rectangle_651" data-name="Rectangle 651" width="42.745" height="70.438" fill="#7c3a5b" />
    </clipPath>
  </defs>
  <g id="Logo" transform="translate(-142.684 -113.684)">
    <g id="Rectangle_654" data-name="Rectangle 654" transform="translate(142.684 113.684)" fill="#fafafa"
      stroke="#f5f5f5" stroke-width="1">
      <rect width="90" height="90" rx="15" stroke="none" />
      <rect x="0.5" y="0.5" width="89" height="89" rx="14.5" fill="none" />
    </g>
    <g id="Group_21600" data-name="Group 21600" transform="translate(166.311 124.465)">
      <g id="Group_10848" data-name="Group 10848" clip-path="url(#clip-path)">
        <path id="Path_5467" data-name="Path 5467"
          d="M158.366,48.355c-1.14-2.4-3.355-4.486-5.507-6.419-.52-.467-1.053-.927-1.592-1.385a4.806,4.806,0,0,0,3-2.245c2.44-3.41-.9-6.519-3.791-8.88-6.084-4.973-13.309-9.671-16.745-16.056-1.817-3.377-2.583-10.119,5.7-13.344a4.164,4.164,0,0,0-1.882.324,8.791,8.791,0,0,0-1.93.966,10.188,10.188,0,0,0-4.776,8.907c.218,3.251,2.034,6.253,4.322,8.912A63.193,63.193,0,0,0,143.9,27.1c3.031,2.4,6.877,4.777,8.872,7.756a6.413,6.413,0,0,1,.884,1.823c.007.024.013.052.019.082a1.751,1.751,0,0,1-1.41,1.962,3.761,3.761,0,0,1-.786.133A9.023,9.023,0,0,1,146.29,36.5a59.864,59.864,0,0,1-8.645-8.013c-1.384-1.668-3.416-4.568-2-6.539.07-.1.521-.683.315-.686-.231,0-.854.962-.93,1.069-3.2,4.447,1.66,8.762,5.193,11.922,1.493,1.335,3.084,2.626,4.689,3.912a15.428,15.428,0,0,0,1.324,1.061,60.934,60.934,0,0,1,9.061,8.358,9.941,9.941,0,0,1,2.15,3.8,3.912,3.912,0,0,1,.11,1.074,3.376,3.376,0,0,1-.124.813c-.048.164-.258.51-.241.53-.255.291-.567.676-.481.832.071.128.6-.518.637-.566,1.523-1.936,1.985-3.666,1.015-5.709"
          transform="translate(-116.615 0)" fill="#7c3a5b" />
        <path id="Path_5468" data-name="Path 5468"
          d="M172.551,323.265c-1.346-1.552-3.332-4.188-1.955-6.175.883-1.275-.2-.214-.615.383a4.622,4.622,0,0,0-.545,5.065c1.086,2.213,3.172,4.113,5.188,5.884,5.045,4.433,10.993,8.437,14.854,13.541,2.692,3.557,3.479,8.026.8,11.969-.149.22-.421.5-.066.388s.82-.973.98-1.209c8.535-12.576-11.019-21.049-18.645-29.845"
          transform="translate(-150.566 -283.905)" fill="#7c3a5b" />
        <path id="Path_5469" data-name="Path 5469"
          d="M9.251,51.18c-.432-.015-.851-.043-1.281-.086S7.118,51,6.7,50.936a11.741,11.741,0,0,1-1.225-.243,3.586,3.586,0,0,1-1.046-.434,1.212,1.212,0,0,1-.539-.723,2.57,2.57,0,0,1-.012-1,7.418,7.418,0,0,1,.268-1.085c.114-.374.247-.7.394-1.123a2.024,2.024,0,0,0,.106-.763,1.461,1.461,0,0,0-.351-.824,2.345,2.345,0,0,0-.286-.287c-.048-.043-.1-.083-.153-.124l-.132-.1a5.048,5.048,0,0,1-.443-.343,1,1,0,0,1-.187-.2h0a1.657,1.657,0,0,1,.372-.219c.162-.076.348-.147.534-.216l.888-.327-.665-.638c-.312-.3-.621-.571-.887-.842-.07-.072-.121-.125-.194-.207a1.277,1.277,0,0,1-.121-.159.29.29,0,0,1-.063-.193.3.3,0,0,1,.03-.078.854.854,0,0,1,.077-.11s.031-.033.044-.049l.026-.028.013-.014,0,0,.106-.107.22-.222c.148-.151.3-.3.446-.469.075-.079.151-.176.225-.263a3.669,3.669,0,0,0,.223-.315l.1-.2a1.6,1.6,0,0,0,.084-.239.985.985,0,0,0,.039-.277.867.867,0,0,0-.028-.287,1.736,1.736,0,0,0-.464-.8A10.612,10.612,0,0,0,3.1,36.541l-.956-.78a4.2,4.2,0,0,1-.661-.68,1.887,1.887,0,0,1,.242-.2c.142-.1.3-.2.489-.316l.538-.326q1.087-.662,2.162-1.348.536-.344,1.067-.7c.359-.24.695-.462,1.067-.744a5.966,5.966,0,0,0,1.767-2.065,4.679,4.679,0,0,0,.414-1.278,5.555,5.555,0,0,0,.06-1.3c-.056-.787-.118-1.563-.14-2.334a15.933,15.933,0,0,1,.108-2.29,12.307,12.307,0,0,1,.513-2.235,14.016,14.016,0,0,1,.921-2.146c.181-.35.392-.687.588-1.033s.441-.667.661-1c.473-.65.947-1.308,1.48-1.924.508-.634,1.077-1.236,1.622-1.85l-.933.828c-.317.27-.611.562-.9.856s-.6.581-.868.893-.566.607-.821.932-.52.643-.763.976-.478.673-.7,1.023a14.3,14.3,0,0,0-1.119,2.2c-.074.191-.155.381-.224.574l-.183.587c-.03.1-.063.2-.089.295l-.069.3c-.045.2-.093.4-.131.6a16.8,16.8,0,0,0-.231,2.421c-.012.8,0,1.6.035,2.388a4.459,4.459,0,0,1-.078,1.053,3.606,3.606,0,0,1-.346.974,4.764,4.764,0,0,1-1.456,1.6c-.3.215-.672.453-1.013.679s-.7.453-1.054.676q-1.061.669-2.146,1.313l-.548.327c-.174.105-.375.225-.575.366a2.423,2.423,0,0,0-.632.59,1.49,1.49,0,0,0-.141.279,1.02,1.02,0,0,0-.058.34,1.343,1.343,0,0,0,.01.172c.011.05.023.1.037.15a1.176,1.176,0,0,0,.105.254,2.857,2.857,0,0,0,.5.629L.9,36.5l.122.109.061.055.043.038.031.025.988.793a9.83,9.83,0,0,1,.868.748.647.647,0,0,1,.164.22s.008,0,0,0,.01,0,0,.015,0,.019-.013.042a.769.769,0,0,0-.037.07c-.035.055-.078.117-.128.182s-.106.133-.173.2c-.125.14-.262.284-.4.429l-.214.219-.107.11c-.069.075-.072.076-.126.139a1.845,1.845,0,0,0-.26.394,1.419,1.419,0,0,0-.138.49,1.454,1.454,0,0,0,.268.929,2.525,2.525,0,0,0,.258.321c.066.07.159.164.236.237.1.1.2.187.3.276a2.453,2.453,0,0,0-.472.342l-.089.089a1.23,1.23,0,0,0-.087.114,1.291,1.291,0,0,0-.079.125c-.023.05-.044.1-.062.154A.963.963,0,0,0,1.8,43.7a1.2,1.2,0,0,0,.068.3,1.811,1.811,0,0,0,.546.695,5.352,5.352,0,0,0,.559.41c.04.027.095.062.124.084s.063.043.093.069a1.254,1.254,0,0,1,.158.142.441.441,0,0,1,.132.253,1.088,1.088,0,0,1-.044.4c-.1.331-.241.751-.34,1.14a8.192,8.192,0,0,0-.239,1.228,3.136,3.136,0,0,0,.11,1.343,2.1,2.1,0,0,0,.962,1.142,4.49,4.49,0,0,0,1.341.479,11.594,11.594,0,0,0,1.334.187c.443.037.879.059,1.321.072s.886.011,1.322,0c.878-.024,1.748-.112,2.613-.208s1.722-.226,2.583-.337l-2.605.082c-.866.026-1.731.026-2.589,0"
          transform="translate(0 -10.762)" fill="#7c3a5b" />
        <path id="Path_5470" data-name="Path 5470"
          d="M90.083,185.4c-.892-.576-1.629.116-2.024.438a2.8,2.8,0,0,1,1.63.695,3.215,3.215,0,0,0,4.4-.725,4.385,4.385,0,0,1-4.01-.408"
          transform="translate(-78.493 -166.117)" fill="#7c3a5b" />
        <path id="Path_5471" data-name="Path 5471" d="M121.584,297.6l2.393,2.168,2.393-2.168-2.393-2.168Z"
          transform="translate(-108.376 -265.013)" fill="#7c3a5b" />
      </g>
    </g>
  </g>
</svg>