<svg xmlns="http://www.w3.org/2000/svg" width="32" height="20" viewBox="0 0 32 20">
  <g id="Group_22065" data-name="Group 22065" transform="translate(-30.507 -229.267)">
    <g id="Group_19209" data-name="Group 19209" transform="translate(30.507 229.267)">
      <g id="Rectangle_17837" data-name="Rectangle 17837" transform="translate(0 0)" fill="#fff" stroke="#f5f5f5" stroke-width="0.7">
        <rect width="32" height="20" rx="5" stroke="none"/>
        <rect x="0.35" y="0.35" width="31.3" height="19.3" rx="4.65" fill="none"/>
      </g>
    </g>
    <g id="Mada_Logo" transform="translate(35.878 235.722)">
      <rect id="Rectangle_17126" data-name="Rectangle 17126" width="8.992" height="2.996" transform="translate(0 4.088)" fill="#84b740"/>
      <rect id="Rectangle_17127" data-name="Rectangle 17127" width="8.992" height="2.998" fill="#259bd6"/>
      <path id="Path_12183" data-name="Path 12183" d="M617.44,135.632l-.04.008a1.312,1.312,0,0,1-.291.037c-.235,0-.513-.12-.513-.686,0-.291.048-.678.486-.678h0a1.317,1.317,0,0,1,.32.061l.035.011v1.247Zm.072-2.822-.072.013v1.047l-.064-.019-.019-.005a1.473,1.473,0,0,0-.4-.069c-.876,0-1.06.662-1.06,1.217a1.08,1.08,0,0,0,1.172,1.2,2.377,2.377,0,0,0,.782-.109.346.346,0,0,0,.294-.379v-3c-.208.037-.424.075-.635.109" transform="translate(-599.456 -129.157)" fill="#27292d"/>
      <path id="Path_12184" data-name="Path 12184" d="M716.109,174.388l-.037.011-.134.035a1.39,1.39,0,0,1-.323.051c-.206,0-.328-.1-.328-.275,0-.112.051-.3.387-.3h.435ZM715.8,172.5a2.954,2.954,0,0,0-.892.155l-.224.067.075.507.219-.072a2.573,2.573,0,0,1,.729-.123c.1,0,.39,0,.39.318v.139h-.408c-.745,0-1.089.238-1.089.748,0,.435.318.7.852.7a2.752,2.752,0,0,0,.593-.08l.011,0,.011,0,.067.011c.208.037.425.075.635.115v-1.666c0-.539-.326-.814-.966-.814" transform="translate(-695.52 -167.894)" fill="#27292d"/>
      <path id="Path_12185" data-name="Path 12185" d="M521.808,174.388l-.037.011-.134.035a1.37,1.37,0,0,1-.323.051c-.206,0-.328-.1-.328-.275,0-.112.051-.3.385-.3h.435l0,.481Zm-.3-1.888a2.942,2.942,0,0,0-.892.155l-.224.067.075.507.219-.072a2.574,2.574,0,0,1,.729-.123c.1,0,.39,0,.39.318v.139h-.409c-.745,0-1.092.238-1.092.748,0,.435.318.7.854.7a2.754,2.754,0,0,0,.593-.08l.011,0,.011,0,.064.011c.211.037.424.075.635.117v-1.666c0-.545-.323-.817-.964-.817" transform="translate(-506.408 -167.894)" fill="#27292d"/>
      <path id="Path_12186" data-name="Path 12186" d="M380.2,172.6a1.8,1.8,0,0,0-.724.16l-.027.013-.024-.019a1.1,1.1,0,0,0-.649-.158,2.653,2.653,0,0,0-.766.115c-.227.069-.315.179-.315.384V175h.71v-1.759l.035-.011a.9.9,0,0,1,.312-.056.281.281,0,0,1,.31.323v1.506h.7V173.47a.516.516,0,0,0-.021-.155l-.024-.045.048-.021a.842.842,0,0,1,.347-.072.283.283,0,0,1,.31.323v1.506h.7V173.43c0-.558-.3-.828-.918-.828" transform="translate(-367.616 -167.992)" fill="#27292d"/>
      <path id="Path_12187" data-name="Path 12187" d="M585.455,1.954a2.422,2.422,0,0,1-.414-.037L585,1.909V.881a.5.5,0,0,0-.019-.147l-.021-.043.045-.019c.011-.005.021-.008.035-.013l.008-.005L585.1.638a.069.069,0,0,1,.019-.005,1.658,1.658,0,0,1,.366-.043h0c.435,0,.486.387.486.678,0,.566-.283.686-.515.686m0-1.954h-.019a1.258,1.258,0,0,0-.977.331.669.669,0,0,0-.128.4h0v1.06a.312.312,0,0,1-.021.133l-.024.045h-1.29V1.231h0a1.1,1.1,0,0,0-1.14-1.2H581.2c-.027.19-.048.323-.075.513h.646c.339,0,.518.288.518.732v.742l-.045-.024a.49.49,0,0,0-.152-.021h-1.116c-.021.142-.048.326-.077.51h3.431c.117-.024.254-.045.371-.064a1.933,1.933,0,0,0,.718.131,1.171,1.171,0,0,0,1.228-1.268A1.177,1.177,0,0,0,585.452,0" transform="translate(-565.39)" fill="#27292d"/>
      <path id="Path_12188" data-name="Path 12188" d="M381.662,3.861h.032c.745,0,1.092-.246,1.092-.852a.78.78,0,0,0-.852-.782h-.686a.3.3,0,0,1-.328-.315c0-.133.051-.3.387-.3h1.5c.032-.195.048-.318.077-.513h-1.559c-.726,0-1.092.3-1.092.812s.318.764.852.764h.686a.324.324,0,0,1,.328.334.335.335,0,0,1-.384.344H381.6l-2.2-.005H379c-.339,0-.577-.192-.577-.638V2.4c0-.465.184-.753.577-.753h.651c.029-.2.048-.323.075-.51h-.889a1.114,1.114,0,0,0-1.14,1.223h0V2.71a1.054,1.054,0,0,0,1.14,1.148h.649l1.191,0h.983Z" transform="translate(-367.616 -1.071)" fill="#27292d"/>
    </g>
  </g>
</svg>
