<svg id="Iconly_Light-outline_Location" data-name="Iconly/Light-outline/Location" xmlns="http://www.w3.org/2000/svg" width="10" height="12" viewBox="0 0 10 12">
  <g id="Location" transform="translate(-0.5)">
    <path id="Location-2" data-name="Location" d="M4.92,11.81l-.036-.029-.243-.167A12.288,12.288,0,0,1,1.975,9.06l-.186-.247A6.5,6.5,0,0,1,.5,5.116l0-.171a5.144,5.144,0,0,1,1.518-3.5A4.917,4.917,0,0,1,5.5,0h.017l.15,0A4.924,4.924,0,0,1,9.1,1.562a5.152,5.152,0,0,1,1.4,3.57v.061A7.315,7.315,0,0,1,8.312,9.928a12.46,12.46,0,0,1-2.2,1.857l-.029.025a.981.981,0,0,1-1.16,0ZM5.373.913A4.049,4.049,0,0,0,2.557,2.18,4.232,4.232,0,0,0,1.39,5.1l.012.214A5.569,5.569,0,0,0,2.5,8.263a11.367,11.367,0,0,0,2.884,2.762l.048.038a.1.1,0,0,0,.14,0l.049-.039A11.541,11.541,0,0,0,7.669,9.3,6.41,6.41,0,0,0,9.61,5.184l0-.2a4.219,4.219,0,0,0-1.238-2.88A4.038,4.038,0,0,0,5.514.911ZM3.5,5.189A1.95,1.95,0,1,1,5.45,7.138,1.951,1.951,0,0,1,3.5,5.189Zm.911,0A1.039,1.039,0,1,0,5.45,4.151,1.04,1.04,0,0,0,4.411,5.189Z" fill="#b1afaf"/>
  </g>
</svg>
