<svg xmlns="http://www.w3.org/2000/svg" width="24" height="29" viewBox="0 0 24 29">
  <path id="location" d="M12.071,29h0a1.417,1.417,0,0,1-.669-.2A31.573,31.573,0,0,1,3.107,21.04,15.691,15.691,0,0,1,0,12.17,12.213,12.213,0,0,1,6.054,1.6a11.86,11.86,0,0,1,12.059.1,12.4,12.4,0,0,1,4.329,4.562A12.607,12.607,0,0,1,24,12.387c-.075,3.817-2.018,7.922-5.473,11.558a32.107,32.107,0,0,1-5.758,4.81,2.017,2.017,0,0,1-.7.246ZM11.987,8.27a4.025,4.025,0,0,0-2.878,1.2,4.156,4.156,0,0,0-.89,4.5,4.062,4.062,0,0,0,3.766,2.555h.028a4,4,0,0,0,2.858-1.2,4.177,4.177,0,0,0-1.316-6.748A4.009,4.009,0,0,0,11.987,8.27Z" transform="translate(0 0)" fill="#7c3a5b"/>
</svg>
