<svg xmlns="http://www.w3.org/2000/svg" width="32" height="20" viewBox="0 0 32 20">
  <g id="Group_22063" data-name="Group 22063" transform="translate(0)">
    <g id="Path_14607" data-name="Path 14607" transform="translate(0 0)" fill="#fff">
      <path d="M 27 19.64999961853027 L 5 19.64999961853027 C 2.435980081558228 19.64999961853027 0.3499999940395355 17.56402015686035 0.3499999940395355 15 L 0.3499999940395355 5 C 0.3499999940395355 2.435980081558228 2.435980081558228 0.3499999940395355 5 0.3499999940395355 L 27 0.3499999940395355 C 29.56402015686035 0.3499999940395355 31.64999961853027 2.435980081558228 31.64999961853027 5 L 31.64999961853027 15 C 31.64999961853027 17.56402015686035 29.56402015686035 19.64999961853027 27 19.64999961853027 Z" stroke="none"/>
      <path d="M 5 0.7000007629394531 C 2.628969192504883 0.7000007629394531 0.7000007629394531 2.628969192504883 0.7000007629394531 5 L 0.7000007629394531 15 C 0.7000007629394531 17.37103080749512 2.628969192504883 19.29999923706055 5 19.29999923706055 L 27 19.29999923706055 C 29.37103080749512 19.29999923706055 31.29999923706055 17.37103080749512 31.29999923706055 15 L 31.29999923706055 5 C 31.29999923706055 2.628969192504883 29.37103080749512 0.7000007629394531 27 0.7000007629394531 L 5 0.7000007629394531 M 5 0 L 27 0 C 29.76141929626465 0 32 2.238580703735352 32 5 L 32 15 C 32 17.76141929626465 29.76141929626465 20 27 20 L 5 20 C 2.238580703735352 20 0 17.76141929626465 0 15 L 0 5 C 0 2.238580703735352 2.238580703735352 0 5 0 Z" stroke="none" fill="#f5f5f5"/>
    </g>
    <g id="Group_17535" data-name="Group 17535" transform="translate(8.494 5.451)">
      <path id="Path_12263" data-name="Path 12263" d="M29.1,18.549A4.549,4.549,0,1,1,24.549,14,4.549,4.549,0,0,1,29.1,18.549Z" transform="translate(-14.086 -14)" fill="#ffc107"/>
      <path id="Path_12264" data-name="Path 12264" d="M13.83,21.278a4.531,4.531,0,0,1-.535-.91h2.422a4.525,4.525,0,0,0,.29-.91h-3a4.5,4.5,0,0,1-.092-.91H16.1a4.633,4.633,0,0,0-.091-.91H13a4.532,4.532,0,0,1,.291-.91h2.422a4.53,4.53,0,0,0-.535-.91H13.83a4.564,4.564,0,0,1,.673-.725,4.55,4.55,0,1,0,.677,6.184Z" transform="translate(-7 -14)" fill="#ff3d00"/>
    </g>
  </g>
</svg>
