<svg xmlns="http://www.w3.org/2000/svg" width="36" height="36" viewBox="0 0 36 36">
  <g id="Group_22386" data-name="Group 22386" transform="translate(-319 -133.5)">
    <rect id="Rectangle_157" data-name="Rectangle 157" width="36" height="36" rx="9" transform="translate(319 133.5)" fill="#7c3a5b"/>
    <g id="Group_21607" data-name="Group 21607" transform="translate(16 -312.5)">
      <rect id="Rectangle_667" data-name="Rectangle 667" width="21.999" height="21.999" transform="translate(310 453)" fill="none"/>
      <g id="receipt" transform="translate(309.861 453.25)">
        <path id="Path_14580" data-name="Path 14580" d="M11.139,20.748a2.352,2.352,0,0,1-1.868-1l-.916-1.224a.98.98,0,0,0-.716-.417,1.015,1.015,0,0,0-.762.336l-.517-.463.5.463c-1.306,1.4-2.313,1.288-2.793,1.1S2.75,18.726,2.75,16.712V6.5c0-4.027,1.161-5.251,4.961-5.251h6.856c3.8,0,4.961,1.224,4.961,5.251V16.712c0,2-.825,2.63-1.315,2.829s-1.478.3-2.793-1.1a.922.922,0,0,0-.771-.336,1,1,0,0,0-.726.417l-.916,1.224A2.352,2.352,0,0,1,11.139,20.748ZM7.584,16.74H7.7a2.339,2.339,0,0,1,1.732.961l.916,1.224a.917.917,0,0,0,1.569,0l.916-1.224a2.279,2.279,0,0,1,3.573-.19c.689.735,1.143.825,1.3.762.218-.091.453-.617.453-1.56V6.5c0-3.274-.571-3.891-3.6-3.891H7.711c-3.029,0-3.6.617-3.6,3.891V16.712c0,.952.236,1.478.453,1.56.154.063.608-.027,1.3-.762A2.419,2.419,0,0,1,7.584,16.74Z" fill="#fff"/>
        <path id="Path_14581" data-name="Path 14581" d="M15.185,7.61H7.93a.68.68,0,0,1,0-1.36h7.255a.68.68,0,0,1,0,1.36Z" transform="translate(-0.419 -0.466)" fill="#fff"/>
        <path id="Path_14582" data-name="Path 14582" d="M14.371,11.61H8.93a.68.68,0,0,1,0-1.36h5.441a.68.68,0,1,1,0,1.36Z" transform="translate(-0.512 -0.838)" fill="#fff"/>
      </g>
    </g>
  </g>
</svg>
