<svg xmlns="http://www.w3.org/2000/svg" width="15.999" height="17.853" viewBox="0 0 15.999 17.853">
  <g id="Group_22502" data-name="Group 22502" transform="translate(-327.622 -683.649)">
    <g id="Group_22500" data-name="Group 22500" transform="translate(-0.998 -1.114)">
      <circle id="Ellipse_654" data-name="Ellipse 654" cx="7.5" cy="7.5" r="7.5" transform="translate(328.998 687.114)" fill="#b1afaf" opacity="0.2"/>
      <g id="rotate-right" transform="translate(328.62 684.763)">
        <path id="Path_14598" data-name="Path 14598" d="M10.575,19.549a7.917,7.917,0,0,1-8-7.821,7.924,7.924,0,0,1,8-7.829,9.057,9.057,0,0,1,2.64.382.621.621,0,0,1,.424.78.64.64,0,0,1-.8.415,7.911,7.911,0,0,0-2.266-.332,6.654,6.654,0,0,0-6.722,6.575A6.654,6.654,0,0,0,10.575,18.3,6.654,6.654,0,0,0,17.3,11.721a6.44,6.44,0,0,0-1.129-3.653.611.611,0,0,1,.178-.863.642.642,0,0,1,.883.174,7.656,7.656,0,0,1,1.349,4.35A7.93,7.93,0,0,1,10.575,19.549Z" transform="translate(-2.58 -1.697)" fill="#3b3b3b"/>
        <path id="Path_14599" data-name="Path 14599" d="M15.511,5.251a.633.633,0,0,1-.473-.216l-2.4-2.756a.624.624,0,1,1,.938-.822l2.4,2.756a.628.628,0,0,1-.058.88A.57.57,0,0,1,15.511,5.251Z" transform="translate(-4.023 -1.246)" fill="#3b3b3b"/>
        <path id="Path_14600" data-name="Path 14600" d="M12.632,7.857a.626.626,0,0,1-.374-1.129l2.8-2.042a.624.624,0,0,1,.739,1L13,7.74A.581.581,0,0,1,12.632,7.857Z" transform="translate(-3.945 -1.809)" fill="#3b3b3b"/>
      </g>
    </g>
    <g id="Group_22501" data-name="Group 22501">
      <path id="Stroke_1" data-name="Stroke 1" d="M0,5.342a.548.548,0,0,1-.389-.161.55.55,0,0,1,0-.778L4.4-.389a.55.55,0,0,1,.778,0,.55.55,0,0,1,0,.778L.389,5.181A.548.548,0,0,1,0,5.342Z" transform="translate(333.226 691.499)" fill="#3b3b3b"/>
      <path id="Stroke_2" data-name="Stroke 2" d="M4.8,5.347a.548.548,0,0,1-.389-.161l-4.8-4.8a.55.55,0,0,1,0-.778.55.55,0,0,1,.778,0l4.8,4.8a.55.55,0,0,1-.389.939Z" transform="translate(333.224 691.497)" fill="#3b3b3b"/>
    </g>
  </g>
</svg>
