<svg xmlns="http://www.w3.org/2000/svg" width="16.998" height="19.997" viewBox="0 0 16.998 19.997">
  <path id="Notification" d="M8.044,19.973a3.493,3.493,0,0,1-2.33-1.307.7.7,0,0,1,.109-.98.683.683,0,0,1,.968.111,2.115,2.115,0,0,0,1.414.79,2.14,2.14,0,0,0,1.577-.445,1.911,1.911,0,0,0,.355-.347.685.685,0,0,1,.969-.106.7.7,0,0,1,.105.981,3.29,3.29,0,0,1-.6.583,3.492,3.492,0,0,1-2.571.721ZM4.013,15.844A4.9,4.9,0,0,1,.927,14.321,4.059,4.059,0,0,1,0,11.661v-.238A4.1,4.1,0,0,1,.67,9.379l.067-.086a3.858,3.858,0,0,0,.929-1.82l-.015.061,0-.535.012-.6c.009-.262.023-.5.042-.723A5.98,5.98,0,0,1,3.934,1.627,7.129,7.129,0,0,1,8.463,0h.072a7.137,7.137,0,0,1,4.529,1.626A6.021,6.021,0,0,1,15.3,5.685c.017.2.025.379.028.647V7c0,.11,0,.208,0,.308l.009.2.045.187a3.9,3.9,0,0,0,.726,1.431l.15.177.062.079A4.042,4.042,0,0,1,17,11.457v.4a4.063,4.063,0,0,1-.966,2.5,4.785,4.785,0,0,1-3.046,1.487,41.629,41.629,0,0,1-4.492.244A41.592,41.592,0,0,1,4.013,15.844ZM1.786,10.2h0l-.077.129a2.684,2.684,0,0,0-.313.939l-.017.191v.219a2.657,2.657,0,0,0,.575,1.715,3.492,3.492,0,0,0,2.2,1.065,40.446,40.446,0,0,0,4.342.235,40.532,40.532,0,0,0,4.356-.236,3.434,3.434,0,0,0,2.157-1.03,2.666,2.666,0,0,0,.613-1.774v-.163a2.582,2.582,0,0,0-.435-1.323l.015.025-.138-.162a5.3,5.3,0,0,1-1.013-2l-.065-.276-.013-.093c-.011-.147-.016-.266-.019-.4l0-.9c0-.228-.008-.382-.022-.547A5.309,5.309,0,0,0,8.535,1.395H8.463A5.29,5.29,0,0,0,3.079,5.806c-.011.121-.02.256-.029.422L3.035,6.7l-.007.919-.014.142a5.259,5.259,0,0,1-1.22,2.434h0Z" fill="#3b3b3b"/>
</svg>
