<svg xmlns="http://www.w3.org/2000/svg" width="16" height="15.993" viewBox="0 0 16 15.993">
  <g id="box-tick" transform="translate(-2 -2.03)">
    <path id="Path_13925" data-name="Path 13925" d="M14.3,4.53,10,2.213a1.54,1.54,0,0,0-1.456,0L4.241,4.53a1.006,1.006,0,0,0-.511.877.973.973,0,0,0,.511.877L8.547,8.6a1.547,1.547,0,0,0,.724.183A1.525,1.525,0,0,0,10,8.6L14.3,6.283a.988.988,0,0,0,.511-.877A1.006,1.006,0,0,0,14.3,4.53Z" transform="translate(-0.411)" fill="#2dcdac"/>
    <path id="Path_13926" data-name="Path 13926" d="M7.427,11.053l-4-2A.979.979,0,0,0,2,9.933v3.781a1.718,1.718,0,0,0,.953,1.54l4,2a.994.994,0,0,0,.442.107,1.064,1.064,0,0,0,.518-.145.988.988,0,0,0,.465-.838V12.593A1.746,1.746,0,0,0,7.427,11.053Z" transform="translate(0 -1.652)" fill="#2dcdac"/>
    <path id="Path_13927" data-name="Path 13927" d="M18.012,9.933v1.875a4.1,4.1,0,0,0-1.143-.152,4.585,4.585,0,0,0-2.851,1A4.508,4.508,0,0,0,12.3,16.229a4.151,4.151,0,0,0,.145,1.105.83.83,0,0,1-.335-.13.966.966,0,0,1-.465-.831V12.593a1.725,1.725,0,0,1,.945-1.54l4-2a.979.979,0,0,1,1.425.877Z" transform="translate(-2.299 -1.652)" fill="#2dcdac"/>
    <path id="Path_13928" data-name="Path 13928" d="M20.083,15.278A3.427,3.427,0,0,0,14.5,19.219a3.3,3.3,0,0,0,.77.884h.008a3.4,3.4,0,0,0,4.413-.076,3.3,3.3,0,0,0,.678-.808,3.43,3.43,0,0,0,.5-1.768A3.393,3.393,0,0,0,20.083,15.278Zm-.93,1.746-1.829,1.692a.582.582,0,0,1-.389.152.565.565,0,0,1-.4-.168l-.846-.846a.571.571,0,1,1,.808-.808l.457.457,1.425-1.319a.576.576,0,0,1,.808.03A.562.562,0,0,1,19.153,17.023Z" transform="translate(-2.86 -2.858)" fill="#2dcdac"/>
  </g>
</svg>
