<svg xmlns="http://www.w3.org/2000/svg" width="90" height="90" viewBox="0 0 90 90">
  <g id="Group_21647" data-name="Group 21647" transform="translate(-114.622 -140.622)">
    <circle id="Ellipse_95" data-name="Ellipse 95" cx="45" cy="45" r="45" transform="translate(114.622 140.622)" fill="#7c3a5b" opacity="0.05"/>
    <g id="svgexport-22" transform="translate(136.657 157.471)">
      <path id="Path_13441" data-name="Path 13441" d="M47.18,7.036V49.253a7.036,7.036,0,0,1-5.057,6.755c-1.337.4-.343.281-23.087.281A7.036,7.036,0,0,1,12,49.253V7.036A7.036,7.036,0,0,1,19.036,0H40.144A7.036,7.036,0,0,1,47.18,7.036Z" transform="translate(-6.723 0)" fill="#7c3a5b"/>
      <path id="Path_13442" data-name="Path 13442" d="M44.9,8.277V47.855a5.277,5.277,0,0,1-5.277,5.277H20.277A5.277,5.277,0,0,1,15,47.855V8.277A5.277,5.277,0,0,1,20.277,3h2.894A.88.88,0,0,1,24,3.6l.273.836a1.759,1.759,0,0,0,1.671,1.2h8.021a1.759,1.759,0,0,0,1.671-1.2l.273-.827A.879.879,0,0,1,36.741,3h2.885A5.277,5.277,0,0,1,44.9,8.277Z" transform="translate(-7.084 -0.361)" fill="#fff"/>
      <path id="Path_13443" data-name="Path 13443" d="M36.434,17.8a.88.88,0,0,1-.88-.88V15.157a4.4,4.4,0,1,0-8.8,0v1.759a.88.88,0,0,1-1.759,0V15.157a6.157,6.157,0,1,1,12.313,0v1.759A.88.88,0,0,1,36.434,17.8Z" transform="translate(-8.289 -1.084)" fill="#fbce67"/>
      <rect id="Rectangle_18297" data-name="Rectangle 18297" width="17.274" height="15.831" rx="2" transform="translate(14.23 14.952)" fill="#7c3a5b"/>
      <circle id="Ellipse_612" data-name="Ellipse 612" cx="0.88" cy="0.88" r="0.88" transform="translate(27.265 17.59)" fill="#fff"/>
      <circle id="Ellipse_613" data-name="Ellipse 613" cx="0.88" cy="0.88" r="0.88" transform="translate(27.265 21.108)" fill="#fff"/>
      <path id="Path_13444" data-name="Path 13444" d="M34.277,24.637a2.639,2.639,0,1,0-3.518,2.48v1.917a.88.88,0,1,0,1.759,0V27.118a2.639,2.639,0,0,0,1.759-2.48Z" transform="translate(-8.771 -2.65)" fill="#fff"/>
      <path id="Path_13445" data-name="Path 13445" d="M44.542,37H47.18V51.072H44.542ZM12,37h2.639V51.072H12Z" transform="translate(-6.723 -4.458)" fill="#5c1d3c"/>
      <path id="Path_13446" data-name="Path 13446" d="M15,37H44.9V51.072H15Z" transform="translate(-7.084 -4.458)" fill="#f3f3f3"/>
      <rect id="Rectangle_18298" data-name="Rectangle 18298" width="45.735" height="10.554" rx="2" transform="translate(0 34.301)" fill="#56090e"/>
      <g id="Group_21645" data-name="Group 21645" transform="translate(3.864 36.06)">
        <path id="Path_13447" data-name="Path 13447" d="M13.88,48.036a.88.88,0,0,1-.88-.88V41.88a.88.88,0,1,1,1.759,0v5.277A.88.88,0,0,1,13.88,48.036Z" transform="translate(-10.707 -41)" fill="#fbce67"/>
        <path id="Path_13448" data-name="Path 13448" d="M15.853,46.9c-.334,0-.088.088-5.013-2.753a.883.883,0,0,1,.88-1.53l4.573,2.639a.88.88,0,0,1-.44,1.645Z" transform="translate(-10.393 -41.18)" fill="#fbce67"/>
        <path id="Path_13449" data-name="Path 13449" d="M11.279,46.717a.88.88,0,0,1-.44-1.645l4.573-2.639a.883.883,0,1,1,.88,1.53c-4.934,2.841-4.679,2.753-5.013,2.753ZM24.12,48.036a.88.88,0,0,1-.88-.88V41.88a.88.88,0,1,1,1.759,0v5.277A.88.88,0,0,1,24.12,48.036Z" transform="translate(-10.393 -41)" fill="#fbce67"/>
        <path id="Path_13450" data-name="Path 13450" d="M27.853,46.9c-.334,0-.088.088-5.013-2.753a.883.883,0,0,1,.88-1.53l4.573,2.639a.88.88,0,0,1-.44,1.645Z" transform="translate(-11.839 -41.18)" fill="#fbce67"/>
        <path id="Path_13451" data-name="Path 13451" d="M23.279,46.717a.88.88,0,0,1-.44-1.645l4.573-2.639a.883.883,0,1,1,.88,1.53c-4.934,2.841-4.679,2.753-5.013,2.753ZM36.12,48.036a.88.88,0,0,1-.88-.88V41.88a.88.88,0,1,1,1.759,0v5.277A.88.88,0,0,1,36.12,48.036Z" transform="translate(-11.839 -41)" fill="#fbce67"/>
        <path id="Path_13452" data-name="Path 13452" d="M39.853,46.9c-.334,0-.088.088-5.013-2.753a.883.883,0,0,1,.88-1.53l4.573,2.639a.88.88,0,0,1-.44,1.645Z" transform="translate(-13.285 -41.18)" fill="#fbce67"/>
        <path id="Path_13453" data-name="Path 13453" d="M35.279,46.717a.88.88,0,0,1-.44-1.645l4.573-2.639a.883.883,0,1,1,.88,1.53c-4.934,2.841-4.679,2.753-5.013,2.753ZM48.12,48.036a.88.88,0,0,1-.88-.88V41.88a.88.88,0,1,1,1.759,0v5.277A.88.88,0,0,1,48.12,48.036Z" transform="translate(-13.285 -41)" fill="#fbce67"/>
        <path id="Path_13454" data-name="Path 13454" d="M51.853,46.9c-.334,0-.088.088-5.013-2.753a.883.883,0,0,1,.88-1.53l4.573,2.639a.88.88,0,0,1-.44,1.645Z" transform="translate(-14.731 -41.18)" fill="#fbce67"/>
        <path id="Path_13455" data-name="Path 13455" d="M47.279,46.9a.88.88,0,0,1-.44-1.645l4.573-2.639a.883.883,0,0,1,.88,1.53C47.358,46.985,47.613,46.9,47.279,46.9Z" transform="translate(-14.731 -41.18)" fill="#fbce67"/>
      </g>
      <path id="Path_13456" data-name="Path 13456" d="M39.47,57.759H21.88a.88.88,0,0,1,0-1.759H39.47a.88.88,0,1,1,0,1.759Z" transform="translate(-7.807 -6.747)" fill="#d9d9d9"/>
    </g>
  </g>
</svg>
