<svg id="Iconly_Light-outline_Delete" data-name="Iconly/Light-outline/Delete" xmlns="http://www.w3.org/2000/svg" width="12" height="13.333" viewBox="0 0 12 13.333">
  <g id="Delete">
    <path id="Delete-2" data-name="Delete" d="M3.422,13.306A1.944,1.944,0,0,1,1.46,11.42l-.085-.839L1.226,8.951,1.075,7.164.9,5.018a.5.5,0,0,1,.447-.538.49.49,0,0,1,.515.391l.02.2.163,2.012.178,2.084c.08.9.149,1.633.2,2.146a.969.969,0,0,0,1.014,1c1.634.035,3.318.036,5.071,0a.984.984,0,0,0,1.057-1l.085-.835c.025-.257.051-.542.079-.85l.178-2.051.214-2.63a.5.5,0,0,1,.459-.46h.067a.494.494,0,0,1,.448.47l-.007.137-.209,2.567-.22,2.506c-.046.5-.088.922-.124,1.254a1.959,1.959,0,0,1-2.009,1.894q-1.289.024-2.531.024Q4.689,13.333,3.422,13.306Zm5.966-9.98H.488a.5.5,0,0,1-.067-1l.067,0H2.612a.586.586,0,0,0,.553-.407l.019-.074L3.349,1A1.328,1.328,0,0,1,4.519,0l.105,0H7.376a1.325,1.325,0,0,1,1.25.927l.032.108.158.81a.59.59,0,0,0,.5.476l.075,0h2.124a.5.5,0,0,1,.067,1l-.067,0Zm-1.445-1a1.628,1.628,0,0,1-.058-.175l-.025-.11-.151-.779a.347.347,0,0,0-.275-.257L7.376,1H4.624a.35.35,0,0,0-.309.185L4.3,1.231l-.158.811a1.632,1.632,0,0,1-.083.284Z" fill="#b1afaf"/>
  </g>
</svg>
