<svg xmlns="http://www.w3.org/2000/svg" width="24" height="24" viewBox="0 0 24 24">
  <g id="Group_21970" data-name="Group 21970" transform="translate(-315 -445)">
    <rect id="Rectangle_667" data-name="Rectangle 667" width="24" height="24" transform="translate(315 445)" fill="none"/>
    <path id="Call" d="M16.188,21h0a5.736,5.736,0,0,1-2.394-.6,26.88,26.88,0,0,1-7.588-5.6A25.85,25.85,0,0,1,.611,7.227L.5,6.977c-.711-1.7-.672-3.1.116-4.176.69-1.142,2.589-2.8,4-2.8l.079,0,.028,0A2.36,2.36,0,0,1,6.185.748,15.94,15.94,0,0,1,8.927,4.563a2.547,2.547,0,0,1-.484,2.006l-.115.2c-.211.387-.253.555-.183.749a9.378,9.378,0,0,0,5.3,5.32.571.571,0,0,0,.2.038,1.574,1.574,0,0,0,.719-.289l.261-.148a2.636,2.636,0,0,1,1.324-.426,2.371,2.371,0,0,1,.486.054,15.929,15.929,0,0,1,3.811,2.743,2.358,2.358,0,0,1,.747,1.5c.049,1.382-1.634,3.4-2.749,4.034A3.465,3.465,0,0,1,16.188,21ZM4.595,1.535h0l.013,0-.093,0A5.634,5.634,0,0,0,1.9,3.652l-.082.122c-.419.682-.351,1.613.208,2.845l.11.256a25.725,25.725,0,0,0,5.31,6.977,25.175,25.175,0,0,0,6.971,5.141l.223.1a3.933,3.933,0,0,0,1.524.361,2.106,2.106,0,0,0,1.259-.4l.053-.034A7.976,7.976,0,0,0,18.6,17.946a2.993,2.993,0,0,0,.86-1.541.976.976,0,0,0-.314-.517,20.62,20.62,0,0,0-3.026-2.312.631.631,0,0,0-.131-.014,1.746,1.746,0,0,0-.8.325l-.258.145a2.634,2.634,0,0,1-1.268.394,2.248,2.248,0,0,1-.771-.15,10.929,10.929,0,0,1-6.185-6.2,2.343,2.343,0,0,1,.364-2.207l.117-.207c.222-.4.273-.576.231-.783A20.715,20.715,0,0,0,5.112,1.847.981.981,0,0,0,4.595,1.535Z" transform="translate(316.504 446.5)" fill="#b1afaf"/>
  </g>
</svg>
