<svg xmlns="http://www.w3.org/2000/svg" width="36" height="36" viewBox="0 0 36 36">
  <g id="Group_22390" data-name="Group 22390" transform="translate(-319 -133.5)">
    <rect id="Rectangle_157" data-name="Rectangle 157" width="36" height="36" rx="9" transform="translate(319 133.5)" fill="#7c3a5b"/>
    <g id="Group_21607" data-name="Group 21607" transform="translate(16 -312.5)">
      <rect id="Rectangle_667" data-name="Rectangle 667" width="21.999" height="21.999" transform="translate(310 453)" fill="none"/>
      <g id="Iconly_Light-outline_Info_Square" data-name="Iconly/Light-outline/Info Square" transform="translate(311 454)">
        <g id="Info_Square" data-name="Info Square" transform="translate(0 0)">
          <path id="Info_Square-2" data-name="Info Square" d="M5.665,20a5.5,5.5,0,0,1-4.109-1.651A6.044,6.044,0,0,1,0,14.084V5.916A6.045,6.045,0,0,1,1.558,1.652,5.5,5.5,0,0,1,5.665,0h8.67a5.5,5.5,0,0,1,4.109,1.651A6.043,6.043,0,0,1,20,5.916v8.168a6.042,6.042,0,0,1-1.557,4.265A5.5,5.5,0,0,1,14.334,20ZM1.5,5.916v8.168c0,2.683,1.634,4.416,4.164,4.416h8.669c2.532,0,4.167-1.733,4.167-4.416V5.916A4.579,4.579,0,0,0,17.374,2.7a4.04,4.04,0,0,0-3.039-1.2H5.665C3.135,1.5,1.5,3.234,1.5,5.916ZM9.246,13.9l-.006-.1V9.377a.75.75,0,0,1,1.493-.1l.007.1V13.8a.751.751,0,0,1-1.494.1ZM9.239,6.2a.75.75,0,0,1,.648-.743L10,5.454a.75.75,0,0,1,.1,1.493l-.112.007A.75.75,0,0,1,9.239,6.2Z" transform="translate(0 0)" fill="#fff"/>
        </g>
      </g>
    </g>
  </g>
</svg>
