<svg xmlns="http://www.w3.org/2000/svg" width="36" height="36" viewBox="0 0 36 36">
  <g id="products" transform="translate(-2 -2)">
    <path id="Path_13350" data-name="Path 13350" d="M5.857,2A3.859,3.859,0,0,0,2,5.857a1.286,1.286,0,0,0,.018.211L5.857,29.105v6.323A2.571,2.571,0,0,0,8.429,38h3.857a1.286,1.286,0,0,0,0-2.571H8.429V30.286h3.857a1.286,1.286,0,0,0,0-2.571H8.233l-3-18H19.339l-.82,4.932a1.286,1.286,0,0,0,2.535.422l1.5-9a1.286,1.286,0,0,0,.018-.211A3.859,3.859,0,0,0,18.714,2Zm0,2.571H18.714a1.284,1.284,0,0,1,1.281,1.193l-.229,1.378H4.8L4.574,5.77A1.289,1.289,0,0,1,5.857,4.571ZM26.4,12.286a1.283,1.283,0,0,0-1.26,1.286,3.3,3.3,0,0,1-1.86,2.706c-2.736,1.368-3.843,2.76-4.287,3.745a3.212,3.212,0,0,0-2.853,3.191v1.929a1.286,1.286,0,0,0-1.286,1.286v7.714A3.859,3.859,0,0,0,18.714,38H34.143A3.859,3.859,0,0,0,38,34.143V26.429a1.286,1.286,0,0,0-1.286-1.286V23.214a3.213,3.213,0,0,0-2.74-3.174,9.535,9.535,0,0,0-2.508-4.218,20.611,20.611,0,0,0-4.424-3.38,1.291,1.291,0,0,0-.639-.156Zm.85,3.33a16.444,16.444,0,0,1,2.361,1.992A7.786,7.786,0,0,1,31.282,20H22.321a9.1,9.1,0,0,1,2.111-1.421,5.768,5.768,0,0,0,2.821-2.964Zm-7.9,6.956H33.5a.643.643,0,0,1,.643.643v1.929H18.714V23.214A.643.643,0,0,1,19.357,22.571Zm-1.929,5.143h18v6.429a1.286,1.286,0,0,1-1.286,1.286H18.714a1.286,1.286,0,0,1-1.286-1.286Z" fill="#7c3a5b" fill-rule="evenodd"/>
  </g>
</svg>
