<svg xmlns="http://www.w3.org/2000/svg" width="36" height="36" viewBox="0 0 36 36">
  <g id="Group_22383" data-name="Group 22383" transform="translate(-319 -133.5)">
    <rect id="Rectangle_157" data-name="Rectangle 157" width="36" height="36" rx="9" transform="translate(319 133.5)" fill="#7c3a5b"/>
    <g id="Group_21607" data-name="Group 21607" transform="translate(16 -312.5)">
      <g id="user" transform="translate(312.292 453.917)">
        <path id="Path_11991" data-name="Path 11991" d="M11.611,11.972a5.361,5.361,0,1,1,5.361-5.361A5.368,5.368,0,0,1,11.611,11.972Zm0-9.324a3.963,3.963,0,1,0,3.963,3.963A3.971,3.971,0,0,0,11.611,2.649Z" transform="translate(-2.903 -1.25)" fill="#fff"/>
        <path id="Path_11992" data-name="Path 11992" d="M19.378,22.175a.7.7,0,0,1-.7-.7c0-3.217-3.282-5.827-7.31-5.827s-7.31,2.611-7.31,5.827a.7.7,0,0,1-1.4,0c0-3.981,3.907-7.226,8.708-7.226s8.708,3.245,8.708,7.226A.7.7,0,0,1,19.378,22.175Z" transform="translate(-2.66 -2.129)" fill="#fff"/>
      </g>
      <rect id="Rectangle_667" data-name="Rectangle 667" width="21.999" height="21.999" transform="translate(310 453)" fill="none"/>
    </g>
  </g>
</svg>
