<svg id="Iconly_Light-outline_Swap" data-name="Iconly/Light-outline/Swap" xmlns="http://www.w3.org/2000/svg" width="15.584" height="13.832" viewBox="0 0 15.584 13.832">
  <g id="Swap" transform="translate(0 0)">
    <path id="Swap-2" data-name="Swap" d="M11.389,13.719h0l0,0h0a.6.6,0,0,1-.065-.055l0,0L8.074,10.483a.571.571,0,0,1,0-.822.608.608,0,0,1,.777-.054l.067.057,2.225,2.178V2.687a.6.6,0,0,1,1.188-.079l.006.079v9.153l2.225-2.178a.607.607,0,0,1,.844,0,.571.571,0,0,1,.06.757l-.058.065-3.245,3.178h0l0,0a.607.607,0,0,1-.772.055Zm-8.139-2.5-.005-.079V1.99L1.02,4.17a.609.609,0,0,1-.777.058L.175,4.172a.572.572,0,0,1-.059-.757l.058-.066L3.419.171A.6.6,0,0,1,3.664.026h0l.012,0h0l.01,0H3.7l.008,0,.007,0h.007l.008,0h.006l.009,0h.172l.013,0h.043l.008,0h0a.6.6,0,0,1,.218.1l0,0a.6.6,0,0,1,.059.05l.005,0L7.51,3.349a.572.572,0,0,1,0,.823.608.608,0,0,1-.777.054L6.663,4.17,4.438,1.99v9.155a.6.6,0,0,1-1.188.079Z" transform="translate(0 0)" fill="#3b3b3b"/>
  </g>
</svg>
