<svg xmlns="http://www.w3.org/2000/svg" width="14.143" height="13.783" viewBox="0 0 14.143 13.783">
  <g id="svgexport-17_2_" data-name="svgexport-17 (2)" transform="translate(0.083 0.051)">
    <path id="Path_13537" data-name="Path 13537" d="M14.923,13.854A7.815,7.815,0,0,0,8.84,11.273c-.217,0-.43.016-.643.031L7.3,7.928l4.323-1.144a.8.8,0,0,0,.5-.4.814.814,0,0,0,.04-.655A5.466,5.466,0,0,0,5.858,2.468l-.19-.718a.423.423,0,1,0-.817.216l.19.718A5.467,5.467,0,0,0,1.162,8.639a.811.811,0,0,0,.359.549.8.8,0,0,0,.637.1L6.485,8.144,7.348,11.4a7.372,7.372,0,0,0-4.591,2.452.763.763,0,0,0-.1.816.777.777,0,0,0,.707.449H14.311a.777.777,0,0,0,.707-.449.759.759,0,0,0-.094-.815ZM11.375,5.976l-2.3.609A8.566,8.566,0,0,0,7.2,3.213,4.554,4.554,0,0,1,11.375,5.976ZM1.99,8.459A4.547,4.547,0,0,1,4.241,3.991a8.536,8.536,0,0,0,.037,3.863ZM5.66,3.376h0C6.334,3.2,7.525,4.55,8.256,6.8L5.1,7.637C4.619,5.32,4.985,3.556,5.66,3.376ZM3.51,14.273A7.139,7.139,0,0,1,8.84,12.119a7.141,7.141,0,0,1,5.331,2.154Z" transform="translate(-1.095 -1.436)" fill="#3b3b3b" stroke="#3b3b3b" stroke-width="0.1"/>
  </g>
</svg>
