<svg xmlns="http://www.w3.org/2000/svg" width="34" height="34" viewBox="0 0 34 34">
  <g id="Group_22654" data-name="Group 22654" transform="translate(-318 -49)">
    <rect id="Rectangle_18345" data-name="Rectangle 18345" width="34" height="34" rx="9" transform="translate(318 49)" fill="#7c3a5b"/>
    <g id="Search" transform="translate(325.999 57.04)">
      <path id="Search-2" data-name="Search" d="M0,9.581A8.5,8.5,0,0,1,13.933,3.049L16.863.19l.075-.063a.677.677,0,0,1,.868.065.64.64,0,0,1,0,.921L14.877,3.968A8.5,8.5,0,1,1,0,9.581Zm1.309,0A7.191,7.191,0,1,0,8.5,2.39,7.2,7.2,0,0,0,1.309,9.581Z" transform="translate(18.001 18) rotate(180)" fill="#fff"/>
    </g>
  </g>
</svg>
