<svg xmlns="http://www.w3.org/2000/svg" xmlns:xlink="http://www.w3.org/1999/xlink" width="36" height="36" viewBox="0 0 36 36">
  <defs>
    <clipPath id="clip-path">
      <path id="Path_13360" data-name="Path 13360" d="M0-682.665H36v36H0Z" transform="translate(0 682.665)" fill="#7c3a5b"/>
    </clipPath>
  </defs>
  <g id="Services" transform="translate(0 -0.002)">
    <g id="Group_21060" data-name="Group 21060" transform="translate(0 0.002)" clip-path="url(#clip-path)">
      <path id="Union_1" data-name="Union 1" d="M1.165,36.219A1.165,1.165,0,0,1,0,35.055V30.691A3.572,3.572,0,0,1,1.61,27.7V12.95A12.95,12.95,0,0,1,23.717,3.793,12.867,12.867,0,0,1,27.51,12.95V27.7a3.572,3.572,0,0,1,1.609,2.994v4.364a1.164,1.164,0,0,1-1.164,1.164ZM2.33,30.691v3.2H26.79v-3.2a1.253,1.253,0,0,0-.847-1.188l-.031-.01-6.876-2.183-3.653,3.653a1.163,1.163,0,0,1-1.647,0l-3.653-3.653L3.208,29.493l-.028.009-.016.006-.016.006A1.253,1.253,0,0,0,2.33,30.691Zm12.23-2.2L17.548,25.5V23.741a7.889,7.889,0,0,1-5.978,0V25.5ZM3.939,12.95V26.816l5.3-1.683V22.262a7.87,7.87,0,0,1-2.57-5.821V12.023a1.164,1.164,0,0,1,1.164-1.164h4.192A1.369,1.369,0,0,0,13.4,9.492V5.383a1.165,1.165,0,0,1,2.329,0V9.492a1.368,1.368,0,0,0,1.367,1.367h4.192a1.164,1.164,0,0,1,1.164,1.164v4.418a7.871,7.871,0,0,1-2.57,5.821v2.871l5.3,1.683V12.95a10.621,10.621,0,1,0-21.242,0ZM9,16.441a5.559,5.559,0,0,0,11.117,0V13.189H17.091a3.68,3.68,0,0,1-2.531-1.005,3.684,3.684,0,0,1-2.532,1.005H9Z" transform="translate(3.44 -0.11)" fill="#7c3a5b"/>
    </g>
  </g>
</svg>
