<svg xmlns="http://www.w3.org/2000/svg" width="20.002" height="20.002" viewBox="0 0 20.002 20.002">
  <g id="truck" transform="translate(-1.25 -1.25)">
    <path id="Path_13918" data-name="Path 13918" d="M12.181,13.809H1.948a.7.7,0,0,1-.7-.7V5.669A4.423,4.423,0,0,1,5.669,1.25h8.373a.7.7,0,0,1,.7.7v9.3A2.557,2.557,0,0,1,12.181,13.809Zm-9.536-1.4h9.536a1.163,1.163,0,0,0,1.163-1.163V2.645H5.669A3.029,3.029,0,0,0,2.645,5.669Z" transform="translate(0 0)" fill="#3b3b3b"/>
    <path id="Path_13919" data-name="Path 13919" d="M17.763,19.6h-.93a.7.7,0,0,1-.7-.7,1.163,1.163,0,0,0-2.326,0,.7.7,0,0,1-.7.7H9.39a.7.7,0,0,1-.7-.7,1.163,1.163,0,0,0-2.326,0,.7.7,0,0,1-.7.7h-.93A3.49,3.49,0,0,1,1.25,16.111V13.321a.7.7,0,0,1,.7-.7H12.181a1.163,1.163,0,0,0,1.163-1.163V4.948a.7.7,0,0,1,.7-.7h1.712a2.556,2.556,0,0,1,2.223,1.293l1.591,2.782a.716.716,0,0,1,0,.7.691.691,0,0,1-.6.344h-1.2a.23.23,0,0,0-.233.233V12.39a.23.23,0,0,0,.233.233h2.791a.7.7,0,0,1,.7.7v2.791A3.49,3.49,0,0,1,17.763,19.6Zm-.326-1.4h.326a2.1,2.1,0,0,0,2.093-2.093V14.018H17.763a1.636,1.636,0,0,1-1.628-1.628V9.6a1.63,1.63,0,0,1,1.628-1.628l-1-1.74a1.165,1.165,0,0,0-1.014-.586H14.74V11.46a2.557,2.557,0,0,1-2.558,2.558H2.645v2.093A2.1,2.1,0,0,0,4.739,18.2h.326a2.564,2.564,0,0,1,4.931,0h2.521a2.557,2.557,0,0,1,4.921,0Z" transform="translate(0 -0.209)" fill="#3b3b3b"/>
    <path id="Path_13920" data-name="Path 13920" d="M7.808,22.367a2.558,2.558,0,1,1,2.558-2.558A2.557,2.557,0,0,1,7.808,22.367Zm0-3.721a1.163,1.163,0,1,0,1.163,1.163A1.163,1.163,0,0,0,7.808,18.645Z" transform="translate(-0.279 -1.115)" fill="#3b3b3b"/>
    <path id="Path_13921" data-name="Path 13921" d="M15.808,22.367a2.558,2.558,0,1,1,2.558-2.558A2.557,2.557,0,0,1,15.808,22.367Zm0-3.721a1.163,1.163,0,1,0,1.163,1.163A1.163,1.163,0,0,0,15.808,18.645Z" transform="translate(-0.836 -1.115)" fill="#3b3b3b"/>
    <path id="Path_13922" data-name="Path 13922" d="M21.669,14.3H18.878a1.636,1.636,0,0,1-1.628-1.628V9.878A1.636,1.636,0,0,1,18.878,8.25h1.2a.681.681,0,0,1,.6.354l1.591,2.791a.732.732,0,0,1,.093.344V13.6A.7.7,0,0,1,21.669,14.3ZM18.878,9.645a.23.23,0,0,0-.233.233v2.791a.23.23,0,0,0,.233.233h2.093v-.977l-1.3-2.279Z" transform="translate(-1.115 -0.488)" fill="#3b3b3b"/>
  </g>
</svg>
