<svg id="Favorite_-_solid" data-name="Favorite - solid" xmlns="http://www.w3.org/2000/svg" width="18" height="17.1" viewBox="0 0 18 17.1">
  <path id="Heart" d="M9.03,17.1h0L8.8,16.956a34.347,34.347,0,0,1-5.732-4.465A11.694,11.694,0,0,1,.354,8.172,6.97,6.97,0,0,1,.482,3.425,5.475,5.475,0,0,1,3.892.242a4.054,4.054,0,0,1,.8-.188H4.8A5.134,5.134,0,0,1,5.556,0h.1A5.639,5.639,0,0,1,7.3.3h.053a.3.3,0,0,1,.081.053A3.038,3.038,0,0,1,8,.586l.342.152A2.364,2.364,0,0,1,8.6.909c.051.037.1.07.13.091l.037.021A2.191,2.191,0,0,1,9,1.17,5.6,5.6,0,0,1,12.428,0h.04a5.244,5.244,0,0,1,1.674.262,5.417,5.417,0,0,1,3.38,3.165,7.123,7.123,0,0,1,.139,4.745A11.5,11.5,0,0,1,14.953,12.5a34.741,34.741,0,0,1-5.7,4.464L9.03,17.1ZM13.446,2.806a.728.728,0,0,0-.681.488.738.738,0,0,0,.45.926,1.509,1.509,0,0,1,.963,1.413v.028a.774.774,0,0,0,.171.558.756.756,0,0,0,.513.261.741.741,0,0,0,.711-.684V5.689a2.971,2.971,0,0,0-1.9-2.845A.7.7,0,0,0,13.446,2.806Z" fill="#7c3a5b"/>
</svg>
