<svg xmlns="http://www.w3.org/2000/svg" xmlns:xlink="http://www.w3.org/1999/xlink" width="81.491" height="134.286" viewBox="0 0 81.491 134.286">
  <defs>
    <clipPath id="clip-path">
      <rect id="Rectangle_651" data-name="Rectangle 651" width="81.491" height="134.286" fill="#fff"/>
    </clipPath>
  </defs>
  <g id="Group_10848" data-name="Group 10848" clip-path="url(#clip-path)">
    <path id="Path_5467" data-name="Path 5467" d="M183.33,92.187c-2.174-4.582-6.4-8.551-10.5-12.238-.99-.89-2.007-1.768-3.036-2.64,2.813-.545,4.409-2.449,5.72-4.281,4.651-6.5-1.72-12.428-7.228-16.93-11.6-9.48-25.373-18.437-31.924-30.61C132.9,19.049,131.439,6.2,147.231.048a7.938,7.938,0,0,0-3.587.618,16.759,16.759,0,0,0-3.679,1.841c-6.367,4.244-9.507,10.985-9.1,16.98.416,6.2,3.877,11.921,8.24,16.99,4.742,5.51,10.635,10.419,16.646,15.182,5.778,4.579,13.111,9.107,16.915,14.787a12.225,12.225,0,0,1,1.686,3.476c.013.046.025.1.035.156a3.338,3.338,0,0,1-2.688,3.74,7.171,7.171,0,0,1-1.5.254c-3.968-.142-7.592-2.538-9.888-4.49-5.991-4.821-11.869-9.718-16.482-15.277-2.639-3.18-6.512-8.708-3.806-12.466.133-.185.994-1.3.6-1.307-.44-.005-1.627,1.835-1.773,2.038-6.107,8.478,3.165,16.705,9.9,22.728,2.847,2.546,5.879,5.006,8.938,7.458a29.426,29.426,0,0,0,2.524,2.022c6.276,5.029,12.486,10.116,17.274,15.934a18.952,18.952,0,0,1,4.1,7.243,7.46,7.46,0,0,1,.211,2.048,6.438,6.438,0,0,1-.236,1.551c-.091.313-.492.972-.46,1.01-.485.554-1.082,1.29-.917,1.586.136.244,1.142-.987,1.215-1.08,2.9-3.691,3.784-6.989,1.936-10.884" transform="translate(-103.733 0)" fill="#fff"/>
    <path id="Path_5468" data-name="Path 5468" d="M175.847,329.406c-2.565-2.959-6.353-7.984-3.727-11.773,1.684-2.43-.383-.409-1.172.73-2.27,3.276-2.672,6.329-1.039,9.655,2.071,4.218,6.048,7.841,9.891,11.218,9.618,8.451,20.957,16.085,28.319,25.815,5.132,6.782,6.633,15.3,1.532,22.818-.284.419-.8.944-.125.74s1.563-1.855,1.868-2.3c16.271-23.975-21.007-40.128-35.546-56.9" transform="translate(-133.934 -254.369)" fill="#fff"/>
    <path id="Path_5469" data-name="Path 5469" d="M17.636,86.7c-.824-.029-1.622-.083-2.441-.164s-1.625-.179-2.422-.3a22.378,22.378,0,0,1-2.335-.464,6.836,6.836,0,0,1-1.995-.827,2.311,2.311,0,0,1-1.027-1.378,4.9,4.9,0,0,1-.023-1.905,14.142,14.142,0,0,1,.51-2.069c.218-.712.471-1.335.752-2.142a3.858,3.858,0,0,0,.2-1.455,2.785,2.785,0,0,0-.669-1.57,4.471,4.471,0,0,0-.546-.547c-.091-.082-.194-.158-.291-.236L7.1,73.451a9.621,9.621,0,0,1-.844-.654,1.9,1.9,0,0,1-.357-.386h0a3.16,3.16,0,0,1,.709-.417c.309-.146.662-.28,1.018-.411l1.693-.623L8.049,69.742c-.6-.571-1.184-1.088-1.691-1.605-.134-.138-.23-.239-.37-.394a2.434,2.434,0,0,1-.23-.3.552.552,0,0,1-.12-.368.565.565,0,0,1,.057-.148,1.628,1.628,0,0,1,.146-.21c0-.008.058-.064.084-.093l.05-.054L6,66.539l0,0,.2-.2.42-.423c.282-.287.565-.578.85-.893.142-.15.287-.335.43-.5a7,7,0,0,0,.426-.6l.2-.374a3.053,3.053,0,0,0,.16-.456,1.878,1.878,0,0,0,.075-.528,1.653,1.653,0,0,0-.053-.548,3.31,3.31,0,0,0-.885-1.521,20.233,20.233,0,0,0-1.917-1.7L4.087,57.3A8,8,0,0,1,2.826,56a3.6,3.6,0,0,1,.461-.373c.27-.2.577-.385.933-.6l1.025-.622q2.073-1.262,4.122-2.57,1.023-.657,2.035-1.33c.685-.458,1.324-.881,2.034-1.419A11.374,11.374,0,0,0,16.8,45.151a8.919,8.919,0,0,0,.789-2.436,10.59,10.59,0,0,0,.115-2.48c-.107-1.5-.225-2.979-.268-4.449a30.375,30.375,0,0,1,.205-4.365,23.463,23.463,0,0,1,.979-4.261,26.719,26.719,0,0,1,1.757-4.091c.344-.667.748-1.31,1.12-1.969.4-.647.841-1.271,1.261-1.91.9-1.239,1.805-2.494,2.822-3.668.968-1.209,2.054-2.357,3.093-3.526L26.9,13.575c-.6.515-1.164,1.072-1.723,1.633s-1.14,1.108-1.655,1.7-1.08,1.157-1.565,1.776-.991,1.226-1.455,1.861c-.44.649-.912,1.283-1.327,1.95a27.267,27.267,0,0,0-2.134,4.185c-.141.364-.295.726-.427,1.095L16.266,28.9c-.056.187-.12.373-.17.562l-.132.569c-.085.38-.177.761-.249,1.143a32.019,32.019,0,0,0-.441,4.616c-.024,1.533.007,3.054.067,4.552a8.5,8.5,0,0,1-.149,2.008,6.875,6.875,0,0,1-.659,1.857,9.082,9.082,0,0,1-2.775,3.047c-.575.411-1.282.863-1.931,1.294q-1,.652-2.009,1.289-2.022,1.275-4.09,2.5l-1.046.623c-.332.2-.715.429-1.1.7a4.619,4.619,0,0,0-1.2,1.125,2.84,2.84,0,0,0-.268.533A1.944,1.944,0,0,0,0,55.964a2.56,2.56,0,0,0,.019.327c.02.1.044.191.07.285a2.241,2.241,0,0,0,.2.484,5.447,5.447,0,0,0,.953,1.2l.469.446.232.208.117.1.083.073.058.047,1.884,1.511a18.738,18.738,0,0,1,1.654,1.427,1.233,1.233,0,0,1,.312.42c.005,0,.015.007,0,.009s.019,0,0,.028,0,.035-.025.08a1.467,1.467,0,0,0-.071.134c-.066.1-.148.223-.243.346-.111.13-.2.254-.329.39-.238.267-.5.542-.766.817l-.407.417-.2.209c-.132.142-.138.145-.241.265a3.516,3.516,0,0,0-.5.751,2.705,2.705,0,0,0-.263.934,2.772,2.772,0,0,0,.511,1.771,4.815,4.815,0,0,0,.492.611c.126.133.3.313.449.452.189.183.379.356.567.526a4.676,4.676,0,0,0-.9.651l-.169.17a2.348,2.348,0,0,0-.165.218,2.462,2.462,0,0,0-.151.238c-.043.1-.083.195-.118.294a1.836,1.836,0,0,0-.089.637,2.289,2.289,0,0,0,.129.578,3.453,3.453,0,0,0,1.04,1.324,10.2,10.2,0,0,0,1.065.781c.077.052.18.118.236.16s.121.083.178.132a2.391,2.391,0,0,1,.3.272.84.84,0,0,1,.252.482,2.074,2.074,0,0,1-.083.768c-.187.632-.46,1.432-.649,2.174a15.618,15.618,0,0,0-.456,2.341,5.979,5.979,0,0,0,.21,2.56,4,4,0,0,0,1.835,2.177,8.559,8.559,0,0,0,2.557.912,22.1,22.1,0,0,0,2.544.356c.844.071,1.676.113,2.518.137s1.689.022,2.52-.008c1.675-.046,3.333-.214,4.981-.4s3.283-.43,4.924-.643l-4.966.156c-1.651.049-3.3.05-4.936-.007" transform="translate(0 -9.642)" fill="#fff"/>
    <path id="Path_5470" data-name="Path 5470" d="M91.917,185.6c-1.7-1.1-3.106.22-3.858.836a5.339,5.339,0,0,1,3.108,1.324c3.234,1.78,5.727,1.384,8.4-1.383a8.36,8.36,0,0,1-7.646-.777" transform="translate(-69.823 -148.835)" fill="#fff"/>
    <path id="Path_5471" data-name="Path 5471" d="M121.584,299.563l4.561,4.134,4.562-4.134-4.562-4.134Z" transform="translate(-96.404 -237.443)" fill="#fff"/>
  </g>
</svg>
