<svg xmlns="http://www.w3.org/2000/svg" width="130" height="126" viewBox="0 0 130 126">
  <g id="Group_21778" data-name="Group 21778" transform="translate(-113.771 -258.997)">
    <circle id="Ellipse_614" data-name="Ellipse 614" cx="48" cy="48" r="48" transform="translate(131.771 272.997)" fill="#7c3a5b"/>
    <circle id="Ellipse_615" data-name="Ellipse 615" cx="7" cy="7" r="7" transform="translate(120.771 259.997)" fill="#7c3a5b" opacity="0.55"/>
    <circle id="Ellipse_616" data-name="Ellipse 616" cx="2.5" cy="2.5" r="2.5" transform="translate(185.771 258.997)" fill="#7c3a5b" opacity="0.55"/>
    <circle id="Ellipse_617" data-name="Ellipse 617" cx="6" cy="6" r="6" transform="translate(231.771 272.997)" fill="#7c3a5b" opacity="0.55"/>
    <circle id="Ellipse_618" data-name="Ellipse 618" cx="3" cy="3" r="3" transform="translate(232.771 333.997)" fill="#7c3a5b" opacity="0.55"/>
    <circle id="Ellipse_619" data-name="Ellipse 619" cx="2.5" cy="2.5" r="2.5" transform="translate(232.771 369.997)" fill="#7c3a5b" opacity="0.55"/>
    <circle id="Ellipse_620" data-name="Ellipse 620" cx="1" cy="1" r="1" transform="translate(196.771 375.997)" fill="#7c3a5b" opacity="0.55"/>
    <circle id="Ellipse_623" data-name="Ellipse 623" cx="1" cy="1" r="1" transform="translate(113.771 309.997)" fill="#7c3a5b" opacity="0.55"/>
    <circle id="Ellipse_621" data-name="Ellipse 621" cx="2.5" cy="2.5" r="2.5" transform="translate(154.771 379.997)" fill="#7c3a5b" opacity="0.55"/>
    <circle id="Ellipse_622" data-name="Ellipse 622" cx="3.5" cy="3.5" r="3.5" transform="translate(118.771 350.997)" fill="#7c3a5b" opacity="0.55"/>
    <path id="shield-tick" d="M30.494,5.888l-9.886-3.7a6.254,6.254,0,0,0-3.721,0L7,5.888A5.722,5.722,0,0,0,3.55,10.867V25.427a5.968,5.968,0,0,0,2.121,4.242l9.886,7.388a5.606,5.606,0,0,0,6.345,0l9.886-7.388a6,6,0,0,0,2.121-4.242V10.867A5.686,5.686,0,0,0,30.494,5.888Zm-5.5,10.066-7.729,7.729a1.345,1.345,0,0,1-1.905,0l-2.876-2.912a1.347,1.347,0,1,1,1.905-1.905l1.941,1.941,6.776-6.776a1.347,1.347,0,1,1,1.887,1.923Z" transform="translate(161.025 301.462)" fill="#fff"/>
  </g>
</svg>
