<svg xmlns="http://www.w3.org/2000/svg" width="20" height="20" viewBox="0 0 20 20">
  <g id="Group_21847" data-name="Group 21847" transform="translate(-1589.246 -2407.246)">
    <rect id="Rectangle_18352" data-name="Rectangle 18352" width="20" height="20" transform="translate(1589.246 2407.246)" fill="none"/>
    <g id="svgexport-17_2_" data-name="svgexport-17 (2)" transform="translate(1590.881 2409.001)">
      <path id="Path_13537" data-name="Path 13537" d="M17.62,16.275a9.339,9.339,0,0,0-7.269-3.084c-.259,0-.514.02-.768.037L8.513,9.194l5.166-1.367a.958.958,0,0,0,.6-.482.972.972,0,0,0,.048-.782A6.532,6.532,0,0,0,6.786,2.67l-.227-.858a.505.505,0,1,0-.977.258l.227.858a6.533,6.533,0,0,0-4.635,7.115A.969.969,0,0,0,1.6,10.7a.956.956,0,0,0,.762.121L7.536,9.452l1.031,3.892A8.809,8.809,0,0,0,3.08,16.275a.912.912,0,0,0-.115.975.929.929,0,0,0,.845.536H16.888a.929.929,0,0,0,.845-.536.907.907,0,0,0-.113-.974ZM13.379,6.861l-2.749.727A10.236,10.236,0,0,0,8.394,3.559,5.442,5.442,0,0,1,13.379,6.861ZM2.164,9.829a5.433,5.433,0,0,1,2.69-5.34A10.2,10.2,0,0,0,4.9,9.105ZM6.55,3.755h0c.8-.215,2.226,1.4,3.1,4.093l-3.776,1C5.306,6.077,5.743,3.97,6.55,3.755ZM3.98,16.775a8.532,8.532,0,0,1,6.37-2.574,8.534,8.534,0,0,1,6.37,2.574Z" transform="translate(-1.095 -1.436)" fill="#3b3b3b" stroke="#3b3b3b" stroke-width="0.1"/>
    </g>
  </g>
</svg>
