<?xml version="1.0" encoding="UTF-8"?>
<svg data-name="Iconly/Light-outline/Delete" viewBox="0 0 14 15.556" xmlns="http://www.w3.org/2000/svg">
<path d="M3.993,15.524a2.268,2.268,0,0,1-2.29-2.2l-.1-.979-.173-1.9L1.254,8.358l-.2-2.5a.579.579,0,0,1,.522-.628.572.572,0,0,1,.6.456l.023.229.19,2.347.207,2.432c.094,1.053.174,1.905.239,2.5a1.13,1.13,0,0,0,1.183,1.162c1.907.041,3.871.042,5.916,0a1.148,1.148,0,0,0,1.233-1.172l.1-.974c.029-.3.059-.632.092-.992l.208-2.393.25-3.069a.578.578,0,0,1,.535-.536h.078a.577.577,0,0,1,.522.549l-.008.16-.244,3-.257,2.923c-.054.584-.1,1.076-.144,1.463a2.286,2.286,0,0,1-2.344,2.21q-1.5.028-2.953.028Q5.471,15.556,3.993,15.524Zm6.96-11.643H.569A.585.585,0,0,1,.491,2.719l.078,0H3.047a.683.683,0,0,0,.645-.475l.022-.086.192-.982A1.55,1.55,0,0,1,5.272,0l.123,0h3.21a1.546,1.546,0,0,1,1.459,1.082l.037.126.185.945a.688.688,0,0,0,.58.556l.088.006h2.478a.584.584,0,0,1,.078,1.161l-.078.006ZM9.267,2.714a1.9,1.9,0,0,1-.067-.2L9.17,2.381l-.176-.909a.405.405,0,0,0-.321-.3l-.067-.006H5.395a.408.408,0,0,0-.361.216l-.02.053-.184.946a1.9,1.9,0,0,1-.1.332Z" fill="#eb4335" data-name="Delete"/>
</svg>
