<svg xmlns="http://www.w3.org/2000/svg" width="36" height="36" viewBox="0 0 36 36">
  <g id="Group_22655" data-name="Group 22655" transform="translate(-314 -732)">
    <rect id="Rectangle_18330" data-name="Rectangle 18330" width="36" height="36" rx="10" transform="translate(314 732)" fill="#54acee"/>
    <path id="Path_1723" data-name="Path 1723" d="M47.3,36.164a9.088,9.088,0,0,1-2.616.716,4.567,4.567,0,0,0,2-2.519,9.118,9.118,0,0,1-2.892,1.1,4.559,4.559,0,0,0-7.762,4.155,12.93,12.93,0,0,1-9.389-4.76,4.56,4.56,0,0,0,1.409,6.081,4.523,4.523,0,0,1-2.063-.57c0,.019,0,.039,0,.058A4.557,4.557,0,0,0,29.648,44.9a4.573,4.573,0,0,1-2.057.079,4.56,4.56,0,0,0,4.255,3.163A9.195,9.195,0,0,1,25.1,50.024,12.953,12.953,0,0,0,45.044,39.11c0-.2,0-.394-.013-.589A9.237,9.237,0,0,0,47.3,36.164Z" transform="translate(295.737 707.851)" fill="#fff"/>
  </g>
</svg>
