<svg xmlns="http://www.w3.org/2000/svg" width="21.996" height="21.993" viewBox="0 0 21.996 21.993">
  <g id="Group_22058" data-name="Group 22058" transform="translate(-43.156 -129.156)">
    <g id="Group_22057" data-name="Group 22057" transform="translate(43.156 129.156)">
      <path id="Path_13923" data-name="Path 13923" d="M27.031,24.936H19.062a1,1,0,1,1,0-2h7.969a1,1,0,0,1,0,2Z" transform="translate(-6.035 -2.943)" fill="#b1afaf"/>
      <path id="Path_13924" data-name="Path 13924" d="M25.818,13.156a4.046,4.046,0,0,1,2.472.922l1.756,1.39A3.517,3.517,0,0,1,30.9,20.5L20.421,33.981A2.858,2.858,0,0,1,18.183,35.1l-4.039.052a1.012,1.012,0,0,1-1-.789l-.915-3.972a2.922,2.922,0,0,1,.538-2.455L23.246,14.447A3.212,3.212,0,0,1,25.818,13.156ZM14.932,33.1l3.227-.042a.854.854,0,0,0,.67-.333L29.3,19.239c.808-1.041-.279-1.986-.505-2.165l-1.757-1.39a2.041,2.041,0,0,0-1.225-.487,1.2,1.2,0,0,0-.981.509L14.362,29.189a.876.876,0,0,0-.161.735Z" transform="translate(-12.156 -13.156)" fill="#b1afaf"/>
    </g>
    <path id="Path_13925" data-name="Path 13925" d="M23.554,21.531a1,1,0,0,1-.616-.213l-5.991-4.7a1,1,0,0,1,1.234-1.574l5.991,4.7a1,1,0,0,1-.617,1.787Z" transform="translate(35.545 117.777)" fill="#b1afaf"/>
  </g>
</svg>
