<svg xmlns="http://www.w3.org/2000/svg" version="1.1" xmlns:xlink="http://www.w3.org/1999/xlink" width="512" height="512" x="0" y="0" viewBox="0 0 64 64" style="enable-background:new 0 0 512 512" xml:space="preserve" class=""><g><path d="M50.165 36.316A1 1 0 0 0 51 35.33v-6.66a1 1 0 0 0-.835-.986l-2.444-.41-1.265-3.045 1.439-2.019a1 1 0 0 0-.108-1.287l-4.71-4.71a1 1 0 0 0-1.287-.108l-2.019 1.439-3.046-1.265-.409-2.444A1 1 0 0 0 35.33 13h-6.66a1 1 0 0 0-.986.835l-.41 2.444-3.045 1.265-2.019-1.439a1 1 0 0 0-1.287.108l-4.71 4.71a1 1 0 0 0-.108 1.287l1.44 2.02-1.265 3.045-2.363.395a1 1 0 0 0-.917.996v6.667c.03 1.316 1.973 1.316 2 0v-5.816l2.155-.36a1 1 0 0 0 .758-.602l1.691-4.074a1 1 0 0 0-.11-.961l-1.268-1.781 3.513-3.513 1.78 1.269c.282.2.647.24.964.109l4.07-1.69a.999.999 0 0 0 .603-.759l.36-2.155h4.967l.36 2.155c.057.34.285.627.604.759l4.07 1.69c.316.132.683.09.963-.11l1.781-1.268 3.513 3.513-1.269 1.78a1 1 0 0 0-.109.964l1.69 4.07a.999.999 0 0 0 .759.603l2.155.36v4.967l-2.155.36a.999.999 0 0 0-.759.604l-1.69 4.07a1 1 0 0 0 .11.963l1.268 1.781-3.513 3.513-1.78-1.269c-.281-.2-.648-.24-.964-.109l-4.07 1.69a.999.999 0 0 0-.603.759L34.484 49h-4.967l-.36-2.155a.999.999 0 0 0-.604-.759l-4.07-1.69a1.002 1.002 0 0 0-.963.11l-1.781 1.268-3.513-3.513 1.269-1.78c.517-.644-.253-1.67-.55-2.563-.515-1.207-2.334-.459-1.85.763l.45 1.089-1.44 2.02a1 1 0 0 0 .108 1.287l4.71 4.71a.998.998 0 0 0 1.287.108l2.019-1.439 3.046 1.265.409 2.444a1 1 0 0 0 .986.835h6.66a1 1 0 0 0 .986-.835l.41-2.444 3.045-1.265 2.019 1.439a1 1 0 0 0 1.287-.108l4.71-4.71a1 1 0 0 0 .108-1.287l-1.439-2.019 1.265-3.046 2.444-.409z" fill="#7C3A5B" opacity="1" data-original="#000000" class=""></path><path d="M32 24c1.346 0 2.684.344 3.868.996a.998.998 0 0 0 1.358-.394c.94-1.91-3.998-2.628-5.226-2.602-10.283.068-13.794 13.74-4.832 18.756 8.756 4.776 18.364-4.833 13.588-13.588-.64-1.141-2.376-.185-1.752.964A8.045 8.045 0 0 1 40 32c.101 5.978-6.687 9.977-11.866 7.005C20.964 34.991 23.774 24.055 32 24z" fill="#7C3A5B" opacity="1" data-original="#000000" class=""></path><path d="M53.714 15.936a1 1 0 0 0-.258 1.39c16.84 25.083-15.33 53.665-38.313 34.456L18 51.375c1.298-.211 1.022-2.14-.284-1.98l-4.95.707a1.03 1.03 0 0 0-.848.848l-.707 4.95c-.16 1.297 1.765 1.588 1.98.283l.437-3.059c24.946 21.03 59.556-9.74 41.476-36.93a.998.998 0 0 0-1.39-.258zM9.721 48.24c.785.013 1.283-.925.823-1.566-16.507-25.443 14.78-53.558 38.313-34.456L46 12.625c-1.305.213-1.012 2.146.284 1.98l4.95-.707a1.03 1.03 0 0 0 .847-.848l.708-4.95c.16-1.3-1.771-1.586-1.98-.283l-.437 3.059C32.478-4.838 3.917 8.164 4 32c0 5.676 1.693 11.141 4.896 15.806a1 1 0 0 0 .825.434z" fill="#7C3A5B" opacity="1" data-original="#000000" class=""></path></g></svg>