<svg xmlns="http://www.w3.org/2000/svg" width="32" height="20" viewBox="0 0 32 20">
  <g id="Group_22062" data-name="Group 22062" transform="translate(0)">
    <g id="Rectangle_17388" data-name="Rectangle 17388" transform="translate(0 0)" fill="#fff" stroke="#f5f5f5" stroke-width="0.7">
      <rect width="32" height="20" rx="5" stroke="none"/>
      <rect x="0.35" y="0.35" width="31.3" height="19.3" rx="4.65" fill="none"/>
    </g>
    <path id="Path_12262" data-name="Path 12262" d="M15.679,15.561l-2.842,6.963H10.966L9.589,17.016a.758.758,0,0,0-.416-.616,7.511,7.511,0,0,0-1.723-.6v-.2h2.971a.837.837,0,0,1,.812.718l.733,4.042,1.822-4.74Zm7.259,4.689c0-1.829-2.476-1.93-2.456-2.759,0-.243.238-.515.743-.576a3.23,3.23,0,0,1,1.733.3l.307-1.475a4.8,4.8,0,0,0-1.644-.3c-1.733,0-2.971.94-2.971,2.3,0,1.011.871,1.556,1.535,1.89s.911.566.911.869c0,.465-.545.667-1.05.677a3.566,3.566,0,0,1-1.8-.435L17.9,22.271a5.262,5.262,0,0,0,1.981.364c1.842,0,3.04-.93,3.05-2.385M27.5,22.524h1.614l-1.406-6.963H26.226a.812.812,0,0,0-.753.515l-2.624,6.447h1.842l.357-1.011H27.3Zm-1.981-2.466.931-2.607.555,2.6Zm-7.368-4.5-1.446,6.963H14.986l1.446-6.963Z" transform="translate(-2.649 -8.376)" fill="#122a96"/>
  </g>
</svg>
