<svg xmlns="http://www.w3.org/2000/svg" width="36" height="36" viewBox="0 0 36 36">
  <g id="Group_22656" data-name="Group 22656" transform="translate(-188.047 -738.047)">
    <rect id="Rectangle_18330" data-name="Rectangle 18330" width="36" height="36" rx="10" transform="translate(188.047 738.047)" fill="#24d366"/>
    <g id="Group_22278" data-name="Group 22278" transform="translate(197.384 747.356)">
      <path id="Path_1727" data-name="Path 1727" d="M116.011,133.489l.879-4.081a8.663,8.663,0,1,1,3.139,2.951Z" transform="translate(-115.543 -116.107)" fill="#25d366" stroke="#fff" stroke-width="1.5"/>
      <path id="Path_1728" data-name="Path 1728" d="M191.374,185.559c-.181-.12-.361-.181-.542.06l-.722.963a.448.448,0,0,1-.542.06,6.99,6.99,0,0,1-3.25-2.828.455.455,0,0,1,.181-.481l.542-.843c.12-.12.06-.241,0-.361l-.722-1.745c-.181-.481-.361-.421-.542-.421H185.3a.914.914,0,0,0-.6.3c-1.324,1.324-.782,3.189.181,4.393a9.221,9.221,0,0,0,3.972,3.551c1.926.843,2.347.722,2.889.6a2.3,2.3,0,0,0,1.625-1.143c.06-.181.361-.963.12-1.083" transform="translate(-179.883 -175.57)" fill="#fff"/>
    </g>
  </g>
</svg>
