<svg xmlns="http://www.w3.org/2000/svg" width="20" height="20" viewBox="0 0 20 20">
  <g id="Group_21863" data-name="Group 21863" transform="translate(-246.54 -572.54)">
    <rect id="Rectangle_18350" data-name="Rectangle 18350" width="20" height="20" transform="translate(246.54 572.54)" fill="none"/>
    <g id="Group_21841" data-name="Group 21841" transform="translate(248.431 574.431)">
      <path id="Fill_1" data-name="Fill 1" d="M0,.6V1.646a.6.6,0,1,0,1.208,0V.6A.6.6,0,0,0,0,.6" transform="translate(7.444 10.173)" fill="#3b3b3b"/>
      <path id="Fill_3" data-name="Fill 3" d="M10.044,10.563a.605.605,0,0,1-.586-.456A1.451,1.451,0,0,0,8.044,9.018,1.471,1.471,0,0,0,6.611,10.11a.6.6,0,0,1-.58.445.626.626,0,0,1-.086-.006A13.831,13.831,0,0,1,.271,8.441.6.6,0,0,1,0,7.936V5.145A3.073,3.073,0,0,1,3.073,2.078H4.658A2.383,2.383,0,0,1,7.009,0H9.088a2.381,2.381,0,0,1,2.351,2.078h1.592A3.069,3.069,0,0,1,16.1,5.145V7.936a.606.606,0,0,1-.27.5,13.823,13.823,0,0,1-5.7,2.117A.62.62,0,0,1,10.044,10.563Zm-2-2.752a2.648,2.648,0,0,1,2.391,1.475,12.671,12.671,0,0,0,4.453-1.68V5.145a1.86,1.86,0,0,0-1.857-1.859H3.073A1.864,1.864,0,0,0,1.208,5.145V7.606A12.657,12.657,0,0,0,5.645,9.279,2.686,2.686,0,0,1,8.044,7.811Zm-1.036-6.6a1.176,1.176,0,0,0-1.13.87h4.338a1.174,1.174,0,0,0-1.129-.87Z" fill="#3b3b3b"/>
      <path id="Fill_6" data-name="Fill 6" d="M15.451,0a.6.6,0,0,0-.593.556s-.124,1.408-.15,1.853A2.5,2.5,0,0,1,14.2,3.772a1.788,1.788,0,0,1-1.556.663c-1,0-8.237,0-9.233,0a1.788,1.788,0,0,1-1.556-.663,2.5,2.5,0,0,1-.508-1.362C1.319,1.964,1.195.556,1.195.556A.6.6,0,0,0,0,.6C0,.62.114,2.043.14,2.481A3.674,3.674,0,0,0,.924,4.542a3,3,0,0,0,2.485,1.1l4.618,0,4.619,0a3,3,0,0,0,2.484-1.1,3.679,3.679,0,0,0,.784-2.062c.026-.438.139-1.861.139-1.879a.6.6,0,0,0-.6-.6" transform="translate(0.046 10.572)" fill="#3b3b3b"/>
    </g>
  </g>
</svg>
