<svg xmlns="http://www.w3.org/2000/svg" width="35" height="35" viewBox="0 0 35 35">
  <g id="Group_94673" data-name="Group 94673" transform="translate(-311 -20.513)">
    <path id="Rectangle_26771" data-name="Rectangle 26771" d="M-574.079,468.553h0a17.5,17.5,0,0,1,17.5,17.5h0a17.5,17.5,0,0,1-17.5,17.5h0a17.5,17.5,0,0,1-17.5-17.5h0A17.5,17.5,0,0,1-574.079,468.553Z" transform="translate(902.579 -448.04)" fill="#e0a387" opacity="0.115"/>
    <g id="place" transform="translate(262.492 29.513)">
      <g id="Group_94733" data-name="Group 94733" transform="translate(60)">
        <path id="Path_123736" data-name="Path 123736" d="M66.508,0a6.505,6.505,0,0,0-5.185,10.441L66.225,17h.565l4.9-6.559A6.508,6.508,0,0,0,66.508,0Zm0,8.666a2.158,2.158,0,1,1,2.158-2.158A2.161,2.161,0,0,1,66.508,8.666Z" transform="translate(-60)" fill="#e0a387"/>
      </g>
    </g>
  </g>
</svg>
