<svg xmlns="http://www.w3.org/2000/svg" xmlns:xlink="http://www.w3.org/1999/xlink" width="681.869" height="992.19" viewBox="0 0 681.869 992.19">
  <defs>
    <linearGradient id="linear-gradient" x1="1.089" y1="0.198" x2="1.089" y2="1.431" gradientUnits="objectBoundingBox">
      <stop offset="0" stop-color="#ffe97a"/>
      <stop offset="1" stop-color="#61001c"/>
    </linearGradient>
  </defs>
  <g id="Group_86017" data-name="Group 86017" transform="translate(155.369 128.275)">
    <g id="Group_748" data-name="Group 748">
      <g id="Group_11" data-name="Group 11" transform="matrix(0.259, -0.966, 0.966, 0.259, 280.407, 788.836)">
        <g id="Group_8" data-name="Group 8" transform="translate(28.429)">
          <path id="Path_6" data-name="Path 6" d="M36.361,5.035,2.449,23.458S-8.532,17.428,16.012,4.387C35.278-5.848,36.361,5.035,36.361,5.035Z" transform="translate(0.389)" fill="#ed914c"/>
          <path id="Path_7" data-name="Path 7" d="M25.543,2.555,1.13,16.112s-6.4-2.795,11.241-12.434C26.21-3.882,25.543,2.555,25.543,2.555Z" transform="translate(4.599 2.871)" fill="#ffae55"/>
          <path id="Path_8" data-name="Path 8" d="M0,19.29,33.436,0S44.556,5.758,20.35,19.422C1.348,30.147,0,19.29,0,19.29Z" transform="translate(5.541 8.932)" fill="#ffae55"/>
          <path id="Path_9" data-name="Path 9" d="M20.342,12.941a129.435,129.435,0,0,1,14.337-4.9C38.224,2.481,33.436,0,33.436,0L0,19.29a5.753,5.753,0,0,0,1.661,3.1C5.541,19.668,12.341,16.168,20.342,12.941Z" transform="translate(5.541 8.932)" fill="#ed914c"/>
          <path id="Path_10" data-name="Path 10" d="M.314,22.25C1.326,24.1,3.416,24.9,21.14,15.056S39.306,3,38.29,1.149,35.187-1.5,17.466,8.338-.7,20.395.314,22.25Z" transform="translate(2.05 4.725)" fill="#723828"/>
          <path id="Path_11" data-name="Path 11" d="M44.72.582,39.733,0,29.68,6.648l-7.171,3.41-5.5,3.073L2.823,19.8,0,26.1l9.958-6.458,7.3-2.946L23.8,12.7,35.384,9.843,38.508,3.7Z" transform="translate(0 7.8)" fill="#d6cb41"/>
          <path id="Path_12" data-name="Path 12" d="M.075,15.642c.386,1.059,1.652,1.413,14.993-5.614S29.044,1.644,28.656.584,27-.832,13.667,6.193-.313,14.582.075,15.642Z" transform="translate(7.947 6.212)" fill="#894631"/>
          <path id="Path_13" data-name="Path 13" d="M13.311,1.459A32.9,32.9,0,0,1,8.224,5.424C6.383,6.353,0,8.612,0,8.612S3.171.569,4.5.082,13.311,1.459,13.311,1.459Z" transform="translate(13.407 7.427)" fill="#ed914c"/>
          <path id="Path_14" data-name="Path 14" d="M13.309,1.46A32.962,32.962,0,0,1,8.222,5.425C6.382,6.352,0,8.612,0,8.612S3.169.571,4.5.082,13.309,1.46,13.309,1.46Z" transform="translate(13.922 8.068)" fill="#ffd13e"/>
        </g>
        <g id="Group_10" data-name="Group 10" transform="translate(0 4.104)">
          <g id="Group_9" data-name="Group 9" transform="translate(16.243)">
            <path id="Path_15" data-name="Path 15" d="M28.1.8c-.03,2.46,1.636,24.125-11.38,25.444C8.8,27.047,2.634,31.255,0,34.906L4.066,20.472C7.617,16.7,8.892,8.235,10.343,7.334S28.146-2.713,28.1.8Z" transform="translate(0 6.931)" fill="#ffdeb3"/>
            <path id="Path_16" data-name="Path 16" d="M1.375,12.863C2.255,8.115-1.5.307.7.035c3.423-.428,3.937,3.12,6.21,10.341S1.375,12.863,1.375,12.863Z" transform="translate(8.666 8.821)" fill="#ffdeb3"/>
            <path id="Path_17" data-name="Path 17" d="M0,10.309C1.218,5.651,1.757-.013,3.982,0,9.054.026,6.409,5.2,5.431,10.08,3.958,17.466,0,10.309,0,10.309Z" transform="translate(22.082)" fill="#ffdeb3"/>
            <path id="Path_18" data-name="Path 18" d="M11.694,0c.778,4.042.1,8.173,2.941,9.051,4.816,1.5-8.093,4.95-12.6,4.775C-5.848,13.506,11.694,0,11.694,0Z" transform="translate(12.298 19.484)" fill="#ffdeb3"/>
            <path id="Path_19" data-name="Path 19" d="M0,10.764C.583,5.99.355.3,2.553.045c5.026-.6,3.1,4.865,2.8,9.82C4.88,17.375,0,10.764,0,10.764Z" transform="translate(15.052 4.956)" fill="#ffdeb3"/>
          </g>
          <path id="Path_20" data-name="Path 20" d="M0,4.468,3.326,0,9.464,5.389,6.481,11.295Z" transform="translate(16.576 29.595)" fill="#b4c2cc"/>
          <path id="Path_21" data-name="Path 21" d="M113.606,156.875C-7.612,124.593,16.042,16.969,26.1,8.135L16.614,0C-49.465,121.65,102.9,188.93,102.9,188.93Z" transform="translate(0 31.301)" fill="#434e5b"/>
          <path id="Path_22" data-name="Path 22" d="M106.481,178.224C81.335,165.522-25.645,104.327,19.876,2.8L16.614,0C-49.465,121.65,102.9,188.93,102.9,188.93Z" transform="translate(0 31.301)" fill="#323e49"/>
          <path id="Path_23" data-name="Path 23" d="M2.733,4.681A2.321,2.321,0,0,0,4.522,1.929,2.324,2.324,0,0,0,1.834.041,2.323,2.323,0,0,0,.045,2.8,2.322,2.322,0,0,0,2.733,4.681Z" transform="translate(15.712 40.369)" fill="#83919e"/>
        </g>
      </g>
      <g id="Group_17" data-name="Group 17" transform="matrix(0.966, 0.259, -0.259, 0.966, -113.566, 650.216)">
        <g id="Group_14" data-name="Group 14" transform="translate(239.859)">
          <g id="Group_13" data-name="Group 13" transform="translate(0)">
            <path id="Path_24" data-name="Path 24" d="M14.106,7.151,4.868,1.067,4.407,0,4.335.715,3.789.356l-.165.881L3.129.8l.329,1.319L0,20.589l1.281.3L4.809,4.1l.3.418-.034-.624,7.554,5.945Z" transform="translate(18.343)" fill="#e85223"/>
            <g id="Group_12" data-name="Group 12" transform="translate(19.245 1.822)">
              <path id="Path_25" data-name="Path 25" d="M0,4.857,1.229,5.93,2.323.724.91,0Z" transform="translate(0 9.088)" fill="#ff933b"/>
              <path id="Path_26" data-name="Path 26" d="M0,3.71l1.357,1.4.711-3.379L.695,0Z" transform="translate(1.61 1.644)" fill="#ff933b"/>
              <path id="Path_27" data-name="Path 27" d="M0,0,.115,2.9l3.15,2.479L4.2,2.769Z" transform="translate(5.112)" fill="#ff933b"/>
            </g>
            <path id="Path_28" data-name="Path 28" d="M0,0S13.735,11.446,26.935,1.557Z" transform="translate(0.523 25.61)" fill="#84471e"/>
            <path id="Path_29" data-name="Path 29" d="M0,0,4.234,41.166,20.786,40.2,22.34.517Z" transform="translate(3.046 23.426)" fill="#e84b31"/>
            <path id="Path_30" data-name="Path 30" d="M0,1.321C.974,19.886,3.017,37,6.719,36.89c4.544-.131,5.572-20.5,5.829-36.89Z" transform="translate(11.954 25.306)" fill="#f46438"/>
            <path id="Path_31" data-name="Path 31" d="M22.112,5.58.837,7.14,0,0,22.263,1.371Z" transform="translate(3.02 24.193)" fill="#d63f2b"/>
            <path id="Path_32" data-name="Path 32" d="M.262,4.718,0,0,24.271,2.592,24.356,6.2Z" transform="translate(1.63 16.635)" fill="#f4c871"/>
            <path id="Path_33" data-name="Path 33" d="M.524,4.881,0,.168,27.6,0l-.143,6.439Z" transform="translate(0 20.728)" fill="#f4c871"/>
            <path id="Path_34" data-name="Path 34" d="M17.874,0,0,.512.111,1.68l17.764-.6Z" transform="translate(6.572 63.038)" fill="#ff8878"/>
            <path id="Path_35" data-name="Path 35" d="M23.359,3.452l-.03-1.229L1.438,0l.921,3.5L0,3.986.39,6.943,24.785,8.07l.087-4.617Z" transform="translate(1.473 17.591)" fill="#ffe888"/>
            <path id="Path_36" data-name="Path 36" d="M14.3,0,0,.985l.412.382L15.241.924Z" transform="translate(10.589 20.128)" fill="#f4c871"/>
            <path id="Path_37" data-name="Path 37" d="M0,.256,10.858,0l.272,4.915L.317,4Z" transform="translate(1.025 20.975)" fill="#f4c871"/>
            <path id="Path_38" data-name="Path 38" d="M0,0,.481,3.657,3.1,3.641,3.265.186Z" transform="translate(2.563 17.52)" fill="#ffdc7b"/>
          </g>
        </g>
        <g id="Group_16" data-name="Group 16" transform="translate(0 35.817)">
          <path id="Path_39" data-name="Path 39" d="M216.723,30.615C181.309,50.573,133.46,12.1,112.54,3.813,85.278-6.985,55.262,5.269,25.1,39.057c0,0-60.8,104.34,6.861,33.488,64.5-67.538,67.668-48.033,130.309-24.5,26.854,10.087,46.7,2.078,60.618-10.357A61.678,61.678,0,0,1,216.723,30.615Z" transform="translate(0 28.49)" fill="#6b3c34"/>
          <path id="Path_40" data-name="Path 40" d="M164.425,24.9C102.962-1.54,100.706-21.175,33.109,43.255,17.2,58.422,8.174,65.061,3.729,66.273-3.655,84.447-2.8,94.287,31.959,57.888c64.5-67.538,67.668-48.033,130.309-24.5,26.854,10.087,46.7,2.078,60.618-10.357-.7-.689-1.383-1.45-2.06-2.188C206.769,30.414,188.082,35.084,164.425,24.9Z" transform="translate(0.003 43.148)" fill="#512822"/>
          <path id="Path_41" data-name="Path 41" d="M27.909,0C20.508,19.416,10.83,30.872,0,36.9c.361,3.881.54,7.764.525,11.62C23.257,32.371,32.941,2.808,32.941,2.808Z" transform="translate(216.506 22.341)" fill="#ffdeb3"/>
          <path id="Path_42" data-name="Path 42" d="M0,43.536c.013.919.057,1.844.055,2.765C22.786,30.156,32.471.593,32.471.593L31.407,0C28.865,6.724,19.084,29.8,0,43.536Z" transform="translate(216.976 24.556)" fill="#f9ad8f"/>
          <path id="Path_43" data-name="Path 43" d="M1.458,11.572,0,1.729,5.319,0,8.664,8.666Z" transform="translate(205.274 62.154)" fill="#512822"/>
          <path id="Path_44" data-name="Path 44" d="M11.679,4.258,4.9,0,0,3.563,5.6,9.792Z" transform="translate(216.915 55.335)" fill="#f9ad8f"/>
          <path id="Path_45" data-name="Path 45" d="M.081,6.955c-.872.366,5.557,16.351,6.775,15.832,5.218-1.561,8.44-5.366,13.616-10.239C19.093,6.975,17.4,3.161,12.9,0A27.622,27.622,0,0,0,.081,6.955Z" transform="translate(205.482 54.6)" fill="#9e655e"/>
          <path id="Path_46" data-name="Path 46" d="M7.676,6.807A13.923,13.923,0,0,1,0,7.828C1.586,12.553,5.224,20.9,6.11,20.52c5.218-1.561,8.44-5.366,13.616-10.239C18.66,5.971,17.391,2.717,14.793,0A13.14,13.14,0,0,1,7.676,6.807Z" transform="translate(206.229 56.867)" fill="#844742"/>
          <g id="Group_15" data-name="Group 15" transform="translate(239.746)">
            <path id="Path_47" data-name="Path 47" d="M22.839.051C20.721.789,1.6,5.743,3.533,16.555,4.714,23.133,2.531,29.3,0,32.469L11.518,25.02c2.427-3.945,9.439-7.419,9.879-8.845S25.874-1,22.839.051Z" transform="translate(0 2.396)" fill="#ffdeb3"/>
            <path id="Path_48" data-name="Path 48" d="M2.4,5.412C6.3,3.322,13.942,4.073,13.661,2.224,13.221-.642,10.026-.022,3.248.252S2.4,5.412,2.4,5.412Z" transform="translate(12.642 15.557)" fill="#ffdeb3"/>
            <path id="Path_49" data-name="Path 49" d="M3.519,8.021c3.735-2.328,8.507-4.411,7.965-6.19C10.264-2.218,6.413,1.4,2.429,3.6-3.613,6.924,3.519,8.021,3.519,8.021Z" transform="translate(18.524)" fill="#ffdeb3"/>
            <path id="Path_50" data-name="Path 50" d="M10.5.364C6.816.912,3.41,2.66,1.977.638-.464-2.792-.391,8.558.83,12.113,2.964,18.345,10.5.364,10.5.364Z" transform="translate(3.155 8.787)" fill="#ffdeb3"/>
            <path id="Path_51" data-name="Path 51" d="M3.207,7.261c3.987-1.855,8.96-3.328,8.664-5.163-.673-4.2-4.94-1.074-9.158.609C-3.666,5.262,3.207,7.261,3.207,7.261Z" transform="translate(15.816 7.964)" fill="#ffdeb3"/>
          </g>
        </g>
      </g>
      <g id="Group_22" data-name="Group 22" transform="translate(-128.952 -102.79)">
        <g id="Group_19" data-name="Group 19" transform="translate(174.603 174.741)">
          <g id="Group_18" data-name="Group 18" transform="translate(0 0)">
            <path id="Path_52" data-name="Path 52" d="M229.794,168.076l-1.653,2.239s-19.28-1.2-22.92-31.944c-1.114-9.417-4.025-19.615-8.047-23.1,0,0,17.549-11.684,29.819-9.868,2.888,11.158.674,16.039-.052,22.561C225.579,140.2,213.308,162.871,229.794,168.076Z" transform="translate(-194.762 -100.819)" fill="#d66b22"/>
            <path id="Path_53" data-name="Path 53" d="M230.367,168.183c-6.314-.636-20.4-8.131-22.807-28.438-1.115-9.417-3.3-22.9-7.324-26.386,0,0,15.119-9.781,27.389-7.964,2.888,11.158.162,16.01-.052,22.561C227.065,143.507,215.443,157.466,230.367,168.183Z" transform="translate(-195.394 -100.81)" fill="#e59a48"/>
            <path id="Path_54" data-name="Path 54" d="M222.336,155.964c-8.923-7.193,2.605-11.861,2.605-11.861a2.037,2.037,0,0,0,.421-2.7c-1.04-1.447-1.471-8.976,1.9-9.385s2.112-10.641,2.112-10.641c-7.211-9.989.22-6.335.22-6.335l-.179-1.514s-7.7-4.591-10.5,1.941-3.51.119-9.031.511-8.877,5.12-8.877,5.12l.98,1.952s1.363-3.158,5.768,4.29-.021,10.033-.021,10.033l.406,2c.986-.306,4.278-.259,6.34,6.381s-4.369,9.258-4.369,9.258l.847,1.542c2.487-2.286,8.56.254,11.6,1.788Z" transform="translate(-195.554 -102.212)" fill="#ffda40"/>
            <path id="Path_55" data-name="Path 55" d="M229.514,108.463c-4.022.548-23.9,4.277-29.922,10.154-1.954,1.906-6.953-.625-5.022-5.6s21.667-17.541,34.056-11.469C234.193,104.272,229.514,108.463,229.514,108.463Z" transform="translate(-194.134 -99.726)" fill="#d66b22"/>
            <path id="Path_56" data-name="Path 56" d="M230.384,107.937c-3.644.242-21.713,2.362-27.482,7.274-1.87,1.594-6.2-.994-4.163-5.353s20.525-14.433,31.272-8.2C234.841,104.458,230.384,107.937,230.384,107.937Z" transform="translate(-194.975 -99.676)" fill="#f9b23e"/>
            <path id="Path_57" data-name="Path 57" d="M232.865,126.984c-.564,3.035-9.929,1.743-8.883-5.559S234.866,116.23,232.865,126.984Z" transform="translate(-200.279 -103.279)" fill="#b7371d"/>
            <path id="Path_58" data-name="Path 58" d="M233.445,126.728c-.564,3.035-9.928,1.743-8.883-5.558S235.446,115.973,233.445,126.728Z" transform="translate(-200.399 -103.227)" fill="#ce4c36"/>
            <path id="Path_59" data-name="Path 59" d="M214.538,166.234c-3.326.384-3.246,4.164-8.208,3.013-2.135-.494-1.151-2.642.886-2.153,2.681.642,2.582-1.206,6.362-2.644Z" transform="translate(-196.405 -113.048)" fill="#ffda40"/>
            <path id="Path_60" data-name="Path 60" d="M226.827,167.118c.486-.255,1.636.5,1.975,1.173a1.238,1.238,0,0,1-.267,1.673c-.486.256-1.155-.079-1.494-.749S226.34,167.373,226.827,167.118Z" transform="translate(-200.835 -113.589)" fill="#ffda40"/>
            <path id="Path_61" data-name="Path 61" d="M209.387,145.984c-2.121.862-4.061-1.327-.565-2.094S209.387,145.984,209.387,145.984Z" transform="translate(-196.77 -108.777)" fill="#ffda40"/>
            <path id="Path_62" data-name="Path 62" d="M227.362,141.287c-3.066-1.484-3.1-8.27.59-6.406S228.617,141.894,227.362,141.287Z" transform="translate(-200.531 -106.878)" fill="#e59a48"/>
            <path id="Path_63" data-name="Path 63" d="M224.85,152.725c.06-2.21,3.066-4.644,3.992-3.672C230.714,151.019,224.807,154.277,224.85,152.725Z" transform="translate(-200.475 -109.824)" fill="#e59a48"/>
            <path id="Path_64" data-name="Path 64" d="M223.3,136.143c-.3-.6-.148-2.327.453-2.52C227.256,132.5,223.516,136.573,223.3,136.143Z" transform="translate(-200.125 -106.644)" fill="#e59a48"/>
            <path id="Path_65" data-name="Path 65" d="M215.932,145.123c1.451-1.7,2.674-2.748,3.565-.786,3.877,8.534-6.237,10.385-7.357,7.57-.183-.462.437-2.151,1.4-3.921C210.81,146.028,208.79,138.179,215.932,145.123Z" transform="translate(-197.623 -108.477)" fill="#c18c46"/>
            <path id="Path_66" data-name="Path 66" d="M216.528,144.116c1.45-1.7,3-2.535,3.89-.573,3.877,8.535-6.237,10.385-7.356,7.57-.183-.462.436-2.151,1.4-3.921C211.732,145.234,209.386,137.173,216.528,144.116Z" transform="translate(-197.78 -108.279)" fill="#f2aa5c"/>
            <path id="Path_67" data-name="Path 67" d="M215.887,130.762c2.556-3.136-2.8-11.7-7.267-9.605C202.686,123.947,208.811,139.448,215.887,130.762Z" transform="translate(-196.631 -104.043)" fill="#e25423"/>
            <path id="Path_68" data-name="Path 68" d="M216.015,130.161c2.2-2.7-2.416-10.085-6.263-8.278C204.636,124.287,209.917,137.648,216.015,130.161Z" transform="translate(-196.933 -104.202)" fill="#ff8d4d"/>
            <path id="Path_69" data-name="Path 69" d="M216.985,166.7c2.906.751,4.2,4.8,5.343,7.186s9.143,7.7,11.145,7.693.9-.779-1.288-2.239-5.723-8.952-6.187-10.705S216.985,166.7,216.985,166.7Z" transform="translate(-198.852 -113.512)" fill="#ffda40"/>
            <path id="Path_70" data-name="Path 70" d="M224.306,169.41l-1.263.454-2.132-4.884,2.151.7Z" transform="translate(-199.662 -113.158)" fill="#9ba336"/>
            <path id="Path_71" data-name="Path 71" d="M222.784,131.331l-1.308.447-.429-4.2,1.765.533Z" transform="translate(-199.69 -105.436)" fill="#9ba336"/>
            <path id="Path_72" data-name="Path 72" d="M211,148.4l-.922.563-1.038-3.11,1.436.1Z" transform="translate(-197.212 -109.209)" fill="#8c8e29"/>
            <path id="Path_73" data-name="Path 73" d="M230.071,143.495l-1.344.064.023-3.9,1.693.939Z" transform="translate(-201.276 -107.93)" fill="#8c8e29"/>
            <path id="Path_74" data-name="Path 74" d="M231.337,181.545c-1.566.029-5.712.5-7.9-6.57Z" transform="translate(-200.184 -115.221)" fill="#ffda40"/>
            <path id="Path_75" data-name="Path 75" d="M230.006,179.6c-3.185-.625-6.287-6.091-3.487-4.122S232.322,180.05,230.006,179.6Z" transform="translate(-200.594 -115.236)" fill="#e59a48"/>
            <path id="Path_76" data-name="Path 76" d="M229.023,151.829l-1.418,8.158a4.836,4.836,0,0,1-4.27-6.083C224.133,150.476,227.18,149.929,229.023,151.829Z" transform="translate(-200.129 -110.219)" fill="#b7371d"/>
            <path id="Path_77" data-name="Path 77" d="M229.707,151.9l-1.418,8.157a4.837,4.837,0,0,1-4.271-6.083C224.817,150.545,227.863,150,229.707,151.9Z" transform="translate(-200.27 -110.234)" fill="#ce4c36"/>
            <path id="Path_78" data-name="Path 78" d="M215.635,130.4c.488-.744-7.386-3.05-7.482-3.351S210.515,138.215,215.635,130.4Z" transform="translate(-197.028 -105.327)" fill="#e25423"/>
            <path id="Path_79" data-name="Path 79" d="M215.784,127.473c.53,1.392-7.262-2.662-7.353-2.539S212.267,118.232,215.784,127.473Z" transform="translate(-197.085 -104.413)" fill="#e25423"/>
            <path id="Path_80" data-name="Path 80" d="M215.69,131.819c-.542.513-1.07-1.511-1.07-1.511S216.263,131.276,215.69,131.819Z" transform="translate(-198.363 -106)" fill="#ff8d4d"/>
            <path id="Path_81" data-name="Path 81" d="M213.663,132.6c-.7.23-.306-1.838-.306-1.838S214.41,132.36,213.663,132.6Z" transform="translate(-198.08 -106.095)" fill="#ff8d4d"/>
            <path id="Path_82" data-name="Path 82" d="M211.452,131.969c-.729-.1.517-1.8.517-1.8S212.225,132.069,211.452,131.969Z" transform="translate(-197.662 -105.971)" fill="#ff8d4d"/>
            <path id="Path_83" data-name="Path 83" d="M209.5,129.5c-.217-.683,1.789-.334,1.789-.334S209.732,130.227,209.5,129.5Z" transform="translate(-197.303 -105.746)" fill="#ff8d4d"/>
            <path id="Path_84" data-name="Path 84" d="M210.2,124.415c.426-.587,1.29,1.262,1.29,1.262S209.751,125.036,210.2,124.415Z" transform="translate(-197.436 -104.759)" fill="#ff8d4d"/>
            <path id="Path_85" data-name="Path 85" d="M212.777,123.613c.7-.171.14,1.815.14,1.815S212.036,123.793,212.777,123.613Z" transform="translate(-197.922 -104.616)" fill="#ff8d4d"/>
            <path id="Path_86" data-name="Path 86" d="M214.825,124.664c.635.167-.673,1.538-.673,1.538S214.152,124.486,214.825,124.664Z" transform="translate(-198.267 -104.832)" fill="#ff8d4d"/>
            <path id="Path_87" data-name="Path 87" d="M216.175,126.989c.236.526-1.393.421-1.393.421S215.924,126.433,216.175,126.989Z" transform="translate(-198.397 -105.279)" fill="#ff8d4d"/>
            <path id="Path_88" data-name="Path 88" d="M227.383,127.836c1.213-.775,2.605-9.331,1.34-11.052s-1.516-.49-1.459.135,1.751,10.867-3.14,9.225C224.123,126.144,226.432,128.444,227.383,127.836Z" transform="translate(-200.325 -103.026)" fill="#ffda40"/>
            <path id="Path_89" data-name="Path 89" d="M225.059,162.13c1.286-.688,5.452-10.034,4.571-12.144-1.019-2.436-1.19.548-1.283,1.365-.089.786-.178,9.555-4.892,8.671C223.454,160.022,224.044,162.672,225.059,162.13Z" transform="translate(-200.187 -109.869)" fill="#ffda40"/>
            <path id="Path_90" data-name="Path 90" d="M227.544,123.42c-.843-1.29-2.935-3.807-4.3-2.917l.988-1.837s3.461,4.56,3.888,1.408C228.123,120.074,228.449,123.115,227.544,123.42Z" transform="translate(-200.144 -103.596)" fill="#ffda40"/>
            <path id="Path_91" data-name="Path 91" d="M227.068,158.219c-1.313-.784-3.036-.974-4.776,1.161l-.106-3.473s5.4,3.689,5.964-1.728C228.149,154.179,228.26,157.128,227.068,158.219Z" transform="translate(-199.925 -110.928)" fill="#ffda40"/>
            <path id="Path_92" data-name="Path 92" d="M232.188,130.195c-.052-1.546-.135-5.211-2.839-5.471l.917-4.75s1.768,11.362,4.757,7.274C235.023,127.248,233.733,130.581,232.188,130.195Z" transform="translate(-201.404 -103.866)" fill="#ffda40"/>
            <path id="Path_93" data-name="Path 93" d="M214.691,149.029c1.829.05,2.918-2.37-.221-.69Z" transform="translate(-198.332 -109.6)" fill="#c18c46"/>
            <path id="Path_94" data-name="Path 94" d="M217.515,144.6c-.24,1.2,1.213,2.145.474-.082Z" transform="translate(-198.955 -108.934)" fill="#d89f5b"/>
            <path id="Path_95" data-name="Path 95" d="M220.228,151.134c-1.113,2.358-8.951,2.706-4.586-1.486C219.232,146.2,221.1,149.277,220.228,151.134Z" transform="translate(-198.304 -109.67)" fill="#ffcb64"/>
            <path id="Path_96" data-name="Path 96" d="M221.09,150.375c1.121-1.823.008-9.838-2.289-4.354C218.057,150,220.206,151.81,221.09,150.375Z" transform="translate(-199.195 -108.854)" fill="#ffcb64"/>
            <path id="Path_97" data-name="Path 97" d="M211.013,115.021c2.753-2.362,4.031-3.3,8.052-2.362Z" transform="translate(-197.619 -102.282)" fill="#d66b22"/>
            <path id="Path_98" data-name="Path 98" d="M201.225,120.39c2.362-2.758,3.484-3.877,7.61-3.585Z" transform="translate(-195.598 -103.203)" fill="#d66b22"/>
            <path id="Path_99" data-name="Path 99" d="M226.833,111.65c2.947-2.112,4.3-2.928,8.217-1.639Z" transform="translate(-200.885 -101.682)" fill="#d66b22"/>
            <path id="Path_100" data-name="Path 100" d="M233.376,103.474c-3.387-5.944-26.806.805-20.77,3.294,2.832,1.167,8.547-.269,13.052-.829C230.755,105.307,234.451,105.361,233.376,103.474Z" transform="translate(-197.743 -99.968)" fill="#ffcf4a"/>
            <path id="Path_101" data-name="Path 101" d="M204.441,112.928c4.764-3.615,1.914-4.6-1.563-3.1C198.853,111.57,199.545,116.643,204.441,112.928Z" transform="translate(-195.399 -101.632)" fill="#ffcf4a"/>
          </g>
          <path id="Path_102" data-name="Path 102" d="M229.171,101.657c2.233,1.294,2.479,2.734,2.1,3.907a6.3,6.3,0,0,1-1.758,2.848c-.5.068-1.252.186-2.193.352.113.7.206,1.369.277,2.012.253.13.4.217.4.217l.179,1.514s-.174-.086-.442-.194a33.366,33.366,0,0,1-.143,6.014c.121.171.235.336.365.516,0,0,1.188,9.643-1.829,10.58a68.092,68.092,0,0,1-1.97,9.826,2.043,2.043,0,0,1-.542,2.227,13.731,13.731,0,0,1-.331,1.509l-1.132,6.513c-.11-.013-.223-.033-.336-.055a25.636,25.636,0,0,0-.286,4.269,2.282,2.282,0,0,1,.571.667,1.238,1.238,0,0,1-.267,1.673.615.615,0,0,1-.093.033c1.135,2.779,3.9,8.2,5.725,9.418,2.185,1.459,3.29,2.231,1.288,2.239a1.587,1.587,0,0,1-.176-.013l-1.066,1.445s-11.242-.7-18.178-14.721a4.936,4.936,0,0,1-5.276,1.423c-2.135-.494-1.151-2.642.886-2.153,1.743.417,2.316-.22,3.538-1.11a54.994,54.994,0,0,1-3.891-15.383c-.023-.194-.048-.389-.072-.583a.7.7,0,0,1-.124-.937,64.738,64.738,0,0,0-3.822-15.2l0,.008-.98-1.952c-1.954,1.906-6.953-.625-5.022-5.6.552-1.426,2.57-3.473,5.453-5.528C205.621,102.708,220.132,96.416,229.171,101.657Z" transform="translate(-194.134 -99.676)" opacity="0.7" fill="url(#linear-gradient)" style="mix-blend-mode: overlay;isolation: isolate"/>
        </g>
        <g id="Group_21" data-name="Group 21" transform="translate(0 0)">
          <g id="Group_20" data-name="Group 20" transform="translate(168.862 159.68)">
            <path id="Path_103" data-name="Path 103" d="M204.475,121.432c.617-2.346,7.836-22.448-3.88-27.555-7.124-3.108-11.736-8.932-13.221-13.18l-.018,14.925c2.307,4.642,1.267,13.061,2.378,14.346S203.6,124.787,204.475,121.432Z" transform="translate(-186.993 -80.697)" fill="#ffdeb3"/>
            <path id="Path_104" data-name="Path 104" d="M191.306,108.487c-.426,4.773-5.955,11.086-3.983,12,3.054,1.419,4.465-1.8,8.462-7.993S191.306,108.487,191.306,108.487Z" transform="translate(-186.899 -86.357)" fill="#ffdeb3"/>
            <path id="Path_105" data-name="Path 105" d="M202.672,126.167c-.093,4.791-1.069,10.334.988,10.98,4.709,1.474,3.612-4.224,3.988-9.152C208.22,120.532,202.672,126.167,202.672,126.167Z" transform="translate(-190.091 -89.663)" fill="#ffdeb3"/>
            <path id="Path_106" data-name="Path 106" d="M206.025,112.213c1.783-3.608,2.235-7.736,5.1-7.736,4.857,0-6.2-7.094-10.423-8.262C193.311,94.182,206.025,112.213,206.025,112.213Z" transform="translate(-189.272 -83.868)" fill="#ffdeb3"/>
            <path id="Path_107" data-name="Path 107" d="M195.976,117.183c-.706,4.714-2.407,10.055-.438,10.945,4.5,2.06,4.148-3.7,5.164-8.5C202.235,112.345,195.976,117.183,195.976,117.183Z" transform="translate(-188.493 -87.904)" fill="#ffdeb3"/>
          </g>
          <path id="Path_108" data-name="Path 108" d="M141.844,53l12.6-4.14c-11.057-36.745-24.576-64.609-64.691-80.552C32.819-54.324-13.934-69.377,3.5-115.591l-23.006-4.934S-40.784-89.913-5.66-53.805C36.836-10.123,115.778-29.061,141.844,53Z" transform="translate(25.893 120.525)" fill="#6d5752"/>
          <path id="Path_109" data-name="Path 109" d="M-25.308-103.648a32.048,32.048,0,0,1,2.762-5.312L.463-104.029c-17.432,46.215,29.318,61.271,86.25,83.9,36.565,14.535,51.031,38.972,61.68,71.017l6.168-2.028C143.5,12.118,129.985-15.746,89.87-31.689,32.94-54.324-13.813-69.377,3.619-115.591l-23.006-4.934A42.341,42.341,0,0,0-25.308-103.648Z" transform="translate(25.772 120.525)" fill="#594340"/>
          <path id="Path_110" data-name="Path 110" d="M185.9,66.854l-8.028,8.837L180,84.957l9.665-5.112Z" transform="translate(-16.174 81.841)" fill="#594340"/>
          <path id="Path_111" data-name="Path 111" d="M182.856,94.317l13.928-4.156-2.09-16.422-17.927,8.082Z" transform="translate(-15.946 80.42)" fill="#d3b48d"/>
          <path id="Path_112" data-name="Path 112" d="M188.648,88.225a12.137,12.137,0,0,1,.648,4.395l8.239-2.458-2.09-16.422L180.4,80.516A11.894,11.894,0,0,1,188.648,88.225Z" transform="translate(-16.697 80.419)" fill="#bc9469"/>
        </g>
      </g>
      <g id="Group_26" data-name="Group 26" transform="matrix(0.966, -0.259, 0.259, 0.966, 256.455, -103.951)">
        <g id="Group_23" data-name="Group 23" transform="translate(0 196.749)">
          <path id="Path_113" data-name="Path 113" d="M.032,7.971,33.225,0s8,7.668-15.958,13.186C-1.535,17.516.032,7.971.032,7.971Z" transform="translate(6.011 10.814)" fill="#ed914c"/>
          <path id="Path_114" data-name="Path 114" d="M.11,5.988,24.071,0S28.9,3.853,11.621,8.047C-1.934,11.336.11,5.988.11,5.988Z" transform="translate(11.669 13.974)" fill="#ffae55"/>
          <path id="Path_115" data-name="Path 115" d="M34.341,6.124,1.357,14.945S-6.824,7.478,16.986,1.351C35.679-3.459,34.341,6.124,34.341,6.124Z" transform="translate(3.676 0)" fill="#ffae55"/>
          <path id="Path_116" data-name="Path 116" d="M15.509,3.793a114.3,114.3,0,0,1-13.371.9c-4.3,3.941-.78,7.156-.78,7.156L34.342,3.028A5.09,5.09,0,0,0,33.634,0,90.138,90.138,0,0,1,15.509,3.793Z" transform="translate(3.676 3.096)" fill="#ed914c"/>
          <path id="Path_117" data-name="Path 117" d="M37.357,1.627C36.915-.19,35.314-1.351,17.915,3S-.365,9.137.078,10.954s2.043,2.979,19.436-1.372S37.8,3.443,37.357,1.627Z" transform="translate(3.091 6.291)" fill="#723828"/>
          <path id="Path_118" data-name="Path 118" d="M0,11.551l4.129,1.641L14.24,9.817l6.906-1.271,5.4-1.366L40.2,4.732,44.051,0,34.064,3.237l-6.913.843-6.5,1.907L10.1,5.78,6.022,10.313Z" transform="translate(0 2.546)" fill="#d6cb41"/>
          <path id="Path_119" data-name="Path 119" d="M27.874.812c-.089-.994-1.088-1.586-14.1,1.361S-.083,6.135.005,7.128,1.1,8.717,14.1,5.77,27.962,1.806,27.874.812Z" transform="translate(6.566 10.185)" fill="#894631"/>
          <path id="Path_120" data-name="Path 120" d="M0,3.061A29.083,29.083,0,0,1,5.255.839C7.039.467,13.01,0,13.01,0s-4.551,6.144-5.8,6.256S0,3.061,0,3.061Z" transform="translate(15.496 14.731)" fill="#ed914c"/>
          <path id="Path_121" data-name="Path 121" d="M0,3.06A29.07,29.07,0,0,1,5.255.839C7.039.468,13.01,0,13.01,0S8.458,6.144,7.21,6.257,0,3.06,0,3.06Z" transform="translate(15.205 14.066)" fill="#ffd13e"/>
        </g>
        <g id="Group_25" data-name="Group 25" transform="translate(21.969 0)">
          <path id="Path_122" data-name="Path 122" d="M0,20.372C28.557,46.948,35.477,75.921,39.09,99.345c8.006,51.9-24.019,100.434-33,102.549l2.951,3.455C112.71,131.388,18.694,0,18.694,0Z" transform="translate(12.828)" fill="#ffdeb3"/>
          <path id="Path_123" data-name="Path 123" d="M13.064,197.741c7.274-7.613,37.2-43.276,30.341-95.337C40.311,78.9,34.032,49.788,6.072,22.585L22.387,5.572C20.1,1.978,18.694,0,18.694,0L0,20.372C28.557,46.948,35.477,75.921,39.09,99.345c8.006,51.9-24.019,100.434-33,102.549l2.951,3.455c.01,0,.013-.014.028-.019Z" transform="translate(12.828)" fill="#f9ad8f"/>
          <path id="Path_124" data-name="Path 124" d="M.206,14.841,15.091,8.734,14.966,0,0,2.653Z" transform="translate(55.325 101.716)" fill="#f9ad8f"/>
          <path id="Path_125" data-name="Path 125" d="M65.017,104.3C61.762,48.813,24.525,0,24.525,0L0,23.261c23.815,22.158,41.3,49.072,44.725,81.145C50.777,103.948,59.26,103.293,65.017,104.3Z" transform="translate(6.997)" fill="#e2d0aa"/>
          <path id="Path_126" data-name="Path 126" d="M63.126,88.087c-4.268.018-9.619-1.29-13.253-1.013C47.942,69,42.328,57,33.529,46.009,47,38.416,45.9,31.958,39.91,18.588L26.18,2.274C25.125.79,24.525,0,24.525,0L0,23.261c23.815,22.158,41.3,49.072,44.725,81.145,6.052-.459,14.535-1.114,20.292-.111C64.94,103,63.239,89.378,63.126,88.087Z" transform="translate(6.997)" fill="#d3b48d"/>
          <path id="Path_127" data-name="Path 127" d="M2.07,17.882a2.517,2.517,0,0,0,2.842,2.062L25.517,16.95a2.593,2.593,0,0,0,2.2-2.247L29.28,2.155A1.917,1.917,0,0,0,27.141.014L2.309,3.093A2.632,2.632,0,0,0,.038,6.154Z" transform="translate(47.554 89.496)" fill="#e2d0aa"/>
          <g id="Group_24" data-name="Group 24" transform="translate(0 187.22)">
            <path id="Path_128" data-name="Path 128" d="M.021,29.692C.506,27.34,2.985,6.4,15.409,6.517c7.558.075,14.112-3.3,17.257-6.517L26.179,13.4c-4.035,3.243-6.794,11.212-8.321,11.928S-.673,33.056.021,29.692Z" transform="translate(1.91)" fill="#ffdeb3"/>
            <path id="Path_129" data-name="Path 129" d="M5.711,1.933C4,6.39,6.065,14.27,3.953,14.3.667,14.347.843,10.886.067,3.722S5.711,1.933,5.711,1.933Z" transform="translate(15.718 16.311)" fill="#ffdeb3"/>
            <path id="Path_130" data-name="Path 130" d="M8.046,3.346C6.034,7.679,4.473,13.051,2.4,12.8c-4.736-.57-1.3-5.245.513-9.815C5.672-3.939,8.046,3.346,8.046,3.346Z" transform="translate(0 24.519)" fill="#ffdeb3"/>
            <path id="Path_131" data-name="Path 131" d="M1.922,12.353C1.94,8.393,3.344,4.51.85,3.362-3.38,1.411,9.341-.521,13.527.128,20.852,1.271,1.922,12.353,1.922,12.353Z" transform="translate(6.045 6.517)" fill="#ffdeb3"/>
            <path id="Path_132" data-name="Path 132" d="M7.1,2.963c-1.435,4.511-2.281,9.988-4.384,10-4.818.039-2-4.989-.791-9.705C3.763-3.9,7.1,2.963,7.1,2.963Z" transform="translate(8.53 20.466)" fill="#ffdeb3"/>
          </g>
        </g>
      </g>
    </g>
  </g>
</svg>
