<svg xmlns="http://www.w3.org/2000/svg" width="27.376" height="32.253" viewBox="0 0 27.376 32.253">
  <g id="cash-on-delivery-2" transform="translate(-42.718 -4.007)">
    <path id="Path_123957" data-name="Path 123957" d="M80.815,15.922a1.814,1.814,0,0,1,1.863-3.114c-7.545-4.672,3.791,2.353-8.643-5.353a.5.5,0,0,0-.372-.064.514.514,0,0,0-.308.225L69.933,13.3a.489.489,0,0,0,.161.665l11.733,7.411a.481.481,0,0,0,.67-.147c.112-.176,1.952-3.019,1.985-3.085Z" transform="translate(-25.436 -3.16)" fill="#9dcc6b"/>
    <path id="Path_123958" data-name="Path 123958" d="M80.822,35.805a1.814,1.814,0,0,1,1.863-3.114c-7.547-4.68,1.869,1.162-6.609-4.091a2.461,2.461,0,0,1-3.945.948l-2.19,3.632a.489.489,0,0,0,.161.665l11.733,7.411a.482.482,0,0,0,.67-.147l1.984-3.084Z" transform="translate(-25.443 -23.044)" fill="#9dcc6b"/>
    <path id="Path_123959" data-name="Path 123959" d="M234.807,94.585l-.259.4-3.666-2.219a1.841,1.841,0,0,1,0-3.119l0,0a1.777,1.777,0,0,1,1.858,0l.01,0a.488.488,0,0,1-.513.831.837.837,0,0,0-.851,1.442l3.261,1.975a.488.488,0,0,1,.156.684Z" transform="translate(-175.502 -80)" fill="#84b749"/>
    <path id="Path_123960" data-name="Path 123960" d="M232.469,7.143,228.03,4.65a4.909,4.909,0,0,0-5.827.733l-2.249,2.185,3.358,2.083a1.814,1.814,0,0,0-1.862,3.114l4.61,2.791c2.256,1.352,3.933-.3,5.773-1.417a.948.948,0,0,1-.068-.357V8.4a.985.985,0,0,1,.934-.978A.486.486,0,0,0,232.469,7.143Z" transform="translate(-166.071 -0.003)" fill="#f6ccaf"/>
    <path id="Path_123961" data-name="Path 123961" d="M232.7,7.424a.949.949,0,0,0-.743.406l-3.926-2.2a4.909,4.909,0,0,0-5.827.733l-1.638,1.589-.611-.381L222.2,5.38a4.909,4.909,0,0,1,5.827-.733l4.439,2.493a.487.487,0,0,1,.23.284Z" transform="translate(-166.071)" fill="#f3bd98"/>
    <path id="Path_123962" data-name="Path 123962" d="M161.627,265.44H151.85a.489.489,0,0,1-.489-.489V253.708a1.468,1.468,0,0,1,1.467-1.467H164.56a1.468,1.468,0,0,1,1.467,1.467v7.822a.489.489,0,0,1-.167.368l-3.911,3.422A.489.489,0,0,1,161.627,265.44Z" transform="translate(-101.799 -232.596)" fill="#fc6"/>
    <path id="Path_123963" data-name="Path 123963" d="M293.136,354.1H291.67a.489.489,0,0,1,0-.978h1.467A.489.489,0,0,1,293.136,354.1Z" transform="translate(-232.819 -327.122)" fill="#ffba55"/>
    <path id="Path_123964" data-name="Path 123964" d="M239.87,256.554l-1.191-.814-1.191.814a.492.492,0,0,1-.765-.4v-3.422a.489.489,0,0,1,.489-.489h2.933a.489.489,0,0,1,.488.489v3.422A.492.492,0,0,1,239.87,256.554Z" transform="translate(-181.784 -232.595)" fill="#f8834b"/>
    <path id="Path_123965" data-name="Path 123965" d="M161.627,265.44H151.85a.489.489,0,0,1-.489-.489V253.708a1.468,1.468,0,0,1,1.467-1.467H164.56a1.468,1.468,0,0,1,1.467,1.467v7.822a.489.489,0,0,1-.167.368l-3.911,3.422A.489.489,0,0,1,161.627,265.44Z" transform="translate(-101.799 -232.596)" fill="#fc6"/>
    <path id="Path_123966" data-name="Path 123966" d="M293.136,354.1H291.67a.489.489,0,0,1,0-.978h1.467A.489.489,0,0,1,293.136,354.1Z" transform="translate(-232.819 -327.122)" fill="#ffba55"/>
    <path id="Path_123967" data-name="Path 123967" d="M239.87,256.554l-1.191-.814-1.191.814a.492.492,0,0,1-.765-.4v-3.422a.489.489,0,0,1,.489-.489h2.933a.489.489,0,0,1,.488.489v3.422A.492.492,0,0,1,239.87,256.554Z" transform="translate(-181.784 -232.595)" fill="#f8834b"/>
    <path id="Path_123968" data-name="Path 123968" d="M273.626,252.241H267.76v13.2h2.933a.491.491,0,0,0,.323-.122l3.911-3.422a.479.479,0,0,0,.166-.367v-7.822A1.471,1.471,0,0,0,273.626,252.241Z" transform="translate(-210.865 -232.596)" fill="#ffba55"/>
    <path id="Path_123969" data-name="Path 123969" d="M293.136,354.1H291.67a.489.489,0,0,1,0-.978h1.467A.489.489,0,0,1,293.136,354.1Z" transform="translate(-232.819 -327.122)" fill="#ffa92c"/>
    <path id="Path_123970" data-name="Path 123970" d="M269.227,252.241H267.76v3.5l1.193.816a.493.493,0,0,0,.763-.406V252.73A.49.49,0,0,0,269.227,252.241Z" transform="translate(-210.865 -232.596)" fill="#f66824"/>
    <g id="Group_94966" data-name="Group 94966" transform="translate(44.429 4.219)">
      <path id="Path_123971" data-name="Path 123971" d="M109.675,8.713a2.461,2.461,0,0,1-3.945.948l1.232-2.048a.488.488,0,0,1,.68-.161Z" transform="translate(-103.471 -7.376)" fill="#6f9a3d"/>
      <path id="Path_123972" data-name="Path 123972" d="M72.805,71.095a2.422,2.422,0,0,1-.68,1.687c-.486-.3-1.533-.966-2.024-1.276a.489.489,0,0,1-.161-.665l.714-1.183.518-.865A2.442,2.442,0,0,1,72.805,71.095Z" transform="translate(-69.871 -64.923)" fill="#6f9a3d"/>
      <path id="Path_123973" data-name="Path 123973" d="M231.844,183.269l-.552.855-.811,1.256a.481.481,0,0,1-.67.147c-.5-.313-1.526-.965-2.014-1.276A2.463,2.463,0,0,1,231.844,183.269Z" transform="translate(-217.847 -171.534)" fill="#6f9a3d"/>
      <path id="Path_123974" data-name="Path 123974" d="M169.095,93.19a1.956,1.956,0,0,1,0-3.911A1.956,1.956,0,0,1,169.095,93.19Z" transform="translate(-161.028 -84.119)" fill="#6f9a3d"/>
    </g>
    <path id="Path_123975" data-name="Path 123975" d="M123.687,346.91a1.452,1.452,0,0,0-1.868-.494l-7.577,3.7a1.746,1.746,0,0,0,.147-.323,2.2,2.2,0,0,0,.137-.621v0a2.2,2.2,0,0,0-2.18-2.342h-3.275l-.152-.46a1.46,1.46,0,0,0-1.388-1.007h-2.244a.49.49,0,0,0-.489.489v6.8a.5.5,0,0,0,.283.445l5.338,2.459a6.3,6.3,0,0,0,6.82-1.09l6.218-5.632A1.453,1.453,0,0,0,123.687,346.91Z" transform="translate(-58.169 -319.844)" fill="#f6ccaf"/>
    <path id="Path_123976" data-name="Path 123976" d="M123.46,377.122l-6.218,5.632a6.3,6.3,0,0,1-6.82,1.09l-5.338-2.459a.5.5,0,0,1-.283-.445v-.978a.5.5,0,0,0,.283.445l5.338,2.459a6.3,6.3,0,0,0,6.82-1.09l6.218-5.632a1.5,1.5,0,0,0,.4-.6A1.434,1.434,0,0,1,123.46,377.122Z" transform="translate(-58.171 -348.135)" fill="#f3bd98"/>
    <path id="Path_123977" data-name="Path 123977" d="M46.138,340.106H43.207a.489.489,0,0,1-.489-.489v-9.288a.489.489,0,0,1,.489-.489h2.931a1.471,1.471,0,0,1,1.469,1.469v7.328A1.471,1.471,0,0,1,46.138,340.106Z" transform="translate(0 -305.306)" fill="#425b72"/>
    <path id="Path_123978" data-name="Path 123978" d="M47.607,457.727v.738a1.473,1.473,0,0,1-1.471,1.471H43.207a.49.49,0,0,1-.489-.489v-1.721Z" transform="translate(0 -425.137)" fill="#374f68"/>
    <path id="Path_123979" data-name="Path 123979" d="M201.566,411.788a2.188,2.188,0,0,1-2.175,2.1H197.22a.489.489,0,0,1,0-.978h2.171a1.2,1.2,0,0,0,1-.547Z" transform="translate(-144.319 -382.092)" fill="#e7a273"/>
    <path id="Path_123980" data-name="Path 123980" d="M74.736,429.687a.489.489,0,0,1-.978,0A.489.489,0,0,1,74.736,429.687Z" transform="translate(-29.085 -398.414)" fill="#1f2f42"/>
    <path id="Path_123981" data-name="Path 123981" d="M248.947,74.013a.49.49,0,0,1-.675.156L248,74c-.888-.549-3.125-1.934-3.984-2.469a1.784,1.784,0,0,1,1.867.01l2.9,1.794A.492.492,0,0,1,248.947,74.013Z" transform="translate(-188.615 -63.03)" fill="#e7a273"/>
    <path id="Path_123982" data-name="Path 123982" d="M404.081,58.79h-2.933a1.468,1.468,0,0,1-1.467-1.467V51.944a1.467,1.467,0,0,1,1.465-1.465h2.934a.489.489,0,0,1,.489.489V58.3a.489.489,0,0,1-.489.489Z" transform="translate(-334.476 -43.544)" fill="#425b72"/>
    <path id="Path_123983" data-name="Path 123983" d="M404.57,50.968v.978h-4.889a1.465,1.465,0,0,1,1.467-1.467h2.933A.49.49,0,0,1,404.57,50.968Z" transform="translate(-334.476 -43.544)" fill="#374f68"/>
    <path id="Path_123984" data-name="Path 123984" d="M431.7,136.468a.489.489,0,0,1-.978,0A.489.489,0,0,1,431.7,136.468Z" transform="translate(-363.561 -123.667)" fill="#1f2f42"/>
    <path id="Path_123985" data-name="Path 123985" d="M110.6,18.144l-.181.288L97.737,10.509l1.735-2.889a.514.514,0,0,1,.308-.225.5.5,0,0,1,.372.064l8.643,5.353a1.814,1.814,0,0,0-1.862,3.114Z" transform="translate(-51.553 -3.163)" fill="#84b749"/>
    <path id="Path_123986" data-name="Path 123986" d="M109.675,8.717a2.461,2.461,0,0,1-3.945.948c.293-.492.931-1.551,1.232-2.048a.514.514,0,0,1,.308-.225.5.5,0,0,1,.372.064C107.579,7.418,109.2,8.417,109.675,8.717Z" transform="translate(-59.042 -3.16)" fill="#678c38"/>
    <path id="Path_123987" data-name="Path 123987" d="M175.569,91.392a1.96,1.96,0,0,0-3.59-1.068l3.307,2.066A1.934,1.934,0,0,0,175.569,91.392Z" transform="translate(-121.118 -80.058)" fill="#678c38"/>
  </g>
</svg>
