<svg xmlns="http://www.w3.org/2000/svg" width="35" height="35" viewBox="0 0 35 35">
  <g id="Group_85737" data-name="Group 85737" transform="translate(-311 -20.513)">
    <path id="Rectangle_26771" data-name="Rectangle 26771" d="M-574.079,468.553h0a17.5,17.5,0,0,1,17.5,17.5h0a17.5,17.5,0,0,1-17.5,17.5h0a17.5,17.5,0,0,1-17.5-17.5h0A17.5,17.5,0,0,1-574.079,468.553Z" transform="translate(902.579 -448.04)" fill="#904e51"/>
    <g id="paper-plane" transform="translate(320.296 31.004)">
      <path id="Path_59439" data-name="Path 59439" d="M123.356,36.682,110.763,49.271a2.018,2.018,0,0,0,.874.2h2.157a.675.675,0,0,1,.481.2l1.169,1.168a3.38,3.38,0,0,0,2.4,1,3.419,3.419,0,0,0,1.092-.18,3.355,3.355,0,0,0,2.276-2.712l2.3-10.913A2.012,2.012,0,0,0,123.356,36.682Z" transform="translate(-107.193 -35.513)" fill="#fff"/>
      <path id="Path_59440" data-name="Path 59440" d="M13.865.052,2.979,2.346A3.4,3.4,0,0,0,1.037,8.117L2.205,9.285a.68.68,0,0,1,.2.481v2.157a2.018,2.018,0,0,0,.2.874L15.2.2A1.993,1.993,0,0,0,13.865.052Z" transform="translate(0 0)" fill="#fff"/>
    </g>
  </g>
</svg>
