<svg xmlns="http://www.w3.org/2000/svg" width="15.266" height="18.659" viewBox="0 0 15.266 18.659">
  <g id="delete" transform="translate(-3 -1)">
    <path id="Path_123995" data-name="Path 123995" d="M16.721,7a.848.848,0,0,0-.848.848v9.491a1.628,1.628,0,0,1-1.7,1.534H7.4a1.628,1.628,0,0,1-1.7-1.534V7.848a.848.848,0,1,0-1.7,0v9.491a3.323,3.323,0,0,0,3.4,3.23h6.768a3.323,3.323,0,0,0,3.4-3.23V7.848A.848.848,0,0,0,16.721,7Z" transform="translate(-0.152 -0.911)" fill="#e3411e"/>
    <path id="Path_123996" data-name="Path 123996" d="M17.418,3.544H14.025v-1.7A.848.848,0,0,0,13.177,1H8.089a.848.848,0,0,0-.848.848v1.7H3.848a.848.848,0,1,0,0,1.7h13.57a.848.848,0,1,0,0-1.7Zm-8.481,0V2.7h3.392v.848Z" transform="translate(0)" fill="#e3411e"/>
    <path id="Path_123997" data-name="Path 123997" d="M10.7,15.785V9.848a.848.848,0,1,0-1.7,0v5.937a.848.848,0,0,0,1.7,0Z" transform="translate(-0.911 -1.215)" fill="#e3411e"/>
    <path id="Path_123998" data-name="Path 123998" d="M14.7,15.785V9.848a.848.848,0,0,0-1.7,0v5.937a.848.848,0,0,0,1.7,0Z" transform="translate(-1.519 -1.215)" fill="#e3411e"/>
  </g>
</svg>
