<svg xmlns="http://www.w3.org/2000/svg" width="19.861" height="17.667" viewBox="0 0 19.861 17.667">
  <g id="delivery-bike" transform="translate(-7 -34.509)">
    <path id="Path_123898" data-name="Path 123898" d="M7.475,103.114h4.149a.476.476,0,0,0,.475-.475V98.491a.476.476,0,0,0-.475-.475H7.475A.476.476,0,0,0,7,98.491v4.148A.476.476,0,0,0,7.475,103.114Z" transform="translate(0 -60.975)" fill="#ffdc6e" fill-rule="evenodd"/>
    <path id="Path_123899" data-name="Path 123899" d="M112.151,103.114h.43a.476.476,0,0,0,.475-.475V98.491a.476.476,0,0,0-.475-.475h-.43Z" transform="translate(-100.957 -60.975)" fill="#ffca28" fill-rule="evenodd"/>
    <path id="Path_123900" data-name="Path 123900" d="M53.439,99.926v-1.91H51.924v1.91a.255.255,0,0,0,.23.273h1.054A.255.255,0,0,0,53.439,99.926Z" transform="translate(-43.132 -60.975)" fill="#f7524b" fill-rule="evenodd"/>
    <path id="Path_123901" data-name="Path 123901" d="M363.69,230.906h2.088l.993,4.593H363.69Z" transform="translate(-342.464 -188.565)" fill="#f7524b" fill-rule="evenodd"/>
    <path id="Path_123902" data-name="Path 123902" d="M363.69,230.906h2.088l.4,1.858-2.49-.94Z" transform="translate(-342.464 -188.565)" fill="#cb413d" fill-rule="evenodd"/>
    <path id="Path_123903" data-name="Path 123903" d="M75.52,227.812h6.595a.8.8,0,1,0,0-1.6H76.321a.8.8,0,0,0-.8.8Z" transform="translate(-65.787 -184.057)" fill="#404049" fill-rule="evenodd"/>
    <path id="Path_123904" data-name="Path 123904" d="M50.959,401.53a3.029,3.029,0,0,1-6.059,0Z" transform="translate(-36.388 -352.384)" fill="#404049" fill-rule="evenodd"/>
    <path id="Path_123905" data-name="Path 123905" d="M86.042,401.53a1.509,1.509,0,0,1-3.018,0Z" transform="translate(-72.992 -352.384)" fill="#f0f0fc" fill-rule="evenodd"/>
    <path id="Path_123906" data-name="Path 123906" d="M344.407,401.53a3.029,3.029,0,0,1-6.059,0Z" transform="translate(-318.133 -352.384)" fill="#404049" fill-rule="evenodd"/>
    <path id="Path_123907" data-name="Path 123907" d="M379.489,401.53a1.509,1.509,0,0,1-3.018,0Z" transform="translate(-354.736 -352.384)" fill="#f0f0fc" fill-rule="evenodd"/>
    <path id="Path_123908" data-name="Path 123908" d="M30.169,263.706h8.524v-5.725H33.032a2.871,2.871,0,0,0-2.863,2.862Z" transform="translate(-22.245 -214.56)" fill="#f7524b" fill-rule="evenodd"/>
    <path id="Path_123909" data-name="Path 123909" d="M225.708,348.672h5.045v2.108h-5.045Z" transform="translate(-209.985 -301.634)" fill="#f7524b" fill-rule="evenodd"/>
    <path id="Path_123910" data-name="Path 123910" d="M366.289,172.429l-2.207.335a.458.458,0,0,0-.392.456v1.823l2.6.394c.688.1,1.26-.677,1.26-1.5C367.549,173.143,367,172.321,366.289,172.429Z" transform="translate(-342.464 -132.41)" fill="#ef444e" fill-rule="evenodd"/>
    <path id="Path_123911" data-name="Path 123911" d="M429.583,175.442c.674.078,1.231-.693,1.231-1.508,0-.778-.538-1.589-1.231-1.508Z" transform="translate(-405.729 -132.412)" fill="#ffdc6e" fill-rule="evenodd"/>
    <path id="Path_123912" data-name="Path 123912" d="M33.786,310.839a3.617,3.617,0,0,1,3.617,3.617H30.169A3.617,3.617,0,0,1,33.786,310.839Z" transform="translate(-22.245 -265.31)" fill="#e14844" fill-rule="evenodd"/>
    <path id="Path_123913" data-name="Path 123913" d="M151.257,107.064l1.955.931,2.443-1.191,1.511,1.2,3.455,1.016.492-.828c-1.122-.374-2.023-.739-3.149-1.186l-.848-1.092a2.264,2.264,0,0,0-.545-1.532c-.573-.526-.576-.539-.576-.539C152.915,103.964,151.739,105.4,151.257,107.064Z" transform="translate(-138.504 -66.574)" fill="#ffdc6e" fill-rule="evenodd"/>
    <path id="Path_123914" data-name="Path 123914" d="M373.367,207.311a.627.627,0,1,0-.627-.627A.628.628,0,0,0,373.367,207.311Z" transform="translate(-351.153 -164.708)" fill="#484a50" fill-rule="evenodd"/>
    <path id="Path_123915" data-name="Path 123915" d="M141.422,177.035l4.2,1.449-.039,3.705h1.361l.12-4.368a.989.989,0,0,0-.6-.938l-5.137-2.311-.452,1.005A1.073,1.073,0,0,0,141.422,177.035Z" transform="translate(-128.434 -134.478)" fill="#484a50" fill-rule="evenodd"/>
    <path id="Path_123916" data-name="Path 123916" d="M261.172,360.917l-.006.472a.719.719,0,0,0,.733.714l.545-.009.664,0a.52.52,0,0,0,.515-.522v-.07a.59.59,0,0,0-.527-.581h-1.924Z" transform="translate(-244.03 -313.391)" fill="#ffdc6e" fill-rule="evenodd"/>
    <path id="Path_123917" data-name="Path 123917" d="M287.672,362.1l.221,0,.664,0a.52.52,0,0,0,.515-.522v-.07a.59.59,0,0,0-.527-.581h-.872V362.1Z" transform="translate(-269.478 -313.39)" fill="#ffca28" fill-rule="evenodd"/>
    <path id="Path_123918" data-name="Path 123918" d="M327.234,310.839a3.617,3.617,0,0,1,3.617,3.617h-7.234A3.617,3.617,0,0,1,327.234,310.839Z" transform="translate(-303.99 -265.31)" fill="#e14844" fill-rule="evenodd"/>
    <path id="Path_123919" data-name="Path 123919" d="M104.976,310.839a3.617,3.617,0,0,1,3.617,3.617H107a3.857,3.857,0,0,0-2.688-3.557A3.638,3.638,0,0,1,104.976,310.839Z" transform="translate(-93.435 -265.31)" fill="#cb413d" fill-rule="evenodd"/>
    <path id="Path_123920" data-name="Path 123920" d="M398.423,310.839a3.617,3.617,0,0,1,3.617,3.617h-1.589a3.857,3.857,0,0,0-2.688-3.557A3.638,3.638,0,0,1,398.423,310.839Z" transform="translate(-375.178 -265.31)" fill="#cb413d" fill-rule="evenodd"/>
    <path id="Path_123921" data-name="Path 123921" d="M385.452,206.059a.627.627,0,1,1-.125,1.241.627.627,0,0,0,0-1.228A.628.628,0,0,1,385.452,206.059Z" transform="translate(-363.238 -164.709)" fill="#404049" fill-rule="evenodd"/>
    <path id="Path_123922" data-name="Path 123922" d="M153.151,175.834l2.822,1.269a.991.991,0,0,1,.6.938l-.1,3.964h.339l.115-4.183a.985.985,0,0,0-.517-.895h0l-.017-.009h0l-.017-.009-.017-.009-.017-.008-.018-.008-5.137-2.311-.142.315Z" transform="translate(-138.308 -134.478)" fill="#404049" fill-rule="evenodd"/>
    <path id="Path_123923" data-name="Path 123923" d="M200.24,104.508a6.813,6.813,0,0,1,2.366-.462,2.673,2.673,0,0,0,1.036,1.382,2.813,2.813,0,0,1,.085.689l.848,1.092c.876.348,1.749.7,2.638,1.011a.629.629,0,0,1,.286-.246c-.843-.3-1.674-.634-2.505-.964l-.848-1.092a2.812,2.812,0,0,0-.079-.665,1.717,1.717,0,0,0-.466-.867c-.573-.526-.576-.539-.576-.539l-.092,0A6.19,6.19,0,0,0,200.24,104.508Z" transform="translate(-185.533 -66.573)" fill="#ffca28" fill-rule="evenodd"/>
    <g id="Group_94883" data-name="Group 94883" transform="translate(17.326 34.509)">
      <path id="Path_123924" data-name="Path 123924" d="M279.508,46.393a1.739,1.739,0,1,1-1.9,1.563l1.731.168Z" transform="translate(-277.134 -45.919)" fill="#f6dccd" fill-rule="evenodd"/>
      <path id="Path_123925" data-name="Path 123925" d="M268.34,34.519a2.206,2.206,0,0,1,1.96,1.821.461.461,0,0,1-.5.536l-1.216-.118a.462.462,0,0,0-.5.414l-.118,1.216a.461.461,0,0,1-.623.386,2.205,2.205,0,0,1,1-4.255Z" transform="translate(-265.922 -34.509)" fill="#e14844" fill-rule="evenodd"/>
      <path id="Path_123926" data-name="Path 123926" d="M294.873,34.519a2.206,2.206,0,0,1,1.96,1.821.461.461,0,0,1-.442.539c0-.01,0-.02,0-.031a2.155,2.155,0,0,0-2.834-2.044,2.195,2.195,0,0,1,1.316-.285Z" transform="translate(-292.455 -34.509)" fill="#cb413d" fill-rule="evenodd"/>
    </g>
  </g>
</svg>
