<svg xmlns="http://www.w3.org/2000/svg" width="13.019" height="13.025" viewBox="0 0 13.019 13.025">
  <path id="filter-14" d="M12.818,0H1A.5.5,0,0,0,.5.5,4.891,4.891,0,0,0,2.14,4.153L4.333,6.1a1.784,1.784,0,0,1,.6,1.333v4.883a.5.5,0,0,0,.778.417l2.954-1.969a.5.5,0,0,0,.223-.417V7.435a1.784,1.784,0,0,1,.6-1.333l2.193-1.949A4.891,4.891,0,0,0,13.319.5.5.5,0,0,0,12.818,0Zm-1.8,3.4L8.82,5.354a2.787,2.787,0,0,0-.935,2.081V10.08l-1.953,1.3V7.435A2.787,2.787,0,0,0,5,5.354L2.805,3.4A3.89,3.89,0,0,1,1.534,1H12.285A3.889,3.889,0,0,1,11.013,3.4Zm0,0" transform="translate(-0.4 0.1)" fill="#6c727f" stroke="#6c727f" stroke-width="0.2"/>
</svg>
