<svg xmlns="http://www.w3.org/2000/svg" xmlns:xlink="http://www.w3.org/1999/xlink" width="537.485" height="1022.191" viewBox="0 0 537.485 1022.191">
  <defs>
    <linearGradient id="linear-gradient" x1="1.089" y1="0.198" x2="1.089" y2="1.431" gradientUnits="objectBoundingBox">
      <stop offset="0" stop-color="#ffe97a"/>
      <stop offset="1" stop-color="#61001c"/>
    </linearGradient>
  </defs>
  <g id="Group_86016" data-name="Group 86016" transform="translate(70.632 33.654)">
    <g id="Group_86015" data-name="Group 86015">
      <g id="Group_8" data-name="Group 8" transform="matrix(-0.259, -0.966, 0.966, -0.259, -235.475, 1504.779)">
        <path id="Path_6" data-name="Path 6" d="M494.365,705.789l-134.97,73.328s-43.706-24,53.983-75.905C490.057,662.475,494.365,705.789,494.365,705.789Z" transform="translate(1.058)" fill="#ed914c"/>
        <path id="Path_7" data-name="Path 7" d="M456.615,699.54,359.451,753.5S334,742.374,404.189,704.009C459.268,673.919,456.615,699.54,456.615,699.54Z" transform="translate(12.508 7.81)" fill="#ffae55"/>
        <path id="Path_8" data-name="Path 8" d="M356.14,773.784l133.078-76.777s44.258,22.917-52.085,77.3C361.506,816.994,356.14,773.784,356.14,773.784Z" transform="translate(15.07 24.293)" fill="#ffae55"/>
        <path id="Path_9" data-name="Path 9" d="M437.1,748.514a515.163,515.163,0,0,1,57.063-19.5c14.109-22.137-4.946-32.01-4.946-32.01L356.14,773.784a22.9,22.9,0,0,0,6.61,12.337C378.192,775.287,405.256,761.356,437.1,748.514Z" transform="translate(15.07 24.293)" fill="#ed914c"/>
        <path id="Path_10" data-name="Path 10" d="M352.989,780.263c4.03,7.381,12.349,10.558,82.889-28.634,70.527-39.173,72.3-47.973,68.259-55.348s-12.349-10.565-82.879,28.612S348.953,772.879,352.989,780.263Z" transform="translate(5.575 12.853)" fill="#723828"/>
        <path id="Path_11" data-name="Path 11" d="M527.146,697.9,507.3,695.581l-40.01,26.458L438.746,735.61,416.87,747.84l-56.476,26.55-11.236,25.054,39.634-25.705,29.064-11.724,26.038-15.869,46.093-11.391L502.421,710.3Z" transform="translate(0 21.216)" fill="#d6cb41"/>
        <path id="Path_12" data-name="Path 12" d="M359.472,755.836c1.535,4.213,6.576,5.625,59.671-22.346,53.077-27.955,55.625-33.368,54.081-37.588s-6.588-5.635-59.659,22.327C360.476,746.19,357.927,751.617,359.472,755.836Z" transform="translate(21.615 16.895)" fill="#894631"/>
        <path id="Path_13" data-name="Path 13" d="M419.032,700.916S406.1,713.01,398.783,716.7s-32.73,12.687-32.73,12.687,12.621-32.01,17.908-33.95S419.032,700.916,419.032,700.916Z" transform="translate(36.466 20.201)" fill="#ed914c"/>
        <path id="Path_14" data-name="Path 14" d="M419.673,701.731s-12.93,12.087-20.248,15.779S366.7,730.2,366.7,730.2s12.615-32.007,17.9-33.952S419.673,701.731,419.673,701.731Z" transform="translate(37.865 21.945)" fill="#ffd13e"/>
      </g>
      <g id="Group_14" data-name="Group 14" transform="translate(32.86 514.184) rotate(30)">
        <g id="Group_13" data-name="Group 13" transform="translate(144.36 190.354)">
          <path id="Path_24" data-name="Path 24" d="M211.1,212.469l-28.568-18.816-1.426-3.3-.224,2.212-1.687-1.112-.51,2.724-1.53-1.337,1.016,4.079-10.694,57.107,3.962.913,10.912-51.915.934,1.293-.106-1.929,23.363,18.385Z" transform="translate(-110.748 -190.354)" fill="#e85223"/>
          <g id="Group_12" data-name="Group 12" transform="translate(59.518 5.633)">
            <path id="Path_25" data-name="Path 25" d="M168.612,219.124l3.8,3.318,3.385-16.1-4.37-2.238Z" transform="translate(-168.612 -175.995)" fill="#ff933b"/>
            <path id="Path_26" data-name="Path 26" d="M170.641,206.195l4.2,4.322,2.2-10.449-4.244-5.347Z" transform="translate(-165.663 -189.637)" fill="#ff933b"/>
            <path id="Path_27" data-name="Path 27" d="M175.055,192.649l.355,8.964,9.742,7.667,2.9-8.067Z" transform="translate(-159.244 -192.649)" fill="#ff933b"/>
          </g>
          <path id="Path_28" data-name="Path 28" d="M145.02,222.626s42.477,35.4,83.3,4.815Z" transform="translate(-143.401 -143.425)" fill="#84471e"/>
          <path id="Path_29" data-name="Path 29" d="M148.2,219.875l13.094,127.311,51.189-2.986,4.808-122.725Z" transform="translate(-138.778 -147.426)" fill="#e84b31"/>
          <path id="Path_30" data-name="Path 30" d="M159.424,226.33c3.011,57.415,9.331,110.33,20.78,110,14.053-.4,17.233-63.4,18.028-114.087Z" transform="translate(-122.455 -143.98)" fill="#f46438"/>
          <path id="Path_31" data-name="Path 31" d="M216.552,238.1l-65.8,4.825-2.588-22.083,68.851,4.239Z" transform="translate(-138.826 -146.021)" fill="#d63f2b"/>
          <path id="Path_32" data-name="Path 32" d="M147.225,225.908l-.811-14.592,75.061,8.017.263,11.153Z" transform="translate(-141.374 -159.871)" fill="#f4c871"/>
          <path id="Path_33" data-name="Path 33" d="M145.98,231.571l-1.62-14.578,85.362-.519-.443,19.913Z" transform="translate(-144.36 -152.371)" fill="#f4c871"/>
          <path id="Path_34" data-name="Path 34" d="M207.921,269.792l-55.279,1.584.344,3.612,54.939-1.842Z" transform="translate(-132.317 -74.838)" fill="#ff8878"/>
          <path id="Path_35" data-name="Path 35" d="M218.459,223.2l-.092-3.8-67.7-6.875,2.85,10.824-7.3,1.5,1.207,9.147,75.443,3.483.27-14.278Z" transform="translate(-141.662 -158.119)" fill="#ffe888"/>
          <path id="Path_36" data-name="Path 36" d="M201.925,215.719,157.7,218.766l1.275,1.182,45.861-1.37Z" transform="translate(-124.956 -153.469)" fill="#f4c871"/>
          <path id="Path_37" data-name="Path 37" d="M145.652,217.577l33.58-.791.841,15.2-33.44-2.821Z" transform="translate(-142.482 -151.917)" fill="#f4c871"/>
          <path id="Path_38" data-name="Path 38" d="M147.591,212.432l1.488,11.31,8.087-.049.521-10.687Z" transform="translate(-139.663 -158.249)" fill="#ffdc7b"/>
        </g>
      </g>
      <g id="Group_23" data-name="Group 23" transform="matrix(0.966, -0.259, 0.259, 0.966, -460.746, 142.719)">
        <path id="Path_113" data-name="Path 113" d="M709.333,144.3l152.634-36.654s36.782,35.26-73.382,60.636C702.126,188.189,709.333,144.3,709.333,144.3Z" transform="translate(20.065 36.098)" fill="#ed914c"/>
        <path id="Path_114" data-name="Path 114" d="M716.82,139.162,827,111.627s22.186,17.716-57.249,37C707.42,163.753,716.82,139.162,716.82,139.162Z" transform="translate(38.952 46.649)" fill="#ffae55"/>
        <path id="Path_115" data-name="Path 115" d="M864.156,122.176,712.485,162.738s-37.621-34.334,71.864-62.511C870.3,78.111,864.156,122.176,864.156,122.176Z" transform="translate(12.271 0)" fill="#ffae55"/>
        <path id="Path_116" data-name="Path 116" d="M777.559,115.36a525.587,525.587,0,0,1-61.486,4.138c-19.785,18.121-3.587,32.907-3.587,32.907l151.671-40.562A23.4,23.4,0,0,0,860.9,97.918C842.792,104.526,812.389,111.109,777.559,115.36Z" transform="translate(12.27 10.333)" fill="#ed914c"/>
        <path id="Path_117" data-name="Path 117" d="M877.284,109.426c-2.029-8.356-9.393-13.691-89.4,6.32-79.982,20-84.058,28.214-82.022,36.567s9.4,13.7,89.375-6.309S879.313,117.778,877.284,109.426Z" transform="translate(10.317 21.001)" fill="#723828"/>
        <path id="Path_118" data-name="Path 118" d="M701.611,150.343l18.986,7.546,46.493-15.522,31.758-5.844,24.83-6.282,62.774-11.255,17.718-21.759L858.248,112.11l-31.79,3.877-29.9,8.77-48.513-.955L729.3,144.647Z" transform="translate(0 8.499)" fill="#d6cb41"/>
        <path id="Path_119" data-name="Path 119" d="M838.059,110.585c-.409-4.569-5-7.294-64.817,6.258-59.792,13.545-63.737,18.22-63.332,22.788s5.017,7.305,64.8-6.247S838.464,115.157,838.059,110.585Z" transform="translate(21.918 34)" fill="#894631"/>
        <path id="Path_120" data-name="Path 120" d="M721.139,126.655s15.961-8.513,24.164-10.217,35.658-3.857,35.658-3.857-20.927,28.251-26.66,28.769S721.139,126.655,721.139,126.655Z" transform="translate(51.729 49.176)" fill="#ed914c"/>
        <path id="Path_121" data-name="Path 121" d="M720.772,125.813s15.957-8.51,24.164-10.214,35.658-3.857,35.658-3.857-20.927,28.251-26.667,28.772S720.772,125.813,720.772,125.813Z" transform="translate(50.757 46.953)" fill="#ffd13e"/>
      </g>
      <g id="Group_19" data-name="Group 19" transform="translate(-278.387 114.594) rotate(-45)">
        <g id="Group_18" data-name="Group 18" transform="translate(194.134 99.676)">
          <path id="Path_52" data-name="Path 52" d="M297.958,299.442l-5.107,6.919s-59.569-3.692-70.816-98.7c-3.442-29.1-12.436-60.6-24.861-71.37,0,0,54.222-36.1,92.132-30.488,8.922,34.475,2.082,49.556-.162,69.708C284.937,213.327,247.022,283.358,297.958,299.442Z" transform="translate(-189.721 -91.638)" fill="#d66b22"/>
          <path id="Path_53" data-name="Path 53" d="M293.33,299.858c-19.509-1.966-63.036-25.121-70.465-87.863-3.445-29.1-10.2-70.752-22.628-81.523,0,0,46.712-30.219,84.622-24.606,8.922,34.475.5,49.465-.162,69.708C283.126,223.619,247.219,266.746,293.33,299.858Z" transform="translate(-185.274 -91.699)" fill="#e59a48"/>
          <path id="Path_54" data-name="Path 54" d="M266.9,247.912c-27.568-22.223,8.049-36.647,8.049-36.647s4.511-3.864,1.3-8.336-4.546-27.732,5.879-29,6.524-32.876,6.524-32.876c-22.28-30.863.679-19.573.679-19.573l-.552-4.678s-23.778-14.186-32.435,6-10.844.368-27.9,1.579S201.012,140.2,201.012,140.2l3.028,6.031s4.21-9.758,17.822,13.255-.064,31-.064,31l1.255,6.169c3.045-.946,13.218-.8,19.59,19.715s-13.5,28.6-13.5,28.6l2.616,4.764c7.684-7.064,26.448.785,35.848,5.524Z" transform="translate(-184.149 -81.838)" fill="#ffda40"/>
          <path id="Path_55" data-name="Path 55" d="M303.446,126.312C291.02,128,229.607,139.528,211,157.683c-6.039,5.889-21.483-1.93-15.518-17.312S262.424,86.176,300.7,104.935C317.9,113.364,303.446,126.312,303.446,126.312Z" transform="translate(-194.134 -99.32)" fill="#d66b22"/>
          <path id="Path_56" data-name="Path 56" d="M297.625,125.2c-11.259.748-67.087,7.3-84.909,22.476-5.779,4.926-19.161-3.07-12.862-16.54s63.416-44.594,96.621-25.34C311.4,114.451,297.625,125.2,297.625,125.2Z" transform="translate(-188.223 -99.676)" fill="#f9b23e"/>
          <path id="Path_57" data-name="Path 57" d="M251.6,147.576c-1.743,9.378-30.677,5.384-27.446-17.175S257.781,114.349,251.6,147.576Z" transform="translate(-150.919 -74.335)" fill="#b7371d"/>
          <path id="Path_58" data-name="Path 58" d="M252.177,147.32c-1.743,9.378-30.675,5.384-27.446-17.173S258.361,114.09,252.177,147.32Z" transform="translate(-150.077 -74.706)" fill="#ce4c36"/>
          <path id="Path_59" data-name="Path 59" d="M234.192,169.962c-10.276,1.187-10.03,12.865-25.359,9.31-6.6-1.528-3.555-8.162,2.736-6.652,8.285,1.984,7.978-3.727,19.656-8.169Z" transform="translate(-178.166 -5.636)" fill="#ffda40"/>
          <path id="Path_60" data-name="Path 60" d="M227.322,167.223c1.5-.787,5.056,1.557,6.1,3.624s.682,4.379-.824,5.168-3.57-.243-4.617-2.314S225.817,168.013,227.322,167.223Z" transform="translate(-147.014 -1.836)" fill="#ffda40"/>
          <path id="Path_61" data-name="Path 61" d="M214.585,150.633c-6.554,2.663-12.548-4.1-1.746-6.47S214.585,150.633,214.585,150.633Z" transform="translate(-175.601 -35.674)" fill="#ffda40"/>
          <path id="Path_62" data-name="Path 62" d="M232.051,155.344c-9.474-4.585-9.584-25.55,1.824-19.791S235.927,157.22,232.051,155.344Z" transform="translate(-149.15 -49.031)" fill="#e59a48"/>
          <path id="Path_63" data-name="Path 63" d="M224.85,160.857c.186-6.828,9.474-14.348,12.333-11.345C242.969,155.588,224.718,165.653,224.85,160.857Z" transform="translate(-149.541 -28.309)" fill="#e59a48"/>
          <path id="Path_64" data-name="Path 64" d="M223.615,141.82c-.932-1.868-.456-7.191,1.4-7.785C235.834,130.561,224.279,143.147,223.615,141.82Z" transform="translate(-152.007 -50.676)" fill="#e59a48"/>
          <path id="Path_65" data-name="Path 65" d="M226.168,151c4.482-5.264,8.263-8.491,11.016-2.427,11.98,26.367-19.271,32.087-22.731,23.39-.566-1.427,1.351-6.647,4.337-12.114C210.344,153.8,204.1,129.55,226.168,151Z" transform="translate(-169.6 -37.781)" fill="#c18c46"/>
          <path id="Path_66" data-name="Path 66" d="M226.424,149.9c4.479-5.264,9.265-7.831,12.019-1.77,11.98,26.369-19.271,32.087-22.728,23.39-.566-1.427,1.349-6.644,4.335-12.114C211.6,153.36,204.357,128.452,226.424,149.9Z" transform="translate(-168.497 -39.178)" fill="#f2aa5c"/>
          <path id="Path_67" data-name="Path 67" d="M236.072,151.516c7.9-9.69-8.657-36.157-22.451-29.677C195.284,130.46,214.209,178.354,236.072,151.516Z" transform="translate(-176.577 -68.964)" fill="#e25423"/>
          <path id="Path_68" data-name="Path 68" d="M233.412,148.047c6.8-8.353-7.463-31.16-19.35-25.575C198.256,129.9,214.57,171.178,233.412,148.047Z" transform="translate(-174.454 -67.843)" fill="#ff8d4d"/>
          <path id="Path_69" data-name="Path 69" d="M216.985,166.7c8.979,2.322,12.975,14.836,16.508,22.2s28.247,23.795,34.433,23.77,2.771-2.408-3.979-6.917-17.682-27.659-19.117-33.075S216.985,166.7,216.985,166.7Z" transform="translate(-160.959 -2.372)" fill="#ffda40"/>
          <path id="Path_70" data-name="Path 70" d="M231.4,178.666l-3.9,1.4-6.586-15.089,6.647,2.167Z" transform="translate(-155.258 -4.866)" fill="#9ba336"/>
          <path id="Path_71" data-name="Path 71" d="M226.413,139.179l-4.042,1.382-1.324-12.986,5.454,1.646Z" transform="translate(-155.061 -59.171)" fill="#9ba336"/>
          <path id="Path_72" data-name="Path 72" d="M215.1,153.724l-2.849,1.738-3.206-9.609,4.438.317Z" transform="translate(-172.49 -32.634)" fill="#8c8e29"/>
          <path id="Path_73" data-name="Path 73" d="M232.88,151.512l-4.153.2.072-12.05,5.23,2.9Z" transform="translate(-143.911 -41.629)" fill="#8c8e29"/>
          <path id="Path_74" data-name="Path 74" d="M247.842,195.274c-4.84.088-17.648,1.537-24.4-20.3Z" transform="translate(-151.589 9.645)" fill="#ffda40"/>
          <path id="Path_75" data-name="Path 75" d="M239.574,189.1c-9.839-1.93-19.426-18.818-10.773-12.735S246.731,190.5,239.574,189.1Z" transform="translate(-148.703 9.75)" fill="#e59a48"/>
          <path id="Path_76" data-name="Path 76" d="M241.249,154.09l-4.381,25.2c-7-.829-15.915-7.091-13.193-18.8C226.141,149.912,235.553,148.22,241.249,154.09Z" transform="translate(-151.976 -25.531)" fill="#b7371d"/>
          <path id="Path_77" data-name="Path 77" d="M241.934,154.16l-4.381,25.2c-7-.826-15.915-7.091-13.2-18.8C226.826,149.978,236.236,148.291,241.934,154.16Z" transform="translate(-150.984 -25.43)" fill="#ce4c36"/>
          <path id="Path_78" data-name="Path 78" d="M231.276,137.42c1.508-2.3-22.822-9.422-23.118-10.354S215.457,161.551,231.276,137.42Z" transform="translate(-173.786 -59.937)" fill="#e25423"/>
          <path id="Path_79" data-name="Path 79" d="M231.152,137.612c1.638,4.3-22.437-8.226-22.719-7.846S220.286,109.06,231.152,137.612Z" transform="translate(-173.38 -66.364)" fill="#e25423"/>
          <path id="Path_80" data-name="Path 80" d="M217.925,134.976c-1.675,1.586-3.305-4.668-3.305-4.668S219.7,133.3,217.925,134.976Z" transform="translate(-164.392 -55.204)" fill="#ff8d4d"/>
          <path id="Path_81" data-name="Path 81" d="M214.537,136.445c-2.177.711-.944-5.678-.944-5.678S216.844,135.69,214.537,136.445Z" transform="translate(-166.389 -54.537)" fill="#ff8d4d"/>
          <path id="Path_82" data-name="Path 82" d="M211.931,135.734c-2.253-.294,1.6-5.566,1.6-5.566S214.317,136.043,211.931,135.734Z" transform="translate(-169.324 -55.407)" fill="#ff8d4d"/>
          <path id="Path_83" data-name="Path 83" d="M209.536,130.387c-.669-2.111,5.529-1.032,5.529-1.032S210.247,132.626,209.536,130.387Z" transform="translate(-171.847 -56.987)" fill="#ff8d4d"/>
          <path id="Path_84" data-name="Path 84" d="M210.362,124.656c1.317-1.814,3.987,3.9,3.987,3.9S208.962,126.573,210.362,124.656Z" transform="translate(-170.912 -63.926)" fill="#ff8d4d"/>
          <path id="Path_85" data-name="Path 85" d="M213.4,123.635c2.16-.527.432,5.607.432,5.607S211.107,124.192,213.4,123.635Z" transform="translate(-167.499 -64.938)" fill="#ff8d4d"/>
          <path id="Path_86" data-name="Path 86" d="M216.231,124.691c1.961.515-2.079,4.752-2.079,4.752S214.152,124.141,216.231,124.691Z" transform="translate(-165.072 -63.417)" fill="#ff8d4d"/>
          <path id="Path_87" data-name="Path 87" d="M219.085,127.347c.731,1.626-4.3,1.3-4.3,1.3S218.31,125.628,219.085,127.347Z" transform="translate(-164.157 -60.27)" fill="#ff8d4d"/>
          <path id="Path_88" data-name="Path 88" d="M234.2,152.767c3.749-2.4,8.049-28.831,4.139-34.146s-4.685-1.515-4.509.417,5.411,33.575-9.7,28.5C224.123,147.54,231.258,154.645,234.2,152.767Z" transform="translate(-150.596 -76.113)" fill="#ffda40"/>
          <path id="Path_89" data-name="Path 89" d="M228.412,189.467c3.974-2.126,16.844-31,14.122-37.52-3.148-7.527-3.678,1.692-3.965,4.217-.275,2.43-.549,29.522-15.115,26.791C223.454,182.954,225.278,191.144,228.412,189.467Z" transform="translate(-151.567 -27.997)" fill="#ffda40"/>
          <path id="Path_90" data-name="Path 90" d="M236.524,133.355c-2.6-3.987-9.067-11.761-13.277-9.013l3.053-5.676s10.695,14.088,12.011,4.35C238.311,123.016,239.319,132.413,236.524,133.355Z" transform="translate(-151.868 -72.106)" fill="#ffda40"/>
          <path id="Path_91" data-name="Path 91" d="M237.271,166.661c-4.058-2.422-9.381-3.008-14.757,3.587l-.329-10.732s16.692,11.4,18.425-5.338C240.61,154.179,240.956,163.29,237.271,166.661Z" transform="translate(-153.409 -20.547)" fill="#ffda40"/>
          <path id="Path_92" data-name="Path 92" d="M238.122,151.553c-.162-4.776-.417-16.1-8.773-16.9l2.832-14.677s5.463,35.105,14.7,22.473C246.879,142.447,242.9,152.747,238.122,151.553Z" transform="translate(-143.009 -70.207)" fill="#ffda40"/>
          <path id="Path_93" data-name="Path 93" d="M215.152,151.712c5.651.154,9.015-7.321-.682-2.131Z" transform="translate(-164.61 -29.888)" fill="#c18c46"/>
          <path id="Path_94" data-name="Path 94" d="M217.571,144.774c-.74,3.719,3.749,6.627,1.464-.253Z" transform="translate(-160.229 -34.569)" fill="#d89f5b"/>
          <path id="Path_95" data-name="Path 95" d="M232.551,157.5c-3.44,7.284-27.656,8.361-14.169-4.592C229.474,142.253,235.258,151.764,232.551,157.5Z" transform="translate(-164.813 -29.391)" fill="#ffcb64"/>
          <path id="Path_96" data-name="Path 96" d="M226.194,163.422c3.464-5.632.024-30.4-7.071-13.453C216.823,162.277,223.465,167.857,226.194,163.422Z" transform="translate(-158.546 -35.135)" fill="#ffcb64"/>
          <path id="Path_97" data-name="Path 97" d="M211.013,120.7c8.505-7.3,12.455-10.182,24.879-7.3Z" transform="translate(-169.629 -81.345)" fill="#d66b22"/>
          <path id="Path_98" data-name="Path 98" d="M201.225,127.975c7.3-8.52,10.763-11.977,23.513-11.077Z" transform="translate(-183.839 -74.874)" fill="#d66b22"/>
          <path id="Path_99" data-name="Path 99" d="M226.833,116.366c9.106-6.524,13.286-9.047,25.389-5.065Z" transform="translate(-146.661 -85.568)" fill="#d66b22"/>
          <path id="Path_100" data-name="Path 100" d="M278.847,108.452c-10.464-18.364-82.822,2.489-64.174,10.177,8.751,3.607,26.409-.831,40.327-2.562C270.748,114.116,282.166,114.282,278.847,108.452Z" transform="translate(-168.753 -97.62)" fill="#ffcf4a"/>
          <path id="Path_101" data-name="Path 101" d="M213.177,120.823c14.721-11.17,5.914-14.228-4.828-9.582C195.911,116.625,198.049,132.3,213.177,120.823Z" transform="translate(-185.239 -85.921)" fill="#ffcf4a"/>
        </g>
        <path id="Path_102" data-name="Path 102" d="M302.386,105.8c6.9,4,7.659,8.447,6.49,12.073-1.093,4.906-5.431,8.8-5.431,8.8-1.554.211-3.869.576-6.774,1.089.351,2.153.638,4.229.856,6.218.782.4,1.236.669,1.236.669l.552,4.678s-.537-.265-1.366-.6a103.1,103.1,0,0,1-.441,18.58c.373.527.726,1.037,1.128,1.594,0,0,3.67,29.794-5.651,32.688-1.106,10.383-3.538,20.522-6.085,30.358,1.454,3.271-.834,6.022-1.675,6.88a42.423,42.423,0,0,1-1.022,4.663l-3.5,20.124c-.341-.039-.689-.1-1.037-.169a79.208,79.208,0,0,0-.885,13.188,7.05,7.05,0,0,1,1.765,2.06c1.049,2.067.682,4.379-.824,5.168a1.9,1.9,0,0,1-.287.1c3.506,8.586,12.053,25.337,17.687,29.1,6.75,4.509,10.165,6.895,3.979,6.917a4.916,4.916,0,0,1-.544-.039l-3.293,4.465s-34.735-2.158-56.164-45.484c-3.585,3.244-7.2,6.507-16.3,4.4-6.6-1.527-3.555-8.162,2.736-6.652,5.387,1.29,7.154-.679,10.933-3.43-5.409-12.534-9.724-28.122-12.021-47.528-.071-.6-.147-1.2-.223-1.8a2.169,2.169,0,0,1-.383-2.9c-2.3-16.7-6.362-33.788-11.808-46.957l-.01.025L211,158.039c-6.039,5.889-21.483-1.93-15.518-17.312,1.706-4.406,7.941-10.732,16.849-17.079C229.624,109.044,274.458,89.6,302.386,105.8Z" transform="translate(0 0)" opacity="0.7" fill="url(#linear-gradient)" style="mix-blend-mode: overlay;isolation: isolate"/>
      </g>
    </g>
    <rect id="Rectangle_4" data-name="Rectangle 4" width="428" height="927" fill="#fff"/>
  </g>
</svg>
