<svg xmlns="http://www.w3.org/2000/svg" width="175.258" height="175.549" viewBox="0 0 175.258 175.549">
  <g id="smile" transform="translate(0 0.004)">
    <ellipse id="Ellipse_3018" data-name="Ellipse 3018" cx="87" cy="87.5" rx="87" ry="87.5" transform="translate(0.851 -0.004)" fill="#ffd54f"/>
    <path id="Path_123990" data-name="Path 123990" d="M56.565.964A18.448,18.448,0,0,0,45.21,4.842,18.448,18.448,0,0,0,33.854.964C24.011.964,16,8.617,16,18.022c0,14.656,21.725,30.561,26.07,33.6a5.494,5.494,0,0,0,6.28,0c4.345-3.045,26.07-18.942,26.07-33.6C74.419,8.617,66.409.964,56.565.964Z" transform="translate(100.839 6.1)" fill="#e53935"/>
    <path id="Path_123991" data-name="Path 123991" d="M40.565,16.964A18.448,18.448,0,0,0,29.21,20.842a18.448,18.448,0,0,0-11.355-3.878C8.011,16.964,0,24.617,0,34.022c0,14.656,21.725,30.561,26.07,33.6a5.494,5.494,0,0,0,6.28,0c4.345-3.045,26.07-18.942,26.07-33.6,0-9.405-8.011-17.058-17.854-17.058Z" transform="translate(0 106.939)" fill="#e53935"/>
    <g id="Group_94973" data-name="Group 94973" transform="translate(36.512 58.444)">
      <path id="Path_123992" data-name="Path 123992" d="M36.035,31.733a5.479,5.479,0,0,1-5.477-5.477,7.3,7.3,0,0,0-14.6,0A5.477,5.477,0,0,1,5,26.256a18.256,18.256,0,0,1,36.512,0A5.479,5.479,0,0,1,36.035,31.733Z" transform="translate(-5 -8)" fill="#6d4c41"/>
      <path id="Path_123993" data-name="Path 123993" d="M45.035,31.733a5.479,5.479,0,0,1-5.477-5.477,7.3,7.3,0,0,0-14.6,0,5.477,5.477,0,0,1-10.954,0,18.256,18.256,0,0,1,36.512,0A5.479,5.479,0,0,1,45.035,31.733Z" transform="translate(51.722 -8)" fill="#6d4c41"/>
      <path id="Path_123994" data-name="Path 123994" d="M49.813,41.166A59.266,59.266,0,0,1,7.6,23.677a5.479,5.479,0,0,1,7.748-7.748,48.367,48.367,0,0,0,34.46,14.284A48.42,48.42,0,0,0,84.28,15.936a5.479,5.479,0,1,1,7.748,7.748A59.319,59.319,0,0,1,49.813,41.166Z" transform="translate(1.304 31.858)" fill="#6d4c41"/>
    </g>
  </g>
</svg>
