<svg xmlns="http://www.w3.org/2000/svg" width="47.987" height="16" viewBox="0 0 47.987 16">
  <g id="Group_8633" data-name="Group 8633" transform="translate(-308.912 -419.863)">
    <path id="Path_6076" data-name="Path 6076" d="M329.228,419.869c0,.153-.006.306-.006.459q0,3.018,0,6.035c0,.3.038.27-.262.27H309.135c-.073,0-.146,0-.219-.007q0-3.276,0-6.553c0-.156.016-.211.2-.21Q319.169,419.873,329.228,419.869Z" transform="translate(0 0)" fill="#259ad5"/>
    <path id="Path_6077" data-name="Path 6077" d="M308.942,497.346c.086,0,.172.011.259.011h19.771c.258,0,.258,0,.258.268,0,2.072,0,4.145,0,6.217,0,.192-.032.253-.244.253q-9.9-.01-19.791-.005c-.086,0-.172.009-.258.014Z" transform="translate(-0.027 -68.241)" fill="#84b740"/>
    <path id="Path_6078" data-name="Path 6078" d="M615.6,423.388c-.077.082-.067.193-.093.292a2.618,2.618,0,0,1-2.862,1.97,4.81,4.81,0,0,1-1.366-.261,1.013,1.013,0,0,0-.547.052,4.024,4.024,0,0,1-.733.064q-3.577,0-7.155,0c-.2,0-.213-.057-.179-.224.055-.267.091-.538.125-.808.013-.1.05-.129.15-.128.812,0,1.625,0,2.438,0a1.386,1.386,0,0,1,.394.081c0-.121,0-.231,0-.34a13.125,13.125,0,0,0-.051-1.875,1.183,1.183,0,0,0-.784-1.041,1.4,1.4,0,0,0-.434-.05c-.393,0-.786-.008-1.179,0-.153,0-.177-.051-.154-.184.047-.276.082-.553.123-.829.011-.072.013-.148.122-.145a15.2,15.2,0,0,1,1.836.037,2.326,2.326,0,0,1,2.035,2.009,12.972,12.972,0,0,1,.076,2.073c.005.261,0,.261.262.261.826,0,1.652-.006,2.478,0a.218.218,0,0,0,.256-.225,2.508,2.508,0,0,0,.012-.3c0-.726,0-1.452,0-2.178a1.449,1.449,0,0,1,1.076-1.52,3.986,3.986,0,0,1,.775-.183c.036-.005.083.013.1-.041h.92c.009.031.032.034.06.038a2.508,2.508,0,0,1,2.186,1.891,1.964,1.964,0,0,0,.113.43Zm-3.711-.455c0,.379.005.759,0,1.137,0,.119.036.159.15.177a5.832,5.832,0,0,0,.834.07,1.044,1.044,0,0,0,1.127-.863,2.877,2.877,0,0,0,0-1.422.939.939,0,0,0-.965-.787,2.874,2.874,0,0,0-.889.1c-.3.085-.3.084-.265.374.01.092.009.186.01.279C611.887,422.308,611.886,422.62,611.887,422.933Z" transform="translate(-258.698 -0.041)" fill="#292b2f"/>
    <path id="Path_6079" data-name="Path 6079" d="M674.965,512.666c-.419-.074-.839-.143-1.257-.224a1.7,1.7,0,0,0-.688.005,3.857,3.857,0,0,1-1.82.02,1.551,1.551,0,0,1-.092-2.966,4.18,4.18,0,0,1,1.337-.193c.28,0,.56-.005.839,0,.114,0,.16-.017.161-.149.006-.628-.244-.892-.877-.886a6.081,6.081,0,0,0-1.932.368c-.068.024-.137.045-.217.07-.053-.355-.1-.7-.156-1.039-.011-.07-.006-.106.073-.131a7.577,7.577,0,0,1,2.658-.469,2.683,2.683,0,0,1,1.117.267,1.514,1.514,0,0,1,.812,1.186c.006.036-.013.083.04.1Zm-2.111-2.423a2.447,2.447,0,0,0-.847.083.614.614,0,0,0-.4.649.566.566,0,0,0,.475.54,1.921,1.921,0,0,0,.907-.059c.473-.1.475-.109.471-.589,0-.2.084-.459-.032-.579S673.039,510.264,672.854,510.242Z" transform="translate(-318.066 -76.803)" fill="#292b2f"/>
    <path id="Path_6080" data-name="Path 6080" d="M505.632,426.686c-1.166,0-2.333.018-3.5,0a2.282,2.282,0,0,1-2.38-2.288,5.879,5.879,0,0,1,.121-2.044,2.356,2.356,0,0,1,2.321-1.785c.66-.011,1.32,0,1.979-.006.117,0,.144.025.121.145-.054.281-.1.564-.125.849-.014.146-.075.167-.2.165-.386-.008-.773,0-1.16,0a1.2,1.2,0,0,0-1.385,1.15,4.756,4.756,0,0,0,.011,1.75,1.075,1.075,0,0,0,1.043.912c.638.053,1.279.018,1.918.022,1.439.009,2.879.007,4.318.009a1.6,1.6,0,0,0,.338-.027.734.734,0,0,0,.614-.807.724.724,0,0,0-.737-.693c-.626-.017-1.253.025-1.878-.025a1.568,1.568,0,0,1-1.575-1.366,1.688,1.688,0,0,1,1.2-1.994,4.062,4.062,0,0,1,1.281-.173c1.1,0,2.2,0,3.3,0,.15,0,.2.024.163.186-.057.267-.095.538-.125.809-.015.135-.067.17-.2.169-1.04-.006-2.079,0-3.119,0a1.879,1.879,0,0,0-.457.034.608.608,0,0,0-.514.7.634.634,0,0,0,.636.641c.459.015.919.008,1.379.007a3.181,3.181,0,0,1,.987.111,1.694,1.694,0,0,1,1.21,1.748,2.315,2.315,0,0,1-.159.818,1.625,1.625,0,0,1-1.252.916,5.3,5.3,0,0,1-1.172.1c-1,0-2,0-3,0Z" transform="translate(-168.049 -0.534)" fill="#292b2f"/>
    <path id="Path_6081" data-name="Path 6081" d="M499.776,510.289c0-.653,0-1.306,0-1.959,0-.575.154-.8.7-.965a5,5,0,0,1,2.677-.156.815.815,0,0,1,.331.13c.2.167.371.1.578.024a3.632,3.632,0,0,1,2.233-.157,1.5,1.5,0,0,1,1.188,1.4c.051.525.021,1.052.026,1.578.006.72,0,1.439,0,2.159,0,.132-.021.186-.17.183-.413-.011-.826-.01-1.239,0-.139,0-.178-.035-.177-.176.006-1.033,0-2.065,0-3.1a2.72,2.72,0,0,0-.01-.3.579.579,0,0,0-.542-.546,1.852,1.852,0,0,0-.917.146c-.084.036-.111.064-.069.158a.943.943,0,0,1,.052.393c0,1.079,0,2.159,0,3.238,0,.151-.037.189-.186.184-.4-.011-.8-.011-1.2,0-.151,0-.2-.03-.2-.192.008-1.013-.007-2.025.008-3.038.012-.773-.313-1-1.071-.861-.418.077-.417.085-.417.514,0,1.126,0,2.252,0,3.378,0,.157-.042.2-.2.2-.419-.011-.839-.009-1.259,0-.126,0-.157-.037-.156-.158C499.779,511.675,499.776,510.982,499.776,510.289Z" transform="translate(-168.096 -76.823)" fill="#292b2f"/>
    <path id="Path_6082" data-name="Path 6082" d="M625.286,490.638q0,1.569,0,3.137c0,.61-.137.8-.722.981a5.225,5.225,0,0,1-2.35.173,2.3,2.3,0,0,1-1.978-2.207,4.27,4.27,0,0,1,.156-1.7,2.046,2.046,0,0,1,1.96-1.486,3.032,3.032,0,0,1,1.121.144c.166.055.226.043.222-.158-.013-.653,0-1.306-.009-1.958,0-.156.053-.2.194-.226.414-.063.828-.127,1.238-.211.161-.033.172.021.171.153C625.284,488.4,625.286,489.519,625.286,490.638Zm-1.6,1.688c0-.426,0-.853,0-1.279,0-.087-.008-.152-.11-.178a3.436,3.436,0,0,0-.666-.126.95.95,0,0,0-1.038.749,2.9,2.9,0,0,0,0,1.521,1.027,1.027,0,0,0,1.092.807,4.66,4.66,0,0,0,.573-.072c.126-.016.146-.073.145-.183C623.686,493.152,623.689,492.739,623.689,492.326Z" transform="translate(-274.17 -59.233)" fill="#292b2f"/>
    <path id="Path_6083" data-name="Path 6083" d="M576.768,510.648c0,.62,0,1.24,0,1.859,0,.123-.008.175-.161.143-.442-.094-.89-.164-1.334-.25a1.065,1.065,0,0,0-.412.048,4.1,4.1,0,0,1-1.841.022,1.55,1.55,0,0,1-.11-2.964,4.457,4.457,0,0,1,1.5-.2c.24,0,.48,0,.72,0,.046,0,.1.027.127-.054a.74.74,0,0,0-.541-.944,3.5,3.5,0,0,0-1.23.059,6.3,6.3,0,0,0-1.113.307c-.119.042-.146.014-.159-.1-.033-.291-.08-.58-.123-.87-.011-.076-.02-.131.084-.163a7.689,7.689,0,0,1,2.579-.466,2.953,2.953,0,0,1,1.034.2,1.555,1.555,0,0,1,.975,1.535c.015.613,0,1.226,0,1.839Zm-2.11-.4v-.009c-.206.01-.413.008-.617.034a.631.631,0,0,0-.586.438.613.613,0,0,0,.605.836,3.678,3.678,0,0,0,1.136-.189c.1-.024.081-.09.081-.154,0-.273-.011-.546,0-.819,0-.123-.049-.144-.155-.139C574.964,510.251,574.811,510.246,574.657,510.246Z" transform="translate(-231.59 -76.805)" fill="#292b2f"/>
  </g>
</svg>
