<svg xmlns="http://www.w3.org/2000/svg" width="35" height="35" viewBox="0 0 35 35">
  <g id="Group_81947" data-name="Group 81947" transform="translate(-311 -20.513)">
    <path id="Rectangle_26771" data-name="Rectangle 26771" d="M-574.079,468.553h0a17.5,17.5,0,0,1,17.5,17.5h0a17.5,17.5,0,0,1-17.5,17.5h0a17.5,17.5,0,0,1-17.5-17.5h0A17.5,17.5,0,0,1-574.079,468.553Z" transform="translate(902.579 -448.04)" fill="#fd5151"/>
    <path id="Union_6" data-name="Union 6" d="M2396.073-1043.206a.768.768,0,0,1-.795-.737.767.767,0,0,1,.795-.737h3.177a.767.767,0,0,1,.794.737.767.767,0,0,1-.794.737Zm-3.178-2.949a2.3,2.3,0,0,1-2.383-2.211,2.195,2.195,0,0,1,1.275-1.957.649.649,0,0,0,.314-.588v-4.531a5.311,5.311,0,0,1,4.767-5.107v-.79a.767.767,0,0,1,.794-.737.767.767,0,0,1,.794.737v.79a5.31,5.31,0,0,1,4.766,5.107v4.531a.649.649,0,0,0,.314.588,2.194,2.194,0,0,1,1.275,1.957,2.3,2.3,0,0,1-2.383,2.211Z" transform="translate(-2069.162 1090.655)" fill="#fff"/>
  </g>
</svg>
