<svg xmlns="http://www.w3.org/2000/svg" xmlns:xlink="http://www.w3.org/1999/xlink" width="196.964" height="196.105" viewBox="0 0 196.964 196.105">
  <defs>
    <radialGradient id="radial-gradient" cx="0.667" cy="0.241" r="0.714" gradientTransform="translate(0)" gradientUnits="objectBoundingBox">
      <stop offset="0" stop-color="#fcf3b3"/>
      <stop offset="0.5" stop-color="#f7e041"/>
      <stop offset="1" stop-color="#ffa538"/>
    </radialGradient>
    <linearGradient id="linear-gradient" x1="0.258" y1="-9.006" x2="0.258" y2="-9.59" gradientUnits="objectBoundingBox">
      <stop offset="0" stop-color="#8b451c"/>
      <stop offset="1" stop-color="#401b06"/>
    </linearGradient>
    <linearGradient id="linear-gradient-2" x1="0.476" y1="-7.983" x2="0.476" y2="-8.567" xlink:href="#linear-gradient"/>
    <linearGradient id="linear-gradient-3" x1="0.5" y1="0.259" x2="1.424" y2="1.07" gradientUnits="objectBoundingBox">
      <stop offset="0" stop-color="#2f97f7"/>
      <stop offset="1" stop-color="#79d3fe"/>
    </linearGradient>
    <linearGradient id="linear-gradient-4" x1="0.245" y1="0.143" x2="0.777" y2="1.059" xlink:href="#linear-gradient-3"/>
    <linearGradient id="linear-gradient-5" x1="0.46" y1="-2.386" x2="1.253" y2="-2.386" gradientUnits="objectBoundingBox">
      <stop offset="0" stop-color="#0072bc"/>
      <stop offset="0.02" stop-color="#0375be"/>
      <stop offset="0.344" stop-color="#369dd9"/>
      <stop offset="0.626" stop-color="#5abaed"/>
      <stop offset="0.854" stop-color="#71ccfa"/>
      <stop offset="1" stop-color="#79d3fe"/>
    </linearGradient>
    <linearGradient id="linear-gradient-6" x1="0.479" y1="-4.746" x2="1.324" y2="-4.746" gradientUnits="objectBoundingBox">
      <stop offset="0" stop-color="#ff4757"/>
      <stop offset="1" stop-color="#ff7a85"/>
    </linearGradient>
    <linearGradient id="linear-gradient-7" x1="0.719" y1="-6.854" x2="1.59" y2="-6.854" xlink:href="#linear-gradient-6"/>
    <linearGradient id="linear-gradient-8" x1="1.224" y1="-9.428" x2="2.09" y2="-9.428" xlink:href="#linear-gradient-6"/>
    <linearGradient id="linear-gradient-9" x1="2.732" y1="-14.829" x2="3.584" y2="-14.829" xlink:href="#linear-gradient-6"/>
    <linearGradient id="linear-gradient-10" x1="14.11" y1="-25.057" x2="14.949" y2="-25.325" xlink:href="#linear-gradient-6"/>
    <linearGradient id="linear-gradient-11" x1="10.691" y1="-29.518" x2="11.53" y2="-29.786" xlink:href="#linear-gradient-3"/>
    <linearGradient id="linear-gradient-12" x1="-8.085" y1="0.132" x2="-7.245" y2="-0.239" gradientUnits="objectBoundingBox">
      <stop offset="0" stop-color="#06daae"/>
      <stop offset="1" stop-color="#9bf0df"/>
    </linearGradient>
    <linearGradient id="linear-gradient-13" x1="-3.006" y1="-26.817" x2="-2.223" y2="-27.179" xlink:href="#linear-gradient-6"/>
    <linearGradient id="linear-gradient-14" x1="-1.935" y1="-23.148" x2="-1.151" y2="-23.51" xlink:href="#linear-gradient-3"/>
  </defs>
  <g id="Group_94747" data-name="Group 94747" transform="translate(-1132.017 -228.949)">
    <g id="confetti" transform="translate(1132.018 228.939)" opacity="0.055">
      <circle id="Ellipse_3008" data-name="Ellipse 3008" cx="11.4" cy="11.4" r="11.4" transform="translate(46.53 7.098) rotate(-17.524)" fill="#ff5073"/>
      <path id="Path_123106" data-name="Path 123106" d="M162.906,16.135A11.4,11.4,0,0,0,148.6,8.7c-.265.084-.523.179-.778.28a11.4,11.4,0,0,1-.006,21.181,11.4,11.4,0,0,0,15.087-14.023Z" transform="translate(-91.202 -5.032)" fill="#eb3d60"/>
      <circle id="Ellipse_3009" data-name="Ellipse 3009" cx="11.4" cy="11.4" r="11.4" transform="translate(0.935 190.89) rotate(-79.152)" fill="#ff5073"/>
      <path id="Path_123107" data-name="Path 123107" d="M32.645,445.182a11.343,11.343,0,0,0-6.357.6,11.4,11.4,0,0,1,0,21.183,11.4,11.4,0,1,0,6.36-21.788Z" transform="translate(-16.218 -274.537)" fill="#eb3d60"/>
      <path id="Path_123108" data-name="Path 123108" d="M144.637,365.455l9.684,11.939,15.325-1.209-8.362,12.9,5.886,14.2-14.852-3.967-11.688,9.986-.817-15.351-13.109-8.03,14.347-5.521Z" transform="translate(-78.175 -225.474)" fill="#ffb429"/>
      <g id="Group_93074" data-name="Group 93074" transform="translate(74.683 150.711)">
        <path id="Path_123109" data-name="Path 123109" d="M211.777,393.47l-8.881.7-7.908,12.2,4.837,11.671,9.475,2.531-5.886-14.2Z" transform="translate(-194.988 -393.47)" fill="#f5a40c"/>
      </g>
      <path id="Path_123110" data-name="Path 123110" d="M374.646,36.52l-1.594,15.29,11.692,9.982L369.709,65l-5.88,14.2-7.7-13.307-15.326-1.2,10.277-11.432-3.592-14.948,14.049,6.241Z" transform="translate(-210.272 -22.526)" fill="#ffb429"/>
      <g id="Group_93075" data-name="Group 93075" transform="translate(153.587 13.994)">
        <path id="Path_123111" data-name="Path 123111" d="M402.346,42.305l-1.351,12.952,10.3,8.793,10.584-2.259L410.187,51.81l1.595-15.29Z" transform="translate(-400.995 -36.52)" fill="#f5a40c"/>
      </g>
      <g id="Group_93078" data-name="Group 93078" transform="translate(0 27.622)">
        <circle id="Ellipse_3010" data-name="Ellipse 3010" cx="11.4" cy="11.4" r="11.4" transform="translate(108.651 65.826) rotate(-62.523)" fill="#ff5073"/>
        <path id="Path_123112" data-name="Path 123112" d="M322.272,202.809a11.371,11.371,0,0,0-9.468-.477q.527.211,1.042.477a11.4,11.4,0,0,1-1.051,20.705,11.4,11.4,0,0,0,9.477-20.705Z" transform="translate(-192.989 -151.952)" fill="#eb3d60"/>
        <circle id="Ellipse_3011" data-name="Ellipse 3011" cx="11.4" cy="11.4" r="11.4" transform="translate(166.216 124.533) rotate(-62.523)" fill="#ff5073"/>
        <path id="Path_123113" data-name="Path 123113" d="M472.563,356.083a11.371,11.371,0,0,0-9.468-.477q.527.211,1.042.477a11.4,11.4,0,0,1-1.051,20.705,11.4,11.4,0,0,0,9.477-20.705Z" transform="translate(-285.717 -246.52)" fill="#eb3d60"/>
        <g id="Group_93077" data-name="Group 93077">
          <g id="Group_93076" data-name="Group 93076">
            <path id="Path_123114" data-name="Path 123114" d="M19.932,243.363c-2.57-1.117-3.945-1.8-4.663-3.984s-.018-3.551,1.388-5.975c1.529-2.637,3.432-5.919,1.876-10.652s-5.036-6.245-7.832-7.46c-2.57-1.117-3.945-1.8-4.664-3.985s-.018-3.551,1.388-5.976c1.529-2.637,3.432-5.919,1.876-10.652a2.873,2.873,0,1,0-5.458,1.795c.718,2.184.018,3.551-1.388,5.976C.926,205.088-.977,208.369.58,213.1s5.036,6.245,7.832,7.46c2.571,1.117,3.946,1.8,4.664,3.985s.018,3.551-1.388,5.975c-1.529,2.637-3.432,5.919-1.876,10.652s5.036,6.244,7.832,7.459c2.57,1.117,3.945,1.8,4.663,3.984s.017,3.549-1.388,5.974c-1.529,2.637-3.433,5.918-1.876,10.651a2.873,2.873,0,1,0,5.458-1.795c-.718-2.183-.017-3.549,1.388-5.974,1.529-2.637,3.433-5.918,1.876-10.651S22.728,244.578,19.932,243.363Z" transform="translate(0 -146.511)" fill="#86df75"/>
            <path id="Path_123115" data-name="Path 123115" d="M194.715,73.045c-1.544,1.7-3.079,1.767-5.881,1.746-3.047-.026-6.842-.059-10.188,3.632s-2.941,7.463-2.616,10.495c.3,2.786.383,4.32-1.161,6.024s-3.082,1.77-5.881,1.745c-3.05-.026-6.842-.06-10.187,3.632s-2.94,7.463-2.615,10.494c.3,2.786.383,4.32-1.16,6.023s-3.078,1.769-5.88,1.745c-3.049-.025-6.842-.06-10.187,3.631a2.873,2.873,0,0,0,4.257,3.859c1.543-1.7,3.076-1.768,5.88-1.745,3.049.025,6.842.06,10.187-3.631s2.94-7.463,2.615-10.494c-.3-2.786-.383-4.32,1.16-6.023s3.075-1.77,5.881-1.745c3.045.024,6.842.059,10.188-3.632s2.941-7.463,2.616-10.495c-.3-2.786-.383-4.32,1.161-6.023s3.08-1.772,5.881-1.746c3.048.028,6.842.059,10.188-3.632a2.873,2.873,0,0,0-4.258-3.859Z" transform="translate(-85.276 -72.101)" fill="#86df75"/>
            <path id="Path_123116" data-name="Path 123116" d="M351.652,292.522a2.873,2.873,0,0,0-3.59,1.9c-.675,2.2-2.036,2.909-4.585,4.076-2.772,1.269-6.221,2.849-7.684,7.611s.5,8.007,2.084,10.613c1.453,2.4,2.18,3.75,1.5,5.947s-2.036,2.908-4.585,4.075c-2.771,1.269-6.221,2.849-7.684,7.611s.5,8.006,2.084,10.612c1.453,2.4,2.18,3.749,1.5,5.946s-2.036,2.907-4.584,4.074c-2.772,1.269-6.221,2.848-7.684,7.61a2.873,2.873,0,1,0,5.492,1.688c.675-2.2,2.036-2.907,4.584-4.074,2.772-1.269,6.221-2.848,7.684-7.61s-.5-8.006-2.084-10.612c-1.453-2.4-2.18-3.749-1.5-5.946s2.036-2.908,4.585-4.075c2.771-1.269,6.221-2.849,7.684-7.611s-.5-8.006-2.084-10.613c-1.453-2.4-2.18-3.75-1.5-5.947s2.036-2.909,4.585-4.076c2.772-1.269,6.221-2.849,7.684-7.612A2.873,2.873,0,0,0,351.652,292.522Z" transform="translate(-196.389 -208.018)" fill="#86df75"/>
          </g>
        </g>
      </g>
      <g id="Group_93079" data-name="Group 93079" transform="translate(0.008 0.01)">
        <path id="Path_123117" data-name="Path 123117" d="M443.575,234.947a2.873,2.873,0,0,0-4.3,3.815l11.14,12.545a2.873,2.873,0,0,0,4.3-3.815Z" transform="translate(-270.589 -144.367)" fill="#1371ef"/>
        <path id="Path_123118" data-name="Path 123118" d="M233.111,304.115l-16.64,2.14a2.873,2.873,0,1,0,.733,5.7l16.64-2.14a2.873,2.873,0,1,0-.733-5.7Z" transform="translate(-132.02 -187.623)" fill="#1371ef"/>
        <path id="Path_123119" data-name="Path 123119" d="M446.692,482.845l-14.109-9.078a2.873,2.873,0,0,0-3.109,4.832l14.109,9.078a2.873,2.873,0,0,0,3.109-4.832Z" transform="translate(-264.173 -292.028)" fill="#abeeff"/>
        <path id="Path_123120" data-name="Path 123120" d="M106.115,267.613a2.873,2.873,0,0,0-4.3,3.815l11.14,12.545a2.873,2.873,0,0,0,4.3-3.815Z" transform="translate(-62.381 -164.521)" fill="#abeeff"/>
        <path id="Path_123121" data-name="Path 123121" d="M17.585.976A2.872,2.872,0,0,0,13.53.736L.985,11.876a2.872,2.872,0,1,0,3.815,4.3L17.344,5.032A2.872,2.872,0,0,0,17.585.976Z" transform="translate(-0.02 -0.011)" fill="#abeeff"/>
        <path id="Path_123122" data-name="Path 123122" d="M49.447,109.518a2.873,2.873,0,0,0-4.3,3.815l11.14,12.545a2.873,2.873,0,0,0,4.3-3.815Z" transform="translate(-27.418 -66.979)" fill="#1371ef"/>
        <path id="Path_123123" data-name="Path 123123" d="M492.691,17.451l-6.13-15.617a2.873,2.873,0,1,0-5.348,2.1l6.13,15.617a2.873,2.873,0,0,0,5.348-2.1Z" transform="translate(-296.785 -0.01)" fill="#1371ef"/>
        <path id="Path_123124" data-name="Path 123124" d="M455.367,148.468l-15.736,5.817a2.873,2.873,0,1,0,1.992,5.389l15.736-5.817a2.873,2.873,0,0,0-1.992-5.389Z" transform="translate(-270.095 -91.496)" fill="#abeeff"/>
      </g>
    </g>
    <g id="celebration" transform="translate(1162.625 271.302)">
      <circle id="Ellipse_3007" data-name="Ellipse 3007" cx="32.78" cy="32.78" r="32.78" transform="translate(39.259 24.902)" fill="url(#radial-gradient)"/>
      <g id="Group_93070" data-name="Group 93070" transform="translate(74.187 44.851)">
        <g id="Group_93068" data-name="Group 93068" transform="translate(0 8.579)">
          <path id="Path_123087" data-name="Path 123087" d="M256.348,273.484a.964.964,0,0,1-.909-1.283c.067-.19,1.671-4.673,4.752-6.451a4.01,4.01,0,0,1,5.636,1.286.964.964,0,0,1-1.655.988,2.062,2.062,0,0,0-3.017-.605c-2.459,1.42-3.884,5.383-3.9,5.423A.965.965,0,0,1,256.348,273.484Z" transform="translate(-255.384 -265.086)" fill="url(#linear-gradient)"/>
        </g>
        <g id="Group_93069" data-name="Group 93069" transform="translate(14.86)">
          <path id="Path_123088" data-name="Path 123088" d="M330.072,230.919a.964.964,0,0,1-.909-1.284c.067-.19,1.671-4.673,4.752-6.451a4.01,4.01,0,0,1,5.636,1.286.964.964,0,0,1-1.655.988,2.062,2.062,0,0,0-3.017-.605c-2.049,1.183-3.508,4.315-3.9,5.422A.965.965,0,0,1,330.072,230.919Z" transform="translate(-329.108 -222.521)" fill="url(#linear-gradient-2)"/>
        </g>
      </g>
      <g id="Group_93072" data-name="Group 93072" transform="translate(89.463 61.145)">
        <path id="Path_123089" data-name="Path 123089" d="M362.786,314.092a13.425,13.425,0,0,0-3.221-8.146c-1.9-2.2-4.037-3.095-5.458-2.3h0l-.022.013-.006,0-.006,0-4.954,2.866a19.241,19.241,0,0,1,3.524,2.011l1.538,1.29a6.625,6.625,0,0,1,2.055,3.387h0l.409,2.128c.109.746.189,1.477.246,2.06q-.168-.082-.338-.18l-18.827-10.87a.448.448,0,0,0-.465-.034h0l-4.953,2.866L355.7,322.341l4.963-2.871h0l.006,0h0a3.681,3.681,0,0,0,1.433-1.595,7.967,7.967,0,0,0,.684-3.779Z" transform="translate(-332.076 -303.361)" fill="url(#linear-gradient-3)"/>
        <path id="Path_123090" data-name="Path 123090" d="M380.3,352.322a3.817,3.817,0,0,0-2.68,1.094l6.411,3.6a3.83,3.83,0,0,0-3.731-4.7Z" transform="translate(-368.261 -342.454)" fill="#ff7a85"/>
        <path id="Path_123091" data-name="Path 123091" d="M449.557,364.655c.053.438.086.875.1,1.305a7.623,7.623,0,0,1-.89,3.715,4.045,4.045,0,0,1-1.2,1.514l.162.091,4.963-2.871h0l.006,0h0l.088-.053A3.832,3.832,0,0,0,449.557,364.655Z" transform="translate(-424.102 -352.301)" fill="#ff7a85"/>
        <path id="Path_123092" data-name="Path 123092" d="M421.142,330.827a4.323,4.323,0,0,1-.945-1,6.957,6.957,0,0,1-1.182-2.711,8.156,8.156,0,0,0-2.649-1.621,1.924,1.924,0,0,0-1.955.469c-1.248,1.393-.862,3.283-.145,5.892s4.673,3.895,4.673,3.895l2.9-1.677A20.376,20.376,0,0,0,421.142,330.827Z" transform="translate(-396.984 -320.969)" fill="url(#linear-gradient-4)"/>
        <path id="Path_123093" data-name="Path 123093" d="M464.293,317.714a13.632,13.632,0,0,0-2.724-5.057,11.109,11.109,0,0,0-.859-.89,3.833,3.833,0,0,0,3.583,5.947Z" transform="translate(-434.081 -310.073)" fill="#ff7a85"/>
        <path id="Path_123094" data-name="Path 123094" d="M361.274,319.688a3.831,3.831,0,0,0,6.379,3.683Z" transform="translate(-355.115 -316.397)" fill="#ff7a85"/>
        <g id="Group_93071" data-name="Group 93071" transform="translate(0 2.858)">
          <path id="Path_123095" data-name="Path 123095" d="M350.7,333.288l-18.827-10.87a1.689,1.689,0,0,1-.705-1.347c0-.519.316-.758.705-.533l18.827,10.87c1.831,1.057,3.478.7,4.3-.944a6.205,6.205,0,0,0,.527-2.937,9.751,9.751,0,0,0-2.374-6c-1.4-1.614-3-2.309-4-1.73-.674.391-1.088,1.635-1.007,3.024a6.839,6.839,0,0,0,1.293,3.575c1.6,2.247,2.795,1.1,2.925.96.243-.266.685-.076.99.424a1.3,1.3,0,0,1,.111,1.388,2.236,2.236,0,0,1-2.881.25,6.278,6.278,0,0,1-1.888-1.851,10.522,10.522,0,0,1-1.957-5.406c-.118-2.029.466-3.724,1.488-4.317,1.421-.824,3.574.072,5.486,2.283a13.426,13.426,0,0,1,3.221,8.146,7.971,7.971,0,0,1-.684,3.779C355.19,334.177,353.063,334.651,350.7,333.288Z" transform="translate(-331.171 -317.541)" fill="#0072bc"/>
        </g>
      </g>
      <g id="Group_93073" data-name="Group 93073" transform="translate(43.553 0)">
        <path id="Path_123096" data-name="Path 123096" d="M137.159,24.82,104.759.175a.848.848,0,0,0-1.36.717l2.145,43.5c.122,3.949,2.947,6.7,8.013,6.97,8.027.429,18.639-5.53,23.7-13.309,3.686-5.663,3.414-10.729-.1-13.232Z" transform="translate(-103.398 0)" fill="url(#linear-gradient-5)"/>
        <path id="Path_123097" data-name="Path 123097" d="M143.679,108.125l-3.935-2.993c1.689,2.3,1.425,5.892-1.142,9.836-4.225,6.492-13.08,11.464-19.778,11.106-3.193-.171-5.318-1.523-6.211-3.594l.267,5.412c.909,2.59,3.4,4.3,7.242,4.5,7.64.408,17.74-5.263,22.559-12.667,3.075-4.724,3.256-9.012,1-11.6Z" transform="translate(-110.755 -83.942)" fill="url(#linear-gradient-6)"/>
        <path id="Path_123098" data-name="Path 123098" d="M136.726,87.168,132.566,84a13.328,13.328,0,0,1-1.709,3.642c-3.883,5.965-12.02,10.534-18.175,10.205a9.424,9.424,0,0,1-2.048-.324l.274,5.559a10.153,10.153,0,0,0,2.966.573c7.02.375,16.3-4.836,20.73-11.64A14.465,14.465,0,0,0,136.726,87.168Z" transform="translate(-109.176 -67.072)" fill="url(#linear-gradient-7)"/>
        <path id="Path_123099" data-name="Path 123099" d="M126.645,56.333l-4.457-3.39c-3.237,5.506-9.12,8.974-14.243,8.785l.294,5.957C115.3,68.017,122.945,63,126.645,56.333Z" transform="translate(-107.029 -42.272)" fill="url(#linear-gradient-8)"/>
        <path id="Path_123100" data-name="Path 123100" d="M114.962,20.668l-4.771-3.629a8.01,8.01,0,0,1-5.357,3.3l.314,6.378A13.733,13.733,0,0,0,114.962,20.668Z" transform="translate(-104.545 -13.605)" fill="url(#linear-gradient-9)"/>
      </g>
      <path id="Path_123101" data-name="Path 123101" d="M284.412,24.368,279.2,34.33c-.613,1.171-.613,2.5,0,2.959l1.461,1.1c.613.463,1.606-.11,2.219-1.281l5.214-9.962c.613-1.171.613-2.5,0-2.959l-1.461-1.1c-.613-.463-1.606.11-2.219,1.281Z" transform="translate(-199.844 -18.305)" fill="url(#linear-gradient-10)"/>
      <path id="Path_123102" data-name="Path 123102" d="M125.123,435.907l-5.214,9.962c-.613,1.171-.613,2.5,0,2.959l1.461,1.1c.613.463,1.606-.11,2.219-1.281l5.214-9.962c.613-1.171.613-2.5,0-2.959l-1.461-1.1C126.729,434.162,125.735,434.736,125.123,435.907Z" transform="translate(-72.661 -346.895)" fill="url(#linear-gradient-11)"/>
      <path id="Path_123103" data-name="Path 123103" d="M37.8,173.519l-5.214-3.942c-.613-.463-1.606.11-2.219,1.281l-1.461,2.791c-.613,1.171-.613,2.5,0,2.959l5.214,3.942c.613.463,1.606-.11,2.219-1.281l1.461-2.791C38.412,175.307,38.412,173.982,37.8,173.519Z" transform="translate(0 -135.269)" fill="url(#linear-gradient-12)"/>
      <path id="Path_123104" data-name="Path 123104" d="M42.92,348.529l-7.374,4.257a3.758,3.758,0,0,0-1.569,3v2.754c0,1.156.7,1.687,1.569,1.186l7.374-4.257a3.757,3.757,0,0,0,1.569-3v-2.754c0-1.156-.7-1.687-1.569-1.186Z" transform="translate(-4.416 -278.13)" fill="url(#linear-gradient-13)"/>
      <path id="Path_123105" data-name="Path 123105" d="M404.045,123.733l-7.374,4.257a3.758,3.758,0,0,0-1.569,3v2.754c0,1.156.7,1.687,1.569,1.186l7.374-4.257a3.758,3.758,0,0,0,1.569-3v-2.754C405.614,123.763,404.912,123.232,404.045,123.733Z" transform="translate(-292.754 -98.643)" fill="url(#linear-gradient-14)"/>
    </g>
  </g>
</svg>
