<svg xmlns="http://www.w3.org/2000/svg" width="10.956" height="13.39" viewBox="0 0 10.956 13.39">
  <g id="Layer_2" data-name="Layer 2" transform="translate(-3.001 -0.999)">
    <path id="Path_105054" data-name="Path 105054" d="M11.959,2.247a5.476,5.476,0,1,0-6.814,8.572,9.282,9.282,0,0,1,2.387,2.567l.426.708a.609.609,0,0,0,1.043,0l.408-.68a7.742,7.742,0,0,1,2.178-2.435,5.472,5.472,0,0,0,.372-8.735ZM8.478,8.912a2.435,2.435,0,1,1,2.435-2.435A2.435,2.435,0,0,1,8.478,8.912Z" transform="translate(0 0)" fill="#fdce36"/>
  </g>
</svg>
