<svg xmlns="http://www.w3.org/2000/svg" width="20.369" height="19.655" viewBox="0 0 20.369 19.655">
  <path id="Path_16834" data-name="Path 16834" d="M4.6,12.276l7.263-7a1.149,1.149,0,0,1,.69-.317L23.127,4a1.155,1.155,0,0,1,.905.317,1.07,1.07,0,0,1,.328.873l-1,10.208a1.076,1.076,0,0,1-.328.666l-7.251,7.009a2.121,2.121,0,0,1-1.459.579,2.1,2.1,0,0,1-1.448-.579L4.6,15.081a1.938,1.938,0,0,1,0-2.806Zm11.211,0a1.741,1.741,0,0,0,2.4,0,1.6,1.6,0,0,0,0-2.316,1.741,1.741,0,0,0-2.4,0,1.587,1.587,0,0,0,0,2.293Z" transform="translate(-3.996 -3.996)" fill="#490059"/>
</svg>
