<svg xmlns="http://www.w3.org/2000/svg" width="307.918" height="286.828" viewBox="0 0 307.918 286.828">
  <g id="Group_94796" data-name="Group 94796" transform="translate(0 0)">
    <path id="Path_123751" data-name="Path 123751" d="M57.8,1476a1.273,1.273,0,0,0,0,2.543H337.2a1.259,1.259,0,0,0,1.259-1.253c0-.008,0-.017,0-.025A1.259,1.259,0,0,0,337.2,1476Z" transform="translate(-45.689 -1191.719)" fill="#064c91" opacity="0.167"/>
    <path id="Path_123752" data-name="Path 123752" d="M887.579,731.653l-2.093-3.026-3.679.008a.506.506,0,0,1-.4-.812l2.232-2.925-1.145-3.5a.506.506,0,0,1,.648-.634l3.472,1.218,2.972-2.169a.506.506,0,0,1,.8.42l-.086,3.678,2.982,2.156a.506.506,0,0,1-.151.894l-3.525,1.055-1.129,3.5a.506.506,0,0,1-.9.132" transform="translate(-711.558 -581.095)" fill="#ff6e53"/>
    <path id="Path_123753" data-name="Path 123753" d="M1283.865,319.606l1.94-4.492-2.6-4.145a.672.672,0,0,1,.632-1.027l4.872.457,3.138-3.754a.672.672,0,0,1,1.172.284l1.071,4.774,4.54,1.824a.672.672,0,0,1,.092,1.2l-4.21,2.494-.332,4.882a.673.673,0,0,1-1.115.459l-3.673-3.233-4.746,1.193a.673.673,0,0,1-.781-.919" transform="translate(-1035.97 -247.387)" fill="#ffcb83"/>
    <path id="Path_123754" data-name="Path 123754" d="M67.012,1005.654l-2.489-4.762-5.334-.649a.738.738,0,0,1-.438-1.249l3.76-3.839-1.031-5.273a.738.738,0,0,1,1.053-.8l4.813,2.389,4.7-2.61a.738.738,0,0,1,1.089.753l-.785,5.316,3.934,3.661a.739.739,0,0,1-.38,1.269l-5.3.9-2.266,4.872a.738.738,0,0,1-1.324.031" transform="translate(-47.264 -798.322)" fill="#65cefe"/>
    <path id="Path_123755" data-name="Path 123755" d="M1547.707,482.364l.062,2.6-4.176.563-.378,3.816-3.057.932.472,1.547,4.088-1.247.358-3.617,4.345-.586-.094-3.916Z" transform="translate(-1243.518 -389.458)" fill="#65cefe"/>
    <path id="Path_123756" data-name="Path 123756" d="M433.544,93.939a3.2,3.2,0,0,1,3.566-2.71,3.175,3.175,0,1,1-3.566,2.71m1.682-4.678.836-13.712a1.986,1.986,0,0,1,2.2-1.853l1.364.153a1.986,1.986,0,0,1,1.74,2.291L439.18,89.7Z" transform="translate(-350.015 -59.49)" fill="#490059"/>
    <path id="Path_123757" data-name="Path 123757" d="M333.462,667.331c.093,3.4.97,10.7,8.683,11.906,4.788.749,10.919-3.552,10.524-6.71s-1.272-11.2-6.271-13.046c-4.177-1.539-13.143.261-12.936,7.85" transform="translate(-269.233 -532.054)" fill="#031322"/>
    <path id="Path_123758" data-name="Path 123758" d="M667.593,1269.82c1.091,4.579,1.949,11.187,2.268,11.556.153.177.471,1.332.625,1.519,4.981,1.812,9.357-.058,12.826-2.115-2.72-.482-6.381-.983-6.892-1.344-1.893-1.336-1.44-6.092-1.781-10.36-1.347.238-4.616-.613-7.046.744" transform="translate(-539.012 -1024.607)" fill="#f7a491"/>
    <path id="Path_123759" data-name="Path 123759" d="M678.831,1330.382c.032,1.809,1.2,5.67,1.556,5.665.43-.005,15.4-1.3,16.809-3.6.848-1.38-1.457-1.74-4.81-2.4-3.469,2.057-13.138,1.469-13.555.336" transform="translate(-548.086 -1073.873)" fill="#064c91"/>
    <path id="Path_123760" data-name="Path 123760" d="M251.167,1326.2a68.193,68.193,0,0,1-7.406,5.09c-.212.1-1.409.1-1.631.195-3.08,4.313-2.451,9.031-1.4,12.924,1.193-2.491,2.6-5.969,3.141-6.28a73.136,73.136,0,0,1,9.583-4.623c-1.9-2.058-1.633-4.6-2.288-7.306" transform="translate(-193.669 -1070.766)" fill="#f7a491"/>
    <path id="Path_123761" data-name="Path 123761" d="M249.207,829.375l-10.7,19.461s-7.153,9-10.836,13.622c.793,1.3,1.56,2.628,2.245,3.995,3.664-3.116,11.46-9.727,14.242-13.381,4.111-5.4,11.552-18.214,11.552-18.214Z" transform="translate(-183.822 -669.633)" fill="#f7a491"/>
    <path id="Path_123762" data-name="Path 123762" d="M439.035,1005.236l-11.442,16.879s-.657-1.131,3.441.368,30.524,6.435,32.088,8.3c1.107,1.321,9.3,27.244,10.882,30.572,2.377.964,5.835-.106,8.275-.457.155-12.488-6.457-35.222-8.221-37.886-3.944-5.957-22.719-12.393-31.171-16-1.371-.586-2.434-1.111-3.094-1.429-.488-.235-.758-.344-.758-.344" transform="translate(-345.206 -811.623)" fill="#4054e7"/>
    <path id="Path_123763" data-name="Path 123763" d="M229.462,1351.4c-1.751-.454-5.321-.441-5.413-.093-.11.415-2.871,15.184-1.036,17.158,1.1,1.187,2.067-.937,3.6-3.991-1.052-3.893,1.643-12.977,2.846-13.075" transform="translate(-179.553 -1090.831)" fill="#064c91"/>
    <path id="Path_123764" data-name="Path 123764" d="M325.828,1001.1c.1-1.268,2.81-8.667,3.77-11.548.03-.091-.679-1.757-1.445-4.154l-1.1.176-16.268.737s-6.551,11.066-5.789,16.15c1.065,7.1,11.326,32.325,9.765,33.514-2.816,2.145-16.613,10.139-23.7,14.893a21.433,21.433,0,0,0,3.462,8.769c5.769-2.006,30.7-12.057,33.265-19.767,2.265-6.811-2.128-36.615-1.959-38.77" transform="translate(-235.002 -795.61)" fill="#6577ff"/>
    <path id="Path_123765" data-name="Path 123765" d="M440.354,743.926s-4.481,7.039-7.122,7.293l9.344,8.645s6.365-9.544,7.029-11.181c0,0-5.793-5.16-9.251-4.758" transform="translate(-349.79 -600.624)" fill="#e0a387"/>
    <path id="Path_123766" data-name="Path 123766" d="M353.017,815.856a24.889,24.889,0,0,0,.776,8.115c-3.757.807-17.076,2.5-20.333-1.461-.117-.142,4.612-8.483,3.961-11.888-.961-5.023-5.132-13.542-5.477-14-.581-.766-2.714,3.2-2.714,3.2-2.5.013-8.221-5.794-8.221-5.794s5.918-10.31,7.547-11.28,15.084-2.434,15.094-2.435c.99-.071,3.695,2.276,4.438,3.018,8.505,8.486,6.214,20.645,4.929,32.526" transform="translate(-259.181 -630.019)" fill="#e0a387"/>
    <path id="Path_123767" data-name="Path 123767" d="M399.178,744.652s1.466,4.846,1.477,6.816.8,4.651,4.927,4.245.742-4.563.156-6.434a73.508,73.508,0,0,1-1.29-7.778Z" transform="translate(-322.295 -598.684)" fill="#f7a491"/>
    <path id="Path_123768" data-name="Path 123768" d="M404.84,744.461c-.232-1.612-.392-2.96-.392-2.96l-5.27,3.151s.3.991.63,2.259a4.86,4.86,0,0,0,5.032-2.45" transform="translate(-322.295 -598.684)" fill="#f47458"/>
    <path id="Path_123769" data-name="Path 123769" d="M365.006,677.483a7.451,7.451,0,0,0-2.73,4.377c-.557,2.859,1.142,9.914,7.276,11.025s8.129-4.82,6.445-9.122-4.932-9.635-10.991-6.279" transform="translate(-292.42 -546.144)" fill="#f7a491"/>
    <path id="Path_123770" data-name="Path 123770" d="M426.25,696.11c.006,1.2-.556,2.178-1.256,2.182s-1.272-.967-1.279-2.169.556-2.178,1.256-2.182,1.272.968,1.279,2.169" transform="translate(-342.107 -560.284)" fill="#f7a491"/>
    <path id="Path_123771" data-name="Path 123771" d="M363.685,731.988c.807.967.931,2.194.277,2.739s-1.838.2-2.645-.764-.931-2.194-.277-2.739,1.838-.2,2.645.764" transform="translate(-291.164 -590.177)" fill="#f7a491"/>
    <path id="Path_123772" data-name="Path 123772" d="M170.155,555.391c.241-3.3,2.572-15.55-4.924-16.711s-9.1,7.028-13.254-4c-3.851-10.212-15.3-6.258-15.774,1.5a6.86,6.86,0,0,0-3.26.513,7.421,7.421,0,0,0-3.684,9.818c.26.617.112,1.227.493,1.737-.879,3.378-.273,7.239,2.335,11.161,7.122,10.713,14.265-.564,19.081.037s1.677,4.366,5.849,7.3,7.53,2.169,14.32-5.847l1.676-2.209a2.86,2.86,0,0,1-2.859-3.3" transform="translate(-103.854 -426.744)" fill="#031322"/>
    <path id="Path_123773" data-name="Path 123773" d="M1438.277,1131.649a61.455,61.455,0,0,0,7.519-3.75c.306-.162,1.581-1.1,1.762-1.232,3.312,1.97,4.523,3.646,7.133,6.28-1.932.105-2.75-1.479-3.489-1.315-.893.2-3.7,2.084-8.1,5.485-.76-2.459-2.975-3.7-4.824-5.469" transform="translate(-1161.26 -909.666)" fill="#f8a492"/>
    <path id="Path_123774" data-name="Path 123774" d="M1137.753,1352.449a42.836,42.836,0,0,0,2.6,7.879c.091.2.673.346.772.546-2.494,2.939-3.572,7.828-6.6,9.964.218-1.922,1.507-5.531,1.468-6.287-.048-.914-1.439-4-4.062-8.9,2.551-.34,3.77-1.672,5.823-3.2" transform="translate(-913.916 -1091.961)" fill="#f8a492"/>
    <path id="Path_123775" data-name="Path 123775" d="M1142.843,1392.832a1.664,1.664,0,0,1,2.262-.94c.8.51,1.875,1.067,2.673,1.62a1.791,1.791,0,0,1,.939,1.481c-.066.458-10.685,12.876-12.045,13.056s1.155-10.322,2.647-11.4c1.328-.961,1.994.03,3.523-3.815" transform="translate(-917.43 -1123.657)" fill="#064c91"/>
    <path id="Path_123776" data-name="Path 123776" d="M1481.287,1110.387a1.664,1.664,0,0,1-.52-2.394c.645-.7,1.385-1.653,2.072-2.34a1.789,1.789,0,0,1,1.625-.659c.439.146,10.756,12.816,10.689,14.187s-9.948-2.984-10.743-4.645c-.707-1.478.387-1.956-3.123-4.149" transform="translate(-1195.304 -892.146)" fill="#064c91"/>
    <path id="Path_123777" data-name="Path 123777" d="M1183.259,1053.945s20.944,28.223,24.588,28.484c3.408.243,29.823-14.485,29.823-14.485l-3.436-7.606-21.153,7.606-14.729-27.875Z" transform="translate(-955.359 -839.747)" fill="#063e70"/>
    <path id="Path_123778" data-name="Path 123778" d="M1096.831,988.289s3.834.913,6.025,6.755-1.473,10.7-10.657,19.164c-8.942,8.243-17.771,15.986-17.771,15.986l7.249,29.848-6.025,5.112s-13.965-30.334-14.37-37.557c-.155-2.758,21.309-34.744,21.309-34.744Z" transform="translate(-856.874 -797.94)" fill="#064c91"/>
    <path id="Path_123779" data-name="Path 123779" d="M1046.764,765.818l-11.677,6.531-9.251,4.443s-2.259-7.679-1.5-11.442a4.81,4.81,0,0,1,.832-1.461c1.526-2.288-1.735-5.843-1.735-5.843s-1.964-.559-3.3,2.683,1.13,4.616,1.13,4.616-2.812,9.814-1.635,16.964c.617,3.747,9.985,1,17.447-2.232a79.757,79.757,0,0,0,10.9-5.743Z" transform="translate(-823.011 -612.013)" fill="#f7a491"/>
    <path id="Path_123780" data-name="Path 123780" d="M1105.028,791.682a1.187,1.187,0,0,0-1.315-.121c-1.447.538-15.463,8.238-15.463,8.238s1.258,6.735,4.544,8.8l7.062-2.155,5.4-13.653a1.015,1.015,0,0,0-.229-1.113" transform="translate(-878.65 -638.997)" fill="#65cefe"/>
    <path id="Path_123781" data-name="Path 123781" d="M1199.1,634.612c-5.321-3.259-11.954-2.63-15.9,1.749a13.128,13.128,0,0,0-9.991.281c-5.949,2.778-11.214,10.033-6.73,15.3-.953,6.991,3.23,11.057,8.441,11.522,2.833,5.685,12.877,6.268,18.654,1.586,4.774,1.845,10.444,1.05,13.974-2.394a28.9,28.9,0,0,1,2.372-2.272c-.341.172,13.3-1.637,12.678-13.662-.635-12.271-15.32-16.981-23.495-12.109" transform="translate(-940.455 -510.72)" fill="#ff6e53"/>
    <path id="Path_123782" data-name="Path 123782" d="M1159.023,787.52l8.66.477-1.437,12.1s-4.179,11.645-2.475,17.244,3.347,9.677,3.347,9.677-4.93,5.66-18.746,4.5c0,0,.183-10.042,0-13.086s-3.712-15.7-3.225-18.563,3.53-10.773,4.321-11.442,3.926-1,3.926-1Z" transform="translate(-924.55 -635.766)" fill="#c9edf9"/>
    <path id="Path_123783" data-name="Path 123783" d="M1186.132,743.6s-.148.978-.29,2.235a23.528,23.528,0,0,0-.194,4.639c.268,1.928-1.547,7.011-5.644,7.2s-.086-5.614.223-7.527.307-8.882.307-8.882Z" transform="translate(-951.252 -598.49)" fill="#f7a491"/>
    <path id="Path_123784" data-name="Path 123784" d="M1190.471,744.211c0-1.609-.034-2.95-.034-2.95l5.6,2.339s-.153,1.012-.3,2.3a4.8,4.8,0,0,1-5.267-1.687" transform="translate(-961.154 -598.49)" fill="#f47458"/>
    <path id="Path_123785" data-name="Path 123785" d="M1186.041,677.7a7.064,7.064,0,0,1,3.6,3.312c1.229,2.473,1.454,9.349-3.873,11.91s-8.645-2.357-8.189-6.714,2.08-10.049,8.464-8.509" transform="translate(-950.738 -546.966)" fill="#f7a491"/>
    <path id="Path_123786" data-name="Path 123786" d="M1172.213,705.426c.3,1.1,1.057,1.851,1.7,1.678s.919-1.2.622-2.3-1.057-1.851-1.7-1.678-.919,1.2-.622,2.3" transform="translate(-946.345 -567.676)" fill="#f7a491"/>
    <path id="Path_123787" data-name="Path 123787" d="M1235.9,721.31c-.494,1.087-.3,2.24.436,2.574s1.732-.277,2.226-1.365.3-2.24-.437-2.574-1.731.277-2.225,1.365" transform="translate(-997.64 -581.206)" fill="#f7a491"/>
    <path id="Path_123788" data-name="Path 123788" d="M179.874,534.463,144.46,431.3a12.557,12.557,0,0,0-15.848-7.753L79.166,440.017a12.281,12.281,0,0,0-7.819,15.635L106.76,558.813a12.557,12.557,0,0,0,15.848,7.753L172.055,550.1a12.282,12.282,0,0,0,7.819-15.635m-12.01,2.6L117.91,553.7a7.243,7.243,0,0,1-9.141-4.472L76.015,453.818a7.083,7.083,0,0,1,4.51-9.018l49.954-16.637a7.243,7.243,0,0,1,9.141,4.472l32.754,95.414a7.083,7.083,0,0,1-4.51,9.018" transform="translate(-57.067 -341.447)" fill="#063e70"/>
    <path id="Path_123789" data-name="Path 123789" d="M1038.65,446.586l-55.564-12.561c-7.344-1.66-14.585,2.686-16.172,9.708L941.559,555.889c-1.587,7.022,3.079,14.06,10.423,15.721l55.565,12.561c7.344,1.66,14.584-2.686,16.172-9.708l25.356-112.157c1.587-7.022-3.08-14.06-10.424-15.721M1020.342,564.56a7.7,7.7,0,0,1-9.327,5.6l-56.135-12.69a7.7,7.7,0,0,1-6.012-9.067l23.451-103.734a7.7,7.7,0,0,1,9.328-5.6l56.135,12.691a7.7,7.7,0,0,1,6.012,9.067Z" transform="translate(-759.961 -350.144)" fill="#e16d2c"/>
    <path id="Path_123790" data-name="Path 123790" d="M1260.538,730.228s18.26-4.435,22.331-5.181,18.2-5.841,18.739-6.057,2.555-7.482,3.352-6.975-1.222,3.664-.225,4.072,9.5-3.4,9.563-2.711c.11,1.289-5.117,2.529-4.952,3.121s5.337-1.795,5.97-.909-5.107,1.807-5.211,2.306,5.513-.15,5.208.915c-.166.578-5.009.458-4.8,1.13s3.893,1.335,3.637,1.983-3.015-.967-4.921-.482-3.532-.14-6.339,1.508-12.015,8.6-18.564,10.033-21.011,4.647-21.011,4.647Z" transform="translate(-1017.754 -574.857)" fill="#f7a491"/>
    <path id="Path_123791" data-name="Path 123791" d="M1237.571,790.538a16.957,16.957,0,0,1,4.77-.326c.83.006,2,.013,2.886-.013,3.3-.094,6.431.061,6.431.061s1.659,8.014.278,10.061c0,0-12.9,1.843-12.593,2.74Z" transform="translate(-999.21 -637.978)" fill="#c9edf9"/>
    <path id="Path_123792" data-name="Path 123792" d="M1003.86,769.877l1.112-1.406a2.727,2.727,0,0,1,1.73-1.176c1.04-.1,1.008-1.409-.093-1.223a10.478,10.478,0,0,0-1.794.448,20.44,20.44,0,0,0,2.227-1.27c.218-.819-.99-1.138-2.608.063s-.574,4.563-.574,4.563" transform="translate(-810.245 -617.271)" fill="#f7a491"/>
    <path id="Path_123793" data-name="Path 123793" d="M216.536,999.478a11.4,11.4,0,0,0-1.42.9c.011-.023.022-.046.033-.07.233-.244,1.032-1.1,1.039-1.1,1.051-.8.5-1.659-.483-1.127a10.457,10.457,0,0,0-1.552,1,12.33,12.33,0,0,0,1.7-1.922c-.024-.847-1.3-.757-2.448.9-1,1.453.476,3.993.9,4.594a3.068,3.068,0,0,0,1.2,1.278l.261-1.657a2.727,2.727,0,0,1,1.258-1.672c.95-.435.5-1.659-.484-1.128" transform="translate(-172.023 -804.678)" fill="#f7a491"/>
    <path id="Path_123794" data-name="Path 123794" d="M1025.843,759.951s2.594-2.085,3.006-1.2.233,2.8-.154,2.669-.335-1.5-1.45-1.146c-.311.1-1.854.587-1.4-.326" transform="translate(-828.196 -612.437)" fill="#f7a491"/>
    <path id="Path_123795" data-name="Path 123795" d="M770.364,47.43l-93.19-19.872a9.7,9.7,0,0,1-7.46-11.5L671.5,7.67a9.7,9.7,0,0,1,11.5-7.46L776.2,20.082a9.7,9.7,0,0,1,7.46,11.5l-1.788,8.385a9.7,9.7,0,0,1-11.5,7.46" transform="translate(-540.551 0.005)" fill="#490059"/>
    <path id="Path_123796" data-name="Path 123796" d="M1106.9,210.43l8.582,11.723,2.751-8.674Z" transform="translate(-893.705 -169.899)" fill="#490059"/>
    <path id="Path_123797" data-name="Path 123797" d="M790.737,53.443a4.412,4.412,0,1,1-3.473-4.723,4.16,4.16,0,0,1,3.473,4.723" transform="translate(-631.456 -39.247)" fill="#fff"/>
    <path id="Path_123798" data-name="Path 123798" d="M767.94,86.724l-.645-.138a5.97,5.97,0,0,0-7.083,4.593l-.507,2.376,12.321,2.628.507-2.376a5.97,5.97,0,0,0-4.593-7.083" transform="translate(-613.383 -69.801)" fill="#fff"/>
    <path id="Path_123799" data-name="Path 123799" d="M907.861,83.572c-.87,4.076-7.464,6.125-14.729,4.576s-12.45-6.11-11.581-10.186,7.464-6.125,14.729-4.576,12.45,6.11,11.581,10.186" transform="translate(-711.685 -58.833)" fill="#fff"/>
    <path id="Path_123800" data-name="Path 123800" d="M938.617,124.65l-4.2,3.957,9.961-2.356L944,119.824Z" transform="translate(-754.441 -96.744)" fill="#fff"/>
    <path id="Path_123801" data-name="Path 123801" d="M1096.222,115.643l1.506-.748a1.088,1.088,0,0,0,.566-1.258,10.4,10.4,0,0,0-1.889-3.862,1.087,1.087,0,0,0-1.309-.276l-2.635,1.287a1.088,1.088,0,0,0-.6.85,13.535,13.535,0,0,0,2.318,9.451,22.389,22.389,0,0,0,8.467,7.215,1.089,1.089,0,0,0,1.1-.117l2.427-1.8a1.088,1.088,0,0,0,.321-1.366,8.544,8.544,0,0,0-3.494-3.6,1.088,1.088,0,0,0-1.247.14l-.908.806a1.088,1.088,0,0,1-1.329.09c-.887-.594-2.4-2.034-3.812-5.419a1.087,1.087,0,0,1,.52-1.393" transform="translate(-881.486 -88.319)" fill="#fff"/>
    <path id="Path_123802" data-name="Path 123802" d="M643.382,667.282l-14.051-8.539a3.022,3.022,0,0,1-1.013-4.153l8.539-14.051a3.022,3.022,0,0,1,4.152-1.013l14.051,8.539a3.022,3.022,0,0,1,1.013,4.152l-8.539,14.051a3.022,3.022,0,0,1-4.152,1.013" transform="translate(-506.946 -515.995)" fill="#65cefe"/>
    <path id="Path_123803" data-name="Path 123803" d="M679.105,686.4a1.6,1.6,0,0,0-.419-2.228,38.979,38.979,0,0,0-11.4-7.015,1.585,1.585,0,0,0-2.174.659A46.05,46.05,0,0,0,663,684.755a1.613,1.613,0,0,0,.981,1.87,1.632,1.632,0,0,0,2.07-.784l.595-1.267a1.011,1.011,0,0,1,1.4-.393,32.962,32.962,0,0,1,4.118,2.494,1,1,0,0,1,.3,1.415l-.841,1.1a1.6,1.6,0,0,0,.284,2.169,1.635,1.635,0,0,0,2.11.013c.617-.545,4.012-3.856,5.086-4.973" transform="translate(-535.267 -546.602)" fill="#fff"/>
    <path id="Path_123804" data-name="Path 123804" d="M687.884,685.511a1.144,1.144,0,0,1,.417.441l.472-.776-1-.608-.471.776a1.141,1.141,0,0,1,.583.167" transform="translate(-554.924 -552.717)" fill="#65cefe"/>
    <path id="Path_123805" data-name="Path 123805" d="M678.176,687.742a1.146,1.146,0,0,1,.44-.417l-.776-.471-.608,1,.776.471a1.144,1.144,0,0,1,.167-.583" transform="translate(-546.795 -554.562)" fill="#65cefe"/>
    <path id="Path_123806" data-name="Path 123806" d="M680.406,697.815a1.142,1.142,0,0,1-.417-.44l-.472.776,1,.607.471-.776a1.141,1.141,0,0,1-.583-.167" transform="translate(-548.64 -563.056)" fill="#65cefe"/>
    <path id="Path_123807" data-name="Path 123807" d="M690.647,694.635a1.151,1.151,0,0,1-.607,1l.776.472.608-1Z" transform="translate(-557.136 -560.845)" fill="#65cefe"/>
    <path id="Path_123808" data-name="Path 123808" d="M684.889,691.989a.7.7,0,1,1-.235-.963.7.7,0,0,1,.235.963" transform="translate(-551.927 -557.848)" fill="#65cefe"/>
    <path id="Path_123809" data-name="Path 123809" d="M724.711,715.432a1.5,1.5,0,1,1-.5-2.06,1.5,1.5,0,0,1,.5,2.06" transform="translate(-582.884 -575.797)" fill="#65cefe"/>
    <path id="Path_123810" data-name="Path 123810" d="M809.16,345.052a6.354,6.354,0,0,1,3.534-4.316,5.139,5.139,0,0,1,6.827,2.782c1.414,3.049.554,7.832-4.57,14.019-8.032-.084-12.239-2.516-13.654-5.565a5.139,5.139,0,0,1,2.284-7.009,6.354,6.354,0,0,1,5.578.09" transform="translate(-646.517 -274.734)" fill="#ff6e53"/>
    <path id="Path_123811" data-name="Path 123811" d="M199.822,195.663l-17.853,8.507a4.224,4.224,0,0,1-5.631-2l-4.79-10.053a4.224,4.224,0,0,1,2-5.63l17.853-8.507a4.224,4.224,0,0,1,5.63,2l4.79,10.053a4.224,4.224,0,0,1-2,5.63" transform="translate(-138.175 -143.369)" fill="#c9edf9"/>
    <path id="Path_123812" data-name="Path 123812" d="M173.518,276.827l-3.823,11.393,8.493-6.28Z" transform="translate(-137.011 -223.508)" fill="#c9edf9"/>
    <path id="Path_123813" data-name="Path 123813" d="M221.069,217.372l2.258-1.148s1.83-3.539,1.549-4.339-1.53-2.176-1.182-2.593a1.659,1.659,0,0,1,2.3-.321c.786.518,1.718,3.352,2.072,3.4a13.4,13.4,0,0,0,2.493-1.064,1.879,1.879,0,0,1,1.94.168h0a1,1,0,0,1,.323,1.219l-.3.672.658.337a1,1,0,0,1,.437,1.342l-.253.5.427.18a1,1,0,0,1,.487,1.409l-.236.423.1.073a1,1,0,0,1,.279,1.323l-.243.411-6.016,3.055a4.635,4.635,0,0,1-1.811.494l-2.294.725a.522.522,0,0,1-.626-.269l-2.594-5.3a.522.522,0,0,1,.232-.695" transform="translate(-178.26 -168.458)" fill="#fff"/>
    <path id="Path_123814" data-name="Path 123814" d="M851.09,503.026c13.494-3.065,25.96,1.171,27.843,9.46.941,4.145-.941,8.518-4.747,12.239l8.253,10.978-13.683-6.884a38.167,38.167,0,0,1-10.848,4.226c-13.495,3.065-25.96-1.171-27.843-9.46s7.531-17.494,21.025-20.559" transform="translate(-669.998 -405.336)" fill="#e0a387"/>
    <path id="Path_123815" data-name="Path 123815" d="M934.533,543.845a8.732,8.732,0,1,1-8.373-9.079,8.73,8.73,0,0,1,8.373,9.079" transform="translate(-740.444 -431.761)" fill="#ffcb83"/>
    <path id="Path_123816" data-name="Path 123816" d="M937.889,586.3a4.668,4.668,0,1,0,9.329.378Z" transform="translate(-757.245 -473.373)" fill="#efefef"/>
    <path id="Path_123817" data-name="Path 123817" d="M11.336,707.669l-4.452.888.553,4.195-4.347,1.069.034,4.074L0,719.226l.674,1.581,4.176-1.781-.032-3.861,4.523-1.112L8.8,709.928l4.035-.8Z" transform="translate(0 -571.368)" fill="#ff6e53"/>
    <path id="Path_123818" data-name="Path 123818" d="M1540.228,843.333l-1.243-4.367-4.137.887-1.414-4.248-4.058.361-1.578-3.006-1.522.8,2.11,4.02,3.846-.341,1.471,4.419,4.069-.873,1.126,3.957Z" transform="translate(-1232.311 -672.528)" fill="#ffcb83"/>
    <path id="Path_123819" data-name="Path 123819" d="M16.475,444.326l-2.489.764-1.671-3.869-3.776.668L6.815,439.2l-1.362.873,2.306,3.6,3.579-.633,1.739,4.024,3.745-1.149Z" transform="translate(-4.402 -354.606)" fill="#65cefe"/>
    <path id="Path_123820" data-name="Path 123820" d="M488.653,541.049a9.127,9.127,0,0,0-3.907-1.4c-1.009-.091-5.418-.088-5.99.972s4.058,4.064,4.3,5.312-2.68,20.629-3.526,24.478a52.15,52.15,0,0,1-3.532,8.61c2.179.348,4.841,2.13,6.513,3.4,2.143-4.688,4.336-9.958,4.609-12.436.551-5,2.4-28.226,1.528-28.942" transform="translate(-384.323 -435.684)" fill="#f7a491"/>
    <path id="Path_123821" data-name="Path 123821" d="M567.35,373.452c-1.5-.126-9.36,5.866-9.36,5.866l-.351.47s10.609,1.793,11.107,1.459c1.344-.9-.161-7.692-1.4-7.8m-9.334,6.049a57.839,57.839,0,0,1,8.972-4.623,12.116,12.116,0,0,1,.962,5.085c-1.251-.094-6.83.032-9.934-.461" transform="translate(-450.236 -301.521)" fill="#65cefe"/>
    <path id="Path_123822" data-name="Path 123822" d="M513.123,333.441c-1.359-3.638-2.687-3.468-3.629-3.345s-5.174,3.12-4.779,5.424,8.864,9.033,8.864,9.033l.56-.649s.342-6.825-1.017-10.463M506,335.295c-.2-1.15,2.738-3.6,3.7-3.907a1.514,1.514,0,0,1,.566-.008c.179.051.825.384,1.623,2.519a40.216,40.216,0,0,1,1.772,9.891c-3.377-2.822-7.445-7.506-7.665-8.5" transform="translate(-407.485 -266.478)" fill="#65cefe"/>
    <path id="Path_123823" data-name="Path 123823" d="M548.592,399.986l.461.132a.861.861,0,0,0,1.064-.591l.387-1.357a.861.861,0,0,0-.591-1.064l-.461-.132a.861.861,0,0,0-1.064.591L548,398.922a.861.861,0,0,0,.591,1.064" transform="translate(-442.427 -320.487)" fill="#65cefe"/>
    <path id="Path_123824" data-name="Path 123824" d="M463.94,416.375l-29.22-8.344a3.117,3.117,0,0,1-2.19-3.655l5.17-23.908,38.052,10.866-8.576,23.989c-.358,1-1.784,1.466-3.235,1.052" transform="translate(-349.166 -307.188)" fill="#e16d2c"/>
    <path id="Path_123825" data-name="Path 123825" d="M484.54,394.938l-41.331-11.717.319-2.781a2.715,2.715,0,0,1,3.45-2.3l37.351,10.777c1.328.383,2.134,1.5,1.745,2.414Z" transform="translate(-357.845 -305.222)" fill="#ffcb83"/>
    <rect id="Rectangle_56399" data-name="Rectangle 56399" width="5.855" height="0.818" transform="translate(105.189 83.632) rotate(-74.075)" fill="#65cefe"/>
    <rect id="Rectangle_56400" data-name="Rectangle 56400" width="22.01" height="1.022" transform="translate(99.95 104.997) rotate(-74.068)" fill="#65cefe"/>
    <path id="Path_123826" data-name="Path 123826" d="M485.422,530.867l.106-1.243a27.516,27.516,0,0,1-2.755-.952l-.161-.949c-.525-1.3-1.108-.373-1.278-.076a6.768,6.768,0,0,0,.145,1.864s1.97,2.08,2.81,2.867c.416.389,1.746,1.469,1.746,1.469l1.057-1.465Z" transform="translate(-388.623 -425.535)" fill="#f7a491"/>
  </g>
</svg>
