<svg xmlns="http://www.w3.org/2000/svg" width="22.366" height="19.98" viewBox="0 0 22.366 19.98">
  <path id="Path_4" data-name="Path 4" d="M14.956,30a4.822,4.822,0,0,0-3.011,1.041,6.86,6.86,0,0,0-1.762,2.119,6.859,6.859,0,0,0-1.762-2.119A4.822,4.822,0,0,0,5.41,30C2.326,30,0,32.523,0,35.868c0,3.614,2.9,6.087,7.294,9.83.746.636,1.591,1.356,2.47,2.125a.637.637,0,0,0,.838,0c.879-.769,1.724-1.489,2.471-2.125,4.392-3.743,7.294-6.215,7.294-9.829C20.366,32.523,18.04,30,14.956,30Z" transform="translate(1 -29)" fill="none" stroke="#ababb7" stroke-width="2"/>
</svg>
