<svg xmlns="http://www.w3.org/2000/svg" width="23.2" height="20.481" viewBox="0 0 23.2 20.481">
  <path id="Path_4" data-name="Path 4" d="M17.037,30a5.493,5.493,0,0,0-3.43,1.186A7.814,7.814,0,0,0,11.6,33.6a7.814,7.814,0,0,0-2.007-2.414A5.493,5.493,0,0,0,6.162,30C2.649,30,0,32.874,0,36.684c0,4.117,3.305,6.933,8.309,11.2.85.724,1.813,1.545,2.814,2.42a.725.725,0,0,0,.954,0c1-.876,1.964-1.7,2.814-2.421,5-4.264,8.308-7.08,8.308-11.2C23.2,32.874,20.55,30,17.037,30Z" transform="translate(0 -30)" fill="#fff"/>
</svg>
