<?xml version="1.0" encoding="UTF-8"?>
<svg viewBox="0 0 19.675 18.543" xmlns="http://www.w3.org/2000/svg">
<path transform="translate(0 -14.729)" d="M11.823,32.041a1.231,1.231,0,0,0-1.231-1.231H9.084a1.231,1.231,0,0,0,0,2.463h1.508A1.231,1.231,0,0,0,11.823,32.041ZM2.589,28.866a5.332,5.332,0,0,0,.7.01,3.5,3.5,0,0,0,3.429,2.819h.47a1.932,1.932,0,0,0,0,.692h-.47a4.187,4.187,0,0,1-4.134-3.521Zm-.352-.736A2.683,2.683,0,0,1,0,25.484V23.849a2.683,2.683,0,0,1,2.683-2.683h.179a7,7,0,0,1,13.952,0h.179a2.683,2.683,0,0,1,2.683,2.683v1.635a2.683,2.683,0,0,1-2.683,2.683H16.2a.594.594,0,0,1-.594-.594V21.727a5.769,5.769,0,0,0-11.537,0v5.845a.594.594,0,0,1-.326.531,3.628,3.628,0,0,1-1.506.026Z" fill="#f26404" fill-rule="evenodd"/>
</svg>
