<svg xmlns="http://www.w3.org/2000/svg" width="35" height="35" viewBox="0 0 35 35">
  <g id="Group_85735" data-name="Group 85735" transform="translate(-311 -20.513)">
    <path id="Rectangle_26771" data-name="Rectangle 26771" d="M-574.079,468.553h0a17.5,17.5,0,0,1,17.5,17.5h0a17.5,17.5,0,0,1-17.5,17.5h0a17.5,17.5,0,0,1-17.5-17.5h0A17.5,17.5,0,0,1-574.079,468.553Z" transform="translate(902.579 -448.04)" fill="#5ebb5e"/>
    <path id="form-3" d="M12.267.214a3.541,3.541,0,0,1,1.339.83l1.18,1.182a3.531,3.531,0,0,1,.83,1.339h-3.35Zm-1.426,8.34H7.99a.713.713,0,0,0,0,1.426h2.851a.713.713,0,1,0,0-1.426ZM12.267,4.99a1.426,1.426,0,0,1-1.426-1.426V0H6.564A3.569,3.569,0,0,0,3,3.564v9.98a3.569,3.569,0,0,0,3.564,3.564h5.7a3.569,3.569,0,0,0,3.564-3.564V4.99Zm0,9.267h-5.7a.713.713,0,1,1,0-1.426h5.7a.713.713,0,1,1,0,1.426Zm-1.426-2.851H7.99a2.139,2.139,0,1,1,0-4.277h2.851a2.139,2.139,0,0,1,0,4.277Z" transform="translate(319.1 29.459)" fill="#fff"/>
  </g>
</svg>
