<svg id="Layer_2" data-name="Layer 2" xmlns="http://www.w3.org/2000/svg" width="24" height="24" viewBox="0 0 24 24">
  <g id="email">
    <rect id="Rectangle_8" data-name="Rectangle 8" width="24" height="24" fill="#2d2e49" opacity="0"/>
    <path id="_18-account" data-name="18-account" d="M10.07,2.648a3.3,3.3,0,1,0,3.3,3.3A3.3,3.3,0,0,0,10.07,2.648ZM13.18,9.786a4.943,4.943,0,1,0-6.219,0A9.071,9.071,0,0,0,1.052,17.4a1.588,1.588,0,0,0,1.6,1.728h14.83a1.588,1.588,0,0,0,1.6-1.728A9.071,9.071,0,0,0,13.18,9.786Zm-3.109,1.1A7.416,7.416,0,0,0,2.7,17.477H17.44A7.416,7.416,0,0,0,10.07,10.886Z" transform="translate(1.885 1.437)" fill="#ababb7" fill-rule="evenodd"/>
    <path id="_18-account_-_Outline" data-name="18-account - Outline" d="M10.07.85a5.093,5.093,0,0,1,3.4,8.886,9.222,9.222,0,0,1,5.768,7.646,1.674,1.674,0,0,1-.427,1.3,1.792,1.792,0,0,1-1.326.588H2.656a1.792,1.792,0,0,1-1.326-.588,1.674,1.674,0,0,1-.427-1.3A9.222,9.222,0,0,1,6.671,9.736,5.093,5.093,0,0,1,10.07.85Zm7.415,18.125a1.491,1.491,0,0,0,1.1-.489,1.377,1.377,0,0,0,.35-1.074,8.921,8.921,0,0,0-5.811-7.485l-.249-.091.206-.167a4.793,4.793,0,1,0-6.03,0l.206.167-.249.091A8.921,8.921,0,0,0,1.2,17.412a1.377,1.377,0,0,0,.35,1.074,1.491,1.491,0,0,0,1.1.489ZM10.07,2.5A3.445,3.445,0,1,1,6.625,5.943,3.449,3.449,0,0,1,10.07,2.5Zm0,6.591A3.145,3.145,0,1,0,6.925,5.943,3.149,3.149,0,0,0,10.07,9.089Zm0,1.648a7.566,7.566,0,0,1,7.519,6.724l.018.166H2.533l.018-.166a7.566,7.566,0,0,1,7.519-6.724Zm7.2,6.591a7.266,7.266,0,0,0-14.4,0Z" transform="translate(1.885 1.437)" fill="#ababb7"/>
  </g>
</svg>
