<svg xmlns="http://www.w3.org/2000/svg" width="19.669" height="21.974" viewBox="0 0 19.669 21.974">
  <g id="user-35" transform="translate(-24.165)">
    <g id="Group_94773" data-name="Group 94773" transform="translate(24.165)">
      <g id="Group_94772" data-name="Group 94772" transform="translate(0)">
        <path id="Path_123740" data-name="Path 123740" d="M116.5,11.41a5.705,5.705,0,1,0-5.705-5.705A5.72,5.72,0,0,0,116.5,11.41Z" transform="translate(-106.661)" fill="#490059"/>
        <path id="Path_123741" data-name="Path 123741" d="M43.792,251.992a5.318,5.318,0,0,0-.573-1.046,7.092,7.092,0,0,0-4.908-3.089,1.05,1.05,0,0,0-.722.174,6.081,6.081,0,0,1-7.175,0,.935.935,0,0,0-.722-.174,7.04,7.04,0,0,0-4.908,3.089,6.131,6.131,0,0,0-.573,1.046.53.53,0,0,0,.025.473,9.939,9.939,0,0,0,.673,1,9.468,9.468,0,0,0,1.146,1.3,14.931,14.931,0,0,0,1.146,1,11.361,11.361,0,0,0,13.553,0,10.954,10.954,0,0,0,1.146-1,11.506,11.506,0,0,0,1.146-1.3,8.735,8.735,0,0,0,.673-1A.425.425,0,0,0,43.792,251.992Z" transform="translate(-24.165 -236.022)" fill="#490059"/>
      </g>
    </g>
  </g>
</svg>
